{
.appVersion = "1287";
DisplayStrings = (
"JOKERMANBCDFGHILPQSTUVWXYZ\012NN/Placeholder NN OO/Placeholder OO"
);
customParameters = (
{
name = "Enforce Compatibility Check";
value = 1;
},
{
name = Axes;
value = (
{
Name = Chaos;
Tag = chao;
}
);
},
{
name = "Variable Font Family Name";
value = "JKlean Variable";
}
);
date = "2020-01-24 20:05:52 +0000";
familyName = JKlean;
fontMaster = (
{
ascender = 800;
capHeight = 700;
descender = -200;
iconName = Light_Condensed;
id = "B4EA0C51-6804-4423-9CCC-BF57B26265D1";
weightValue = 1;
xHeight = 500;
},
{
ascender = 800;
capHeight = 700;
custom = Weird;
descender = -200;
iconName = Light_Extended;
id = "7390BA8A-CD54-46A0-980C-73781B2212BF";
weightValue = 1000;
xHeight = 500;
}
);
glyphs = (
{
glyphname = A;
lastChange = "2020-01-28 20:18:52 +0000";
layers = (
{
layerId = "B4EA0C51-6804-4423-9CCC-BF57B26265D1";
paths = (
{
closed = 1;
nodes = (
"454 427 LINE SMOOTH",
"448 445 OFFCURVE",
"431 464 OFFCURVE",
"416 464 CURVE SMOOTH",
"399 464 OFFCURVE",
"383 454 OFFCURVE",
"369 434 CURVE SMOOTH",
"81 4 LINE SMOOTH",
"60 -27 OFFCURVE",
"7 -18 OFFCURVE",
"23 28 CURVE SMOOTH",
"235 634 LINE SMOOTH",
"271 736 OFFCURVE",
"433 746 OFFCURVE",
"472 619 CURVE SMOOTH",
"654 29 LINE SMOOTH",
"667 -13 OFFCURVE",
"596 -33 OFFCURVE",
"581 17 CURVE SMOOTH"
);
},
{
closed = 1;
nodes = (
"132 139 LINE",
"177 204 LINE",
"550 219 LINE",
"569 154 LINE"
);
},
{
closed = 1;
nodes = (
"118 201 LINE",
"163 264 LINE",
"218 270 LINE",
"186 208 LINE"
);
},
{
closed = 1;
nodes = (
"172 453 LINE SMOOTH",
"172 453 OFFCURVE",
"189 502 OFFCURVE",
"189 502 CURVE SMOOTH",
"189 502 LINE",
"172 453 LINE"
);
},
{
closed = 1;
nodes = (
"206 550 LINE SMOOTH",
"206 550 OFFCURVE",
"222 597 OFFCURVE",
"222 597 CURVE SMOOTH",
"222 597 LINE",
"206 550 LINE"
);
}
);
width = 676;
},
{
associatedMasterId = "B4EA0C51-6804-4423-9CCC-BF57B26265D1";
layerId = "2E07C9A4-81C5-4AAC-8649-544E431A0129";
name = "Jan 26 20, 17:13";
paths = (
{
closed = 1;
nodes = (
"231 637 LINE SMOOTH",
"269 742 OFFCURVE",
"477 749 OFFCURVE",
"504 634 CURVE SMOOTH",
"644 29 LINE SMOOTH",
"654 -13 OFFCURVE",
"584 -34 OFFCURVE",
"571 17 CURVE SMOOTH",
"537 150 LINE",
"161 136 LINE",
"79 4 LINE SMOOTH",
"58 -29 OFFCURVE",
"-4 -19 OFFCURVE",
"13 28 CURVE SMOOTH"
);
},
{
closed = 1;
nodes = (
"206 221 OFFCURVE",
"216 208 OFFCURVE",
"237 209 CURVE SMOOTH",
"498 218 LINE SMOOTH",
"512 219 OFFCURVE",
"518 232 OFFCURVE",
"515 247 CURVE SMOOTH",
"454 521 LINE SMOOTH",
"450 537 OFFCURVE",
"442 544 OFFCURVE",
"427 544 CURVE SMOOTH",
"411 544 OFFCURVE",
"392 530 OFFCURVE",
"378 507 CURVE SMOOTH",
"218 241 LINE SMOOTH"
);
}
);
width = 673;
},
{
associatedMasterId = "B4EA0C51-6804-4423-9CCC-BF57B26265D1";
layerId = "E355F57D-7864-462D-9ED1-E3A6FC41CED2";
name = "Jan 26 20, 17:14";
paths = (
{
closed = 1;
nodes = (
"235 634 LINE SMOOTH",
"272 735 OFFCURVE",
"435 747 OFFCURVE",
"472 619 CURVE SMOOTH",
"644 29 LINE SMOOTH",
"656 -13 OFFCURVE",
"586 -33 OFFCURVE",
"571 17 CURVE SMOOTH",
"530 150 LINE",
"176 145 LINE",
"79 4 LINE SMOOTH",
"57 -27 OFFCURVE",
"-4 -18 OFFCURVE",
"13 28 CURVE SMOOTH"
);
},
{
closed = 1;
nodes = (
"221 226 OFFCURVE",
"230 213 OFFCURVE",
"249 213 CURVE SMOOTH",
"491 218 LINE SMOOTH",
"505 218 OFFCURVE",
"513 232 OFFCURVE",
"508 247 CURVE SMOOTH",
"446 455 LINE SMOOTH",
"441 473 OFFCURVE",
"423 492 OFFCURVE",
"408 492 CURVE SMOOTH",
"391 492 OFFCURVE",
"374 483 OFFCURVE",
"361 462 CURVE SMOOTH",
"232 245 LINE SMOOTH"
);
}
);
width = 673;
},
{
layerId = "7390BA8A-CD54-46A0-980C-73781B2212BF";
paths = (
{
closed = 1;
nodes = (
"454 427 LINE SMOOTH",
"448 445 OFFCURVE",
"431 464 OFFCURVE",
"416 464 CURVE SMOOTH",
"399 464 OFFCURVE",
"383 454 OFFCURVE",
"369 434 CURVE SMOOTH",
"81 4 LINE SMOOTH",
"60 -27 OFFCURVE",
"7 -18 OFFCURVE",
"23 28 CURVE SMOOTH",
"235 634 LINE SMOOTH",
"271 736 OFFCURVE",
"433 746 OFFCURVE",
"472 619 CURVE SMOOTH",
"654 29 LINE SMOOTH",
"667 -13 OFFCURVE",
"596 -33 OFFCURVE",
"581 17 CURVE SMOOTH"
);
},
{
closed = 1;
nodes = (
"97 103 LINE",
"142 162 LINE",
"555 180 LINE",
"574 118 LINE"
);
},
{
closed = 1;
nodes = (
"118 201 LINE",
"163 264 LINE",
"536 303 LINE",
"555 246 LINE"
);
},
{
closed = 1;
nodes = (
"244 424 LINE SMOOTH",
"266 415 OFFCURVE",
"287 462 OFFCURVE",
"265 471 CURVE SMOOTH",
"189 502 LINE",
"172 453 LINE"
);
},
{
closed = 1;
nodes = (
"289 514 LINE SMOOTH",
"311 505 OFFCURVE",
"332 553 OFFCURVE",
"310 562 CURVE SMOOTH",
"222 597 LINE",
"206 550 LINE"
);
}
);
width = 676;
},
{
associatedMasterId = "7390BA8A-CD54-46A0-980C-73781B2212BF";
layerId = "46461AB6-5A6F-494B-95FD-9015B0B87F1C";
name = "Jan 26 20, 17:13";
paths = (
{
closed = 1;
nodes = (
"231 637 LINE SMOOTH",
"269 742 OFFCURVE",
"477 749 OFFCURVE",
"504 634 CURVE SMOOTH",
"644 29 LINE SMOOTH",
"654 -13 OFFCURVE",
"584 -34 OFFCURVE",
"571 17 CURVE SMOOTH",
"537 150 LINE",
"161 136 LINE",
"79 4 LINE SMOOTH",
"58 -29 OFFCURVE",
"-4 -19 OFFCURVE",
"13 28 CURVE SMOOTH"
);
},
{
closed = 1;
nodes = (
"206 221 OFFCURVE",
"216 208 OFFCURVE",
"237 209 CURVE SMOOTH",
"498 218 LINE SMOOTH",
"512 219 OFFCURVE",
"518 232 OFFCURVE",
"515 247 CURVE SMOOTH",
"454 521 LINE SMOOTH",
"450 537 OFFCURVE",
"442 544 OFFCURVE",
"427 544 CURVE SMOOTH",
"411 544 OFFCURVE",
"392 530 OFFCURVE",
"378 507 CURVE SMOOTH",
"218 241 LINE SMOOTH"
);
}
);
width = 673;
},
{
associatedMasterId = "7390BA8A-CD54-46A0-980C-73781B2212BF";
layerId = "E88BBFFB-F606-4A25-A2EB-D188FBEB2B60";
name = "Jan 26 20, 17:14";
paths = (
{
closed = 1;
nodes = (
"235 634 LINE SMOOTH",
"272 735 OFFCURVE",
"435 747 OFFCURVE",
"472 619 CURVE SMOOTH",
"644 29 LINE SMOOTH",
"656 -13 OFFCURVE",
"586 -33 OFFCURVE",
"571 17 CURVE SMOOTH",
"530 150 LINE",
"176 145 LINE",
"79 4 LINE SMOOTH",
"57 -27 OFFCURVE",
"-4 -18 OFFCURVE",
"13 28 CURVE SMOOTH"
);
},
{
closed = 1;
nodes = (
"221 226 OFFCURVE",
"230 213 OFFCURVE",
"249 213 CURVE SMOOTH",
"491 218 LINE SMOOTH",
"505 218 OFFCURVE",
"513 232 OFFCURVE",
"508 247 CURVE SMOOTH",
"446 455 LINE SMOOTH",
"441 473 OFFCURVE",
"423 492 OFFCURVE",
"408 492 CURVE SMOOTH",
"391 492 OFFCURVE",
"374 483 OFFCURVE",
"361 462 CURVE SMOOTH",
"232 245 LINE SMOOTH"
);
}
);
width = 673;
}
);
unicode = 0041;
},
{
glyphname = B;
lastChange = "2020-01-30 01:27:28 +0000";
layers = (
{
associatedMasterId = "B4EA0C51-6804-4423-9CCC-BF57B26265D1";
layerId = "0F17C31E-EC40-42CE-A2EE-2E46078C9AFB";
name = "Jan 26 20, 17:41";
paths = (
{
closed = 1;
nodes = (
"74 -5 OFFCURVE",
"129 -25 OFFCURVE",
"241 -25 CURVE SMOOTH",
"409 -25 OFFCURVE",
"545 42 OFFCURVE",
"545 209 CURVE SMOOTH",
"545 304 OFFCURVE",
"452 378 OFFCURVE",
"372 393 CURVE SMOOTH",
"356 396 OFFCURVE",
"355 413 OFFCURVE",
"370 418 CURVE SMOOTH",
"426 437 OFFCURVE",
"474 483 OFFCURVE",
"474 542 CURVE SMOOTH",
"474 669 OFFCURVE",
"340 707 OFFCURVE",
"263 707 CURVE SMOOTH",
"192 707 OFFCURVE",
"79 683 OFFCURVE",
"78 591 CURVE SMOOTH",
"74 46 LINE SMOOTH"
);
},
{
closed = 1;
nodes = (
"325 644 OFFCURVE",
"403 618 OFFCURVE",
"403 537 CURVE SMOOTH",
"403 495 OFFCURVE",
"366 440 OFFCURVE",
"145 405 CURVE",
"147 586 LINE SMOOTH",
"148 630 OFFCURVE",
"192 644 OFFCURVE",
"261 644 CURVE SMOOTH"
);
},
{
closed = 1;
nodes = (
"193 356 OFFCURVE",
"263 363 OFFCURVE",
"315 363 CURVE SMOOTH",
"366 363 OFFCURVE",
"399 344 OFFCURVE",
"399 282 CURVE SMOOTH",
"399 158 OFFCURVE",
"295 37 OFFCURVE",
"192 37 CURVE SMOOTH",
"160 37 OFFCURVE",
"144 43 OFFCURVE",
"144 74 CURVE SMOOTH",
"146 349 LINE"
);
}
);
width = 600;
},
{
associatedMasterId = "B4EA0C51-6804-4423-9CCC-BF57B26265D1";
layerId = "4FF41522-01DA-4FF5-941E-E3B0E4865AEF";
name = "Jan 26 20, 18:05";
paths = (
{
closed = 1;
nodes = (
"60 -5 OFFCURVE",
"131 -25 OFFCURVE",
"240 -25 CURVE SMOOTH",
"434 -25 OFFCURVE",
"552 61 OFFCURVE",
"552 194 CURVE SMOOTH",
"552 304 OFFCURVE",
"461 365 OFFCURVE",
"378 381 CURVE SMOOTH",
"362 384 OFFCURVE",
"360 399 OFFCURVE",
"375 405 CURVE SMOOTH",
"426 425 OFFCURVE",
"474 461 OFFCURVE",
"474 553 CURVE SMOOTH",
"474 664 OFFCURVE",
"357 705 OFFCURVE",
"264 705 CURVE SMOOTH",
"184 705 OFFCURVE",
"65 684 OFFCURVE",
"64 568 CURVE SMOOTH",
"60 63 LINE SMOOTH"
);
},
{
closed = 1;
nodes = (
"343 644 OFFCURVE",
"408 614 OFFCURVE",
"408 557 CURVE SMOOTH",
"408 457 OFFCURVE",
"348 414 OFFCURVE",
"129 402 CURVE",
"130 553 LINE SMOOTH",
"131 638 OFFCURVE",
"203 644 OFFCURVE",
"262 644 CURVE SMOOTH"
);
},
{
closed = 1;
nodes = (
"175 352 OFFCURVE",
"245 356 OFFCURVE",
"282 356 CURVE SMOOTH",
"344 356 OFFCURVE",
"372 333 OFFCURVE",
"372 262 CURVE SMOOTH",
"372 148 OFFCURVE",
"299 41 OFFCURVE",
"197 41 CURVE SMOOTH",
"154 41 OFFCURVE",
"128 50 OFFCURVE",
"128 78 CURVE SMOOTH",
"130 348 LINE"
);
}
);
width = 566;
},
{
layerId = "B4EA0C51-6804-4423-9CCC-BF57B26265D1";
paths = (
{
closed = 1;
nodes = (
"64 21 OFFCURVE",
"114 -6 OFFCURVE",
"269 -6 CURVE SMOOTH",
"426 -6 OFFCURVE",
"521 68 OFFCURVE",
"521 195 CURVE SMOOTH",
"521 321 OFFCURVE",
"454 379 OFFCURVE",
"370 395 CURVE SMOOTH",
"354 398 OFFCURVE",
"356 409 OFFCURVE",
"370 417 CURVE SMOOTH",
"399 433 OFFCURVE",
"450 473 OFFCURVE",
"450 539 CURVE SMOOTH",
"450 659 OFFCURVE",
"359 705 OFFCURVE",
"265 705 CURVE SMOOTH",
"165 705 LINE SMOOTH",
"113 705 OFFCURVE",
"69 676 OFFCURVE",
"69 623 CURVE SMOOTH",
"65 115 LINE SMOOTH"
);
},
{
closed = 1;
nodes = (
"345 646 OFFCURVE",
"384 609 OFFCURVE",
"384 543 CURVE SMOOTH",
"384 472 OFFCURVE",
"304 409 OFFCURVE",
"211 409 CURVE SMOOTH",
"134 409 LINE",
"135 600 LINE SMOOTH",
"135 634 OFFCURVE",
"145 646 OFFCURVE",
"177 646 CURVE SMOOTH",
"267 646 LINE SMOOTH"
);
},
{
closed = 1;
nodes = (
"301 357 LINE SMOOTH",
"338 357 OFFCURVE",
"371 308 OFFCURVE",
"306 190 CURVE SMOOTH",
"255 97 OFFCURVE",
"204 62 OFFCURVE",
"177 62 CURVE SMOOTH",
"151 62 OFFCURVE",
"133 70 OFFCURVE",
"133 130 CURVE SMOOTH",
"135 357 LINE"
);
},
{
closed = 1;
nodes = (
"400 152 OFFCURVE",
"400 152 OFFCURVE",
"400 152 CURVE SMOOTH",
"400 152 OFFCURVE",
"400 152 OFFCURVE",
"400 152 CURVE SMOOTH",
"400 152 OFFCURVE",
"400 152 OFFCURVE",
"400 152 CURVE SMOOTH",
"400 152 OFFCURVE",
"400 152 OFFCURVE",
"400 152 CURVE SMOOTH"
);
},
{
closed = 1;
nodes = (
"417 247 OFFCURVE",
"417 247 OFFCURVE",
"417 247 CURVE SMOOTH",
"417 247 OFFCURVE",
"417 247 OFFCURVE",
"417 247 CURVE SMOOTH",
"417 247 OFFCURVE",
"417 247 OFFCURVE",
"417 247 CURVE SMOOTH",
"417 247 OFFCURVE",
"417 247 OFFCURVE",
"417 247 CURVE SMOOTH"
);
},
{
closed = 1;
nodes = (
"331 80 OFFCURVE",
"331 80 OFFCURVE",
"331 80 CURVE SMOOTH",
"331 80 OFFCURVE",
"331 80 OFFCURVE",
"331 80 CURVE SMOOTH",
"331 80 OFFCURVE",
"331 80 OFFCURVE",
"331 80 CURVE SMOOTH",
"331 80 OFFCURVE",
"331 80 OFFCURVE",
"331 80 CURVE SMOOTH"
);
},
{
closed = 1;
nodes = (
"233 683 OFFCURVE",
"178 683 OFFCURVE",
"178 658 CURVE SMOOTH",
"178 651 LINE",
"233 651 LINE",
"233 658 LINE SMOOTH"
);
},
{
closed = 1;
nodes = (
"403 432 OFFCURVE",
"412 491 OFFCURVE",
"388 496 CURVE SMOOTH",
"383 497 LINE",
"373 445 LINE",
"380 442 LINE SMOOTH"
);
},
{
closed = 1;
nodes = (
"440 564 OFFCURVE",
"416 613 OFFCURVE",
"393 603 CURVE SMOOTH",
"384 599 LINE",
"408 550 LINE",
"417 554 LINE SMOOTH"
);
},
{
closed = 1;
nodes = (
"367 660 OFFCURVE",
"323 682 OFFCURVE",
"308 663 CURVE SMOOTH",
"304 658 LINE",
"352 630 LINE",
"356 638 LINE SMOOTH"
);
}
);
width = 550;
},
{
associatedMasterId = "B4EA0C51-6804-4423-9CCC-BF57B26265D1";
layerId = "589397BB-00E3-4395-BF34-CF9E29315F79";
name = "Jan 26 20, 18:11";
paths = (
{
closed = 1;
nodes = (
"339 390 LINE",
"435 375 OFFCURVE",
"472 484 OFFCURVE",
"472 532 CURVE SMOOTH",
"472 667 OFFCURVE",
"379 705 OFFCURVE",
"284 705 CURVE SMOOTH",
"164 705 LINE SMOOTH",
"117 705 OFFCURVE",
"78 676 OFFCURVE",
"78 625 CURVE SMOOTH",
"74 59 LINE SMOOTH",
"74 -2 OFFCURVE",
"161 -25 OFFCURVE",
"284 -25 CURVE SMOOTH",
"427 -25 OFFCURVE",
"530 30 OFFCURVE",
"530 164 CURVE SMOOTH",
"530 321 OFFCURVE",
"470 380 OFFCURVE",
"259 419 CURVE SMOOTH",
"143 440 LINE",
"144 600 LINE SMOOTH",
"144 634 OFFCURVE",
"154 644 OFFCURVE",
"186 644 CURVE SMOOTH",
"282 644 LINE SMOOTH",
"362 644 OFFCURVE",
"406 609 OFFCURVE",
"406 536 CURVE SMOOTH",
"406 498 OFFCURVE",
"394 398 OFFCURVE",
"245 417 CURVE"
);
},
{
closed = 1;
nodes = (
"216 280 LINE SMOOTH",
"404 248 OFFCURVE",
"469 225 OFFCURVE",
"469 162 CURVE SMOOTH",
"469 99 OFFCURVE",
"396 37 OFFCURVE",
"293 37 CURVE SMOOTH",
"199 37 OFFCURVE",
"142 46 OFFCURVE",
"142 74 CURVE SMOOTH",
"144 292 LINE"
);
}
);
width = 600;
},
{
associatedMasterId = "B4EA0C51-6804-4423-9CCC-BF57B26265D1";
layerId = "564D0C69-64C6-4563-8D02-9BE4AFD47BE7";
name = "Jan 26 20, 18:22";
paths = (
{
closed = 1;
nodes = (
"74 -2 OFFCURVE",
"153 -25 OFFCURVE",
"264 -25 CURVE SMOOTH",
"436 -25 OFFCURVE",
"560 38 OFFCURVE",
"560 194 CURVE SMOOTH",
"560 303 OFFCURVE",
"474 366 OFFCURVE",
"406 384 CURVE SMOOTH",
"390 388 OFFCURVE",
"392 399 OFFCURVE",
"404 407 CURVE SMOOTH",
"432 425 OFFCURVE",
"492 459 OFFCURVE",
"492 542 CURVE SMOOTH",
"492 669 OFFCURVE",
"399 705 OFFCURVE",
"304 705 CURVE SMOOTH",
"164 705 LINE SMOOTH",
"117 705 OFFCURVE",
"78 676 OFFCURVE",
"78 625 CURVE SMOOTH",
"74 59 LINE SMOOTH"
);
},
{
closed = 1;
nodes = (
"382 644 OFFCURVE",
"426 612 OFFCURVE",
"426 546 CURVE SMOOTH",
"426 475 OFFCURVE",
"364 414 OFFCURVE",
"293 414 CURVE SMOOTH",
"143 414 LINE",
"144 600 LINE SMOOTH",
"144 634 OFFCURVE",
"154 644 OFFCURVE",
"186 644 CURVE SMOOTH",
"302 644 LINE SMOOTH"
);
},
{
closed = 1;
nodes = (
"291 362 LINE SMOOTH",
"343 362 OFFCURVE",
"389 341 OFFCURVE",
"389 282 CURVE SMOOTH",
"389 148 OFFCURVE",
"320 37 OFFCURVE",
"223 37 CURVE SMOOTH",
"172 37 OFFCURVE",
"142 46 OFFCURVE",
"142 74 CURVE SMOOTH",
"144 362 LINE"
);
}
);
width = 600;
},
{
associatedMasterId = "B4EA0C51-6804-4423-9CCC-BF57B26265D1";
layerId = "F7DAEACA-7592-4B0E-9DA2-12982BD6004C";
name = "Jan 26 20, 18:32";
paths = (
{
closed = 1;
nodes = (
"74 23 OFFCURVE",
"111 -6 OFFCURVE",
"173 -6 CURVE SMOOTH",
"264 -6 LINE SMOOTH",
"429 -6 OFFCURVE",
"534 52 OFFCURVE",
"534 204 CURVE SMOOTH",
"534 337 OFFCURVE",
"462 375 OFFCURVE",
"400 390 CURVE SMOOTH",
"384 394 OFFCURVE",
"387 404 OFFCURVE",
"400 414 CURVE SMOOTH",
"422 430 OFFCURVE",
"459 474 OFFCURVE",
"459 539 CURVE SMOOTH",
"459 659 OFFCURVE",
"379 705 OFFCURVE",
"300 705 CURVE SMOOTH",
"164 705 LINE SMOOTH",
"117 705 OFFCURVE",
"78 676 OFFCURVE",
"78 625 CURVE SMOOTH",
"74 80 LINE SMOOTH"
);
},
{
closed = 1;
nodes = (
"357 646 OFFCURVE",
"393 609 OFFCURVE",
"393 543 CURVE SMOOTH",
"393 472 OFFCURVE",
"352 409 OFFCURVE",
"290 409 CURVE SMOOTH",
"143 409 LINE",
"144 600 LINE SMOOTH",
"144 634 OFFCURVE",
"154 646 OFFCURVE",
"186 646 CURVE SMOOTH",
"292 646 LINE SMOOTH"
);
},
{
closed = 1;
nodes = (
"288 357 LINE SMOOTH",
"337 357 OFFCURVE",
"381 336 OFFCURVE",
"381 274 CURVE SMOOTH",
"381 161 OFFCURVE",
"321 54 OFFCURVE",
"236 56 CURVE SMOOTH",
"173 57 LINE SMOOTH",
"152 57 OFFCURVE",
"142 73 OFFCURVE",
"142 93 CURVE SMOOTH",
"144 357 LINE"
);
}
);
width = 600;
},
{
associatedMasterId = "B4EA0C51-6804-4423-9CCC-BF57B26265D1";
layerId = "41C8F1DA-7C84-4E51-9FB0-23B4BFF29DA5";
name = "Jan 26 20, 18:50";
paths = (
{
closed = 1;
nodes = (
"73 20 OFFCURVE",
"111 -6 OFFCURVE",
"254 -6 CURVE SMOOTH",
"395 -6 OFFCURVE",
"534 34 OFFCURVE",
"534 202 CURVE SMOOTH",
"534 336 OFFCURVE",
"473 372 OFFCURVE",
"400 390 CURVE SMOOTH",
"384 394 OFFCURVE",
"387 402 OFFCURVE",
"400 412 CURVE SMOOTH",
"422 428 OFFCURVE",
"459 473 OFFCURVE",
"459 539 CURVE SMOOTH",
"459 659 OFFCURVE",
"379 705 OFFCURVE",
"300 705 CURVE SMOOTH",
"164 705 LINE SMOOTH",
"117 705 OFFCURVE",
"78 676 OFFCURVE",
"78 625 CURVE SMOOTH",
"74 115 LINE SMOOTH"
);
},
{
closed = 1;
nodes = (
"357 646 OFFCURVE",
"393 609 OFFCURVE",
"393 543 CURVE SMOOTH",
"393 472 OFFCURVE",
"352 409 OFFCURVE",
"290 409 CURVE SMOOTH",
"143 409 LINE",
"144 600 LINE SMOOTH",
"144 634 OFFCURVE",
"154 646 OFFCURVE",
"186 646 CURVE SMOOTH",
"292 646 LINE SMOOTH"
);
},
{
closed = 1;
nodes = (
"288 357 LINE SMOOTH",
"348 357 OFFCURVE",
"401 341 OFFCURVE",
"401 287 CURVE SMOOTH",
"401 169 OFFCURVE",
"334 57 OFFCURVE",
"226 57 CURVE SMOOTH",
"174 57 OFFCURVE",
"142 65 OFFCURVE",
"142 125 CURVE SMOOTH",
"144 357 LINE"
);
}
);
width = 600;
},
{
associatedMasterId = "7390BA8A-CD54-46A0-980C-73781B2212BF";
layerId = "8F3F7451-A196-4C2B-BED3-98A7F9CDA433";
name = "Jan 29 20, 17:17";
paths = (
{
closed = 1;
nodes = (
"94 21 OFFCURVE",
"144 -6 OFFCURVE",
"299 -6 CURVE SMOOTH",
"456 -6 OFFCURVE",
"551 68 OFFCURVE",
"551 195 CURVE SMOOTH",
"551 321 OFFCURVE",
"484 379 OFFCURVE",
"400 395 CURVE SMOOTH",
"384 398 OFFCURVE",
"386 409 OFFCURVE",
"400 417 CURVE SMOOTH",
"429 433 OFFCURVE",
"480 473 OFFCURVE",
"480 539 CURVE SMOOTH",
"480 659 OFFCURVE",
"389 705 OFFCURVE",
"295 705 CURVE SMOOTH",
"195 705 LINE SMOOTH",
"143 705 OFFCURVE",
"99 676 OFFCURVE",
"99 623 CURVE SMOOTH",
"95 115 LINE SMOOTH"
);
},
{
closed = 1;
nodes = (
"375 646 OFFCURVE",
"414 609 OFFCURVE",
"414 543 CURVE SMOOTH",
"414 472 OFFCURVE",
"334 409 OFFCURVE",
"241 409 CURVE SMOOTH",
"164 409 LINE",
"165 600 LINE SMOOTH",
"165 634 OFFCURVE",
"175 646 OFFCURVE",
"207 646 CURVE SMOOTH",
"297 646 LINE SMOOTH"
);
},
{
closed = 1;
nodes = (
"331 357 LINE SMOOTH",
"368 357 OFFCURVE",
"401 308 OFFCURVE",
"336 190 CURVE SMOOTH",
"285 97 OFFCURVE",
"234 62 OFFCURVE",
"207 62 CURVE SMOOTH",
"181 62 OFFCURVE",
"163 70 OFFCURVE",
"163 130 CURVE SMOOTH",
"165 357 LINE"
);
},
{
closed = 1;
nodes = (
"408 115 OFFCURVE",
"392 131 OFFCURVE",
"392 152 CURVE SMOOTH",
"392 172 OFFCURVE",
"408 188 OFFCURVE",
"430 188 CURVE SMOOTH",
"451 188 OFFCURVE",
"467 172 OFFCURVE",
"467 152 CURVE SMOOTH",
"467 131 OFFCURVE",
"451 115 OFFCURVE",
"430 115 CURVE SMOOTH"
);
},
{
closed = 1;
nodes = (
"433 218 OFFCURVE",
"418 233 OFFCURVE",
"418 250 CURVE SMOOTH",
"418 267 OFFCURVE",
"433 282 OFFCURVE",
"450 282 CURVE SMOOTH",
"467 282 OFFCURVE",
"482 267 OFFCURVE",
"482 250 CURVE SMOOTH",
"482 233 OFFCURVE",
"467 218 OFFCURVE",
"450 218 CURVE SMOOTH"
);
},
{
closed = 1;
nodes = (
"345 46 OFFCURVE",
"330 61 OFFCURVE",
"330 78 CURVE SMOOTH",
"330 95 OFFCURVE",
"345 110 OFFCURVE",
"362 110 CURVE SMOOTH",
"379 110 OFFCURVE",
"394 95 OFFCURVE",
"394 78 CURVE SMOOTH",
"394 61 OFFCURVE",
"379 46 OFFCURVE",
"362 46 CURVE SMOOTH"
);
},
{
closed = 1;
nodes = (
"130 559 LINE",
"130 614 LINE",
"38 614 LINE SMOOTH",
"14 614 OFFCURVE",
"14 559 OFFCURVE",
"38 559 CURVE SMOOTH"
);
},
{
closed = 1;
nodes = (
"130 452 LINE",
"130 507 LINE",
"38 507 LINE SMOOTH",
"14 507 OFFCURVE",
"14 452 OFFCURVE",
"38 452 CURVE SMOOTH"
);
}
);
width = 580;
},
{
layerId = "7390BA8A-CD54-46A0-980C-73781B2212BF";
paths = (
{
closed = 1;
nodes = (
"64 21 OFFCURVE",
"114 -6 OFFCURVE",
"269 -6 CURVE SMOOTH",
"426 -6 OFFCURVE",
"521 61 OFFCURVE",
"521 175 CURVE SMOOTH",
"521 303 OFFCURVE",
"449 361 OFFCURVE",
"359 378 CURVE SMOOTH",
"343 381 OFFCURVE",
"345 392 OFFCURVE",
"359 400 CURVE SMOOTH",
"380 411 OFFCURVE",
"416 445 OFFCURVE",
"416 499 CURVE SMOOTH",
"416 606 OFFCURVE",
"337 655 OFFCURVE",
"255 655 CURVE SMOOTH",
"165 655 LINE SMOOTH",
"113 655 OFFCURVE",
"69 626 OFFCURVE",
"69 573 CURVE SMOOTH",
"65 115 LINE SMOOTH"
);
},
{
closed = 1;
nodes = (
"319 596 OFFCURVE",
"350 555 OFFCURVE",
"350 503 CURVE SMOOTH",
"350 443 OFFCURVE",
"286 389 OFFCURVE",
"211 389 CURVE SMOOTH",
"134 389 LINE",
"135 550 LINE SMOOTH",
"135 584 OFFCURVE",
"145 596 OFFCURVE",
"177 596 CURVE SMOOTH",
"257 596 LINE SMOOTH"
);
},
{
closed = 1;
nodes = (
"301 337 LINE SMOOTH",
"338 337 OFFCURVE",
"371 294 OFFCURVE",
"299 180 CURVE SMOOTH",
"247 97 OFFCURVE",
"203 62 OFFCURVE",
"177 62 CURVE SMOOTH",
"151 62 OFFCURVE",
"133 70 OFFCURVE",
"133 130 CURVE SMOOTH",
"135 337 LINE"
);
},
{
closed = 1;
nodes = (
"378 115 OFFCURVE",
"362 131 OFFCURVE",
"362 152 CURVE SMOOTH",
"362 172 OFFCURVE",
"378 188 OFFCURVE",
"400 188 CURVE SMOOTH",
"421 188 OFFCURVE",
"437 172 OFFCURVE",
"437 152 CURVE SMOOTH",
"437 131 OFFCURVE",
"421 115 OFFCURVE",
"400 115 CURVE SMOOTH"
);
},
{
closed = 1;
nodes = (
"400 215 OFFCURVE",
"385 230 OFFCURVE",
"385 247 CURVE SMOOTH",
"385 264 OFFCURVE",
"400 279 OFFCURVE",
"417 279 CURVE SMOOTH",
"434 279 OFFCURVE",
"449 264 OFFCURVE",
"449 247 CURVE SMOOTH",
"449 230 OFFCURVE",
"434 215 OFFCURVE",
"417 215 CURVE SMOOTH"
);
},
{
closed = 1;
nodes = (
"314 48 OFFCURVE",
"299 63 OFFCURVE",
"299 80 CURVE SMOOTH",
"299 97 OFFCURVE",
"314 112 OFFCURVE",
"331 112 CURVE SMOOTH",
"348 112 OFFCURVE",
"363 97 OFFCURVE",
"363 80 CURVE SMOOTH",
"363 63 OFFCURVE",
"348 48 OFFCURVE",
"331 48 CURVE SMOOTH"
);
},
{
closed = 1;
nodes = (
"233 756 OFFCURVE",
"178 756 OFFCURVE",
"178 731 CURVE SMOOTH",
"178 639 LINE",
"233 639 LINE",
"233 731 LINE SMOOTH"
);
},
{
closed = 1;
nodes = (
"497 425 OFFCURVE",
"507 479 OFFCURVE",
"483 483 CURVE SMOOTH",
"393 497 LINE",
"383 445 LINE",
"473 429 LINE SMOOTH"
);
},
{
closed = 1;
nodes = (
"498 592 OFFCURVE",
"474 641 OFFCURVE",
"451 630 CURVE SMOOTH",
"368 592 LINE",
"392 543 LINE",
"475 581 LINE SMOOTH"
);
},
{
closed = 1;
nodes = (
"398 713 OFFCURVE",
"350 738 OFFCURVE",
"338 716 CURVE SMOOTH",
"291 638 LINE",
"339 610 LINE",
"386 691 LINE SMOOTH"
);
}
);
width = 550;
},
{
associatedMasterId = "7390BA8A-CD54-46A0-980C-73781B2212BF";
layerId = "427B00EF-8039-4772-8C88-40A94FBBB731";
name = "Jan 29 20, 17:17";
paths = (
{
closed = 1;
nodes = (
"64 21 OFFCURVE",
"114 -6 OFFCURVE",
"269 -6 CURVE SMOOTH",
"426 -6 OFFCURVE",
"521 68 OFFCURVE",
"521 195 CURVE SMOOTH",
"521 317 OFFCURVE",
"449 371 OFFCURVE",
"359 388 CURVE SMOOTH",
"343 391 OFFCURVE",
"345 402 OFFCURVE",
"359 410 CURVE SMOOTH",
"380 421 OFFCURVE",
"416 451 OFFCURVE",
"416 499 CURVE SMOOTH",
"416 606 OFFCURVE",
"337 655 OFFCURVE",
"255 655 CURVE SMOOTH",
"165 655 LINE SMOOTH",
"113 655 OFFCURVE",
"69 626 OFFCURVE",
"69 573 CURVE SMOOTH",
"65 115 LINE SMOOTH"
);
},
{
closed = 1;
nodes = (
"319 596 OFFCURVE",
"350 555 OFFCURVE",
"350 503 CURVE SMOOTH",
"350 448 OFFCURVE",
"286 399 OFFCURVE",
"211 399 CURVE SMOOTH",
"134 399 LINE",
"135 550 LINE SMOOTH",
"135 584 OFFCURVE",
"145 596 OFFCURVE",
"177 596 CURVE SMOOTH",
"257 596 LINE SMOOTH"
);
},
{
closed = 1;
nodes = (
"301 347 LINE SMOOTH",
"338 347 OFFCURVE",
"368 303 OFFCURVE",
"306 190 CURVE SMOOTH",
"255 97 OFFCURVE",
"204 62 OFFCURVE",
"177 62 CURVE SMOOTH",
"151 62 OFFCURVE",
"133 70 OFFCURVE",
"133 130 CURVE SMOOTH",
"135 347 LINE"
);
},
{
closed = 1;
nodes = (
"378 115 OFFCURVE",
"362 131 OFFCURVE",
"362 152 CURVE SMOOTH",
"362 172 OFFCURVE",
"378 188 OFFCURVE",
"400 188 CURVE SMOOTH",
"421 188 OFFCURVE",
"437 172 OFFCURVE",
"437 152 CURVE SMOOTH",
"437 131 OFFCURVE",
"421 115 OFFCURVE",
"400 115 CURVE SMOOTH"
);
},
{
closed = 1;
nodes = (
"403 218 OFFCURVE",
"388 233 OFFCURVE",
"388 250 CURVE SMOOTH",
"388 267 OFFCURVE",
"403 282 OFFCURVE",
"420 282 CURVE SMOOTH",
"437 282 OFFCURVE",
"452 267 OFFCURVE",
"452 250 CURVE SMOOTH",
"452 233 OFFCURVE",
"437 218 OFFCURVE",
"420 218 CURVE SMOOTH"
);
},
{
closed = 1;
nodes = (
"315 46 OFFCURVE",
"300 61 OFFCURVE",
"300 78 CURVE SMOOTH",
"300 95 OFFCURVE",
"315 110 OFFCURVE",
"332 110 CURVE SMOOTH",
"349 110 OFFCURVE",
"364 95 OFFCURVE",
"364 78 CURVE SMOOTH",
"364 61 OFFCURVE",
"349 46 OFFCURVE",
"332 46 CURVE SMOOTH"
);
},
{
closed = 1;
nodes = (
"233 756 OFFCURVE",
"178 756 OFFCURVE",
"178 731 CURVE SMOOTH",
"178 639 LINE",
"233 639 LINE",
"233 731 LINE SMOOTH"
);
},
{
closed = 1;
nodes = (
"507 470 OFFCURVE",
"507 525 OFFCURVE",
"482 525 CURVE SMOOTH",
"390 525 LINE",
"390 470 LINE",
"482 470 LINE SMOOTH"
);
},
{
closed = 1;
nodes = (
"482 622 OFFCURVE",
"450 666 OFFCURVE",
"429 651 CURVE SMOOTH",
"354 599 LINE",
"386 554 LINE",
"461 607 LINE SMOOTH"
);
},
{
closed = 1;
nodes = (
"373 731 OFFCURVE",
"321 748 OFFCURVE",
"312 724 CURVE SMOOTH",
"280 639 LINE",
"332 620 LINE",
"364 707 LINE SMOOTH"
);
}
);
width = 550;
}
);
unicode = 0042;
},
{
glyphname = C;
lastChange = "2020-01-30 01:32:29 +0000";
layers = (
{
associatedMasterId = "B4EA0C51-6804-4423-9CCC-BF57B26265D1";
layerId = "36898E11-8F41-4082-AA01-FB084DB763C8";
name = "Jan 26 20, 18:59";
paths = (
{
closed = 1;
nodes = (
"611 196 OFFCURVE",
"602 221 OFFCURVE",
"578 212 CURVE SMOOTH",
"541 198 OFFCURVE",
"489 189 OFFCURVE",
"424 189 CURVE SMOOTH",
"303 189 OFFCURVE",
"159 257 OFFCURVE",
"159 439 CURVE SMOOTH",
"159 573 OFFCURVE",
"273 650 OFFCURVE",
"397 650 CURVE SMOOTH",
"538 650 OFFCURVE",
"539 523 OFFCURVE",
"420 387 CURVE SMOOTH",
"400 364 OFFCURVE",
"392 340 OFFCURVE",
"426 340 CURVE SMOOTH",
"458 340 OFFCURVE",
"471 353 OFFCURVE",
"484 369 CURVE SMOOTH",
"669 584 OFFCURVE",
"542 718 OFFCURVE",
"393 718 CURVE SMOOTH",
"202 718 OFFCURVE",
"30 588 OFFCURVE",
"30 353 CURVE SMOOTH",
"30 118 OFFCURVE",
"176 -12 OFFCURVE",
"338 -12 CURVE SMOOTH",
"455 -12 OFFCURVE",
"555 53 OFFCURVE",
"602 173 CURVE SMOOTH"
);
}
);
width = 600;
},
{
layerId = "B4EA0C51-6804-4423-9CCC-BF57B26265D1";
paths = (
{
closed = 1;
nodes = (
"103 487 OFFCURVE",
"223 523 OFFCURVE",
"324 523 CURVE SMOOTH",
"402 523 OFFCURVE",
"463 515 OFFCURVE",
"508 500 CURVE SMOOTH",
"532 492 OFFCURVE",
"537 515 OFFCURVE",
"532 539 CURVE SMOOTH",
"507 661 OFFCURVE",
"419 712 OFFCURVE",
"328 712 CURVE SMOOTH",
"177 712 OFFCURVE",
"40 593 OFFCURVE",
"40 350 CURVE SMOOTH",
"40 107 OFFCURVE",
"177 -12 OFFCURVE",
"328 -12 CURVE SMOOTH",
"423 -12 OFFCURVE",
"518 42 OFFCURVE",
"542 161 CURVE SMOOTH",
"547 185 OFFCURVE",
"542 208 OFFCURVE",
"518 200 CURVE SMOOTH",
"471 184 OFFCURVE",
"406 177 OFFCURVE",
"324 177 CURVE SMOOTH",
"223 177 OFFCURVE",
"103 213 OFFCURVE",
"103 350 CURVE SMOOTH"
);
},
{
closed = 1;
nodes = (
"322 78 OFFCURVE",
"322 78 OFFCURVE",
"322 78 CURVE SMOOTH",
"322 78 OFFCURVE",
"322 78 OFFCURVE",
"322 78 CURVE SMOOTH",
"322 78 OFFCURVE",
"322 78 OFFCURVE",
"322 78 CURVE SMOOTH",
"322 78 OFFCURVE",
"322 78 OFFCURVE",
"322 78 CURVE SMOOTH"
);
},
{
closed = 1;
nodes = (
"423 103 OFFCURVE",
"423 103 OFFCURVE",
"423 103 CURVE SMOOTH",
"423 103 OFFCURVE",
"423 103 OFFCURVE",
"423 103 CURVE SMOOTH",
"423 103 OFFCURVE",
"423 103 OFFCURVE",
"423 103 CURVE SMOOTH",
"423 103 OFFCURVE",
"423 103 OFFCURVE",
"423 103 CURVE SMOOTH"
);
},
{
closed = 1;
nodes = (
"222 103 OFFCURVE",
"222 103 OFFCURVE",
"222 103 CURVE SMOOTH",
"222 103 OFFCURVE",
"222 103 OFFCURVE",
"222 103 CURVE SMOOTH",
"222 103 OFFCURVE",
"222 103 OFFCURVE",
"222 103 CURVE SMOOTH",
"222 103 OFFCURVE",
"222 103 OFFCURVE",
"222 103 CURVE SMOOTH"
);
},
{
closed = 1;
nodes = (
"344 714 OFFCURVE",
"326 712 OFFCURVE",
"308 711 CURVE",
"308 711 LINE",
"326 712 OFFCURVE",
"344 714 OFFCURVE",
"363 709 CURVE",
"363 709 LINE"
);
},
{
closed = 1;
nodes = (
"448 677 OFFCURVE",
"427 691 OFFCURVE",
"409 697 CURVE",
"409 697 LINE",
"427 691 OFFCURVE",
"448 677 OFFCURVE",
"464 664 CURVE",
"464 664 LINE"
);
}
);
width = 579;
},
{
associatedMasterId = "B4EA0C51-6804-4423-9CCC-BF57B26265D1";
layerId = "E62D725E-C32C-4D26-8592-90C0687EAD2C";
name = "Jan 26 20, 18:59";
paths = (
{
closed = 1;
nodes = (
"611 196 OFFCURVE",
"602 221 OFFCURVE",
"578 212 CURVE SMOOTH",
"541 198 OFFCURVE",
"489 189 OFFCURVE",
"424 189 CURVE SMOOTH",
"303 189 OFFCURVE",
"159 257 OFFCURVE",
"159 439 CURVE SMOOTH",
"159 573 OFFCURVE",
"249 650 OFFCURVE",
"347 650 CURVE SMOOTH",
"417 650 OFFCURVE",
"466 614 OFFCURVE",
"502 555 CURVE SMOOTH",
"522 522 OFFCURVE",
"582 551 OFFCURVE",
"568 580 CURVE SMOOTH",
"523 674 OFFCURVE",
"446 718 OFFCURVE",
"343 718 CURVE SMOOTH",
"178 718 OFFCURVE",
"30 588 OFFCURVE",
"30 353 CURVE SMOOTH",
"30 118 OFFCURVE",
"176 -12 OFFCURVE",
"338 -12 CURVE SMOOTH",
"455 -12 OFFCURVE",
"555 53 OFFCURVE",
"602 173 CURVE SMOOTH"
);
}
);
width = 600;
},
{
associatedMasterId = "B4EA0C51-6804-4423-9CCC-BF57B26265D1";
layerId = "74870897-C6B7-4175-97E9-34E691BFC7FA";
name = "Jan 26 20, 19:02";
paths = (
{
closed = 1;
nodes = (
"540 196 OFFCURVE",
"532 221 OFFCURVE",
"508 212 CURVE SMOOTH",
"460 194 OFFCURVE",
"396 189 OFFCURVE",
"314 189 CURVE SMOOTH",
"211 189 OFFCURVE",
"89 222 OFFCURVE",
"89 349 CURVE SMOOTH",
"89 467 OFFCURVE",
"198 503 OFFCURVE",
"317 503 CURVE SMOOTH",
"398 503 OFFCURVE",
"454 492 OFFCURVE",
"486 484 CURVE SMOOTH",
"513 477 OFFCURVE",
"531 499 OFFCURVE",
"522 528 CURVE SMOOTH",
"486 641 OFFCURVE",
"418 718 OFFCURVE",
"303 718 CURVE SMOOTH",
"183 718 OFFCURVE",
"30 608 OFFCURVE",
"30 353 CURVE SMOOTH",
"30 108 OFFCURVE",
"167 -12 OFFCURVE",
"318 -12 CURVE SMOOTH",
"413 -12 OFFCURVE",
"493 55 OFFCURVE",
"532 173 CURVE SMOOTH"
);
}
);
width = 600;
},
{
associatedMasterId = "7390BA8A-CD54-46A0-980C-73781B2212BF";
layerId = "677B449E-1D2A-40F1-9613-26F6B17FEB58";
name = "Jan 26 20, 18:59";
paths = (
{
closed = 1;
nodes = (
"611 196 OFFCURVE",
"602 221 OFFCURVE",
"578 212 CURVE SMOOTH",
"541 198 OFFCURVE",
"489 189 OFFCURVE",
"424 189 CURVE SMOOTH",
"303 189 OFFCURVE",
"159 257 OFFCURVE",
"159 439 CURVE SMOOTH",
"159 573 OFFCURVE",
"273 650 OFFCURVE",
"397 650 CURVE SMOOTH",
"538 650 OFFCURVE",
"539 523 OFFCURVE",
"420 387 CURVE SMOOTH",
"400 364 OFFCURVE",
"392 340 OFFCURVE",
"426 340 CURVE SMOOTH",
"458 340 OFFCURVE",
"471 353 OFFCURVE",
"484 369 CURVE SMOOTH",
"669 584 OFFCURVE",
"542 718 OFFCURVE",
"393 718 CURVE SMOOTH",
"202 718 OFFCURVE",
"30 588 OFFCURVE",
"30 353 CURVE SMOOTH",
"30 118 OFFCURVE",
"176 -12 OFFCURVE",
"338 -12 CURVE SMOOTH",
"455 -12 OFFCURVE",
"555 53 OFFCURVE",
"602 173 CURVE SMOOTH"
);
}
);
width = 600;
},
{
layerId = "7390BA8A-CD54-46A0-980C-73781B2212BF";
paths = (
{
closed = 1;
nodes = (
"103 487 OFFCURVE",
"223 523 OFFCURVE",
"324 523 CURVE SMOOTH",
"402 523 OFFCURVE",
"463 515 OFFCURVE",
"508 500 CURVE SMOOTH",
"532 492 OFFCURVE",
"537 515 OFFCURVE",
"532 539 CURVE SMOOTH",
"507 661 OFFCURVE",
"419 712 OFFCURVE",
"328 712 CURVE SMOOTH",
"177 712 OFFCURVE",
"40 593 OFFCURVE",
"40 350 CURVE SMOOTH",
"40 107 OFFCURVE",
"177 -12 OFFCURVE",
"328 -12 CURVE SMOOTH",
"423 -12 OFFCURVE",
"518 42 OFFCURVE",
"542 161 CURVE SMOOTH",
"547 185 OFFCURVE",
"542 208 OFFCURVE",
"518 200 CURVE SMOOTH",
"471 184 OFFCURVE",
"406 177 OFFCURVE",
"324 177 CURVE SMOOTH",
"223 177 OFFCURVE",
"103 213 OFFCURVE",
"103 350 CURVE SMOOTH"
);
},
{
closed = 1;
nodes = (
"300 38 OFFCURVE",
"282 56 OFFCURVE",
"282 78 CURVE SMOOTH",
"282 100 OFFCURVE",
"300 118 OFFCURVE",
"322 118 CURVE SMOOTH",
"344 118 OFFCURVE",
"362 100 OFFCURVE",
"362 78 CURVE SMOOTH",
"362 56 OFFCURVE",
"344 38 OFFCURVE",
"322 38 CURVE SMOOTH"
);
},
{
closed = 1;
nodes = (
"405 71 OFFCURVE",
"391 85 OFFCURVE",
"391 103 CURVE SMOOTH",
"391 121 OFFCURVE",
"405 135 OFFCURVE",
"423 135 CURVE SMOOTH",
"441 135 OFFCURVE",
"455 121 OFFCURVE",
"455 103 CURVE SMOOTH",
"455 85 OFFCURVE",
"441 71 OFFCURVE",
"423 71 CURVE SMOOTH"
);
},
{
closed = 1;
nodes = (
"204 71 OFFCURVE",
"190 85 OFFCURVE",
"190 103 CURVE SMOOTH",
"190 121 OFFCURVE",
"204 135 OFFCURVE",
"222 135 CURVE SMOOTH",
"240 135 OFFCURVE",
"254 121 OFFCURVE",
"254 103 CURVE SMOOTH",
"254 85 OFFCURVE",
"240 71 OFFCURVE",
"222 71 CURVE SMOOTH"
);
},
{
closed = 1;
nodes = (
"363 595 OFFCURVE",
"308 595 OFFCURVE",
"308 620 CURVE SMOOTH",
"308 711 LINE",
"326 712 OFFCURVE",
"344 714 OFFCURVE",
"363 709 CURVE",
"363 620 LINE SMOOTH"
);
},
{
closed = 1;
nodes = (
"464 568 OFFCURVE",
"409 568 OFFCURVE",
"409 593 CURVE SMOOTH",
"409 697 LINE",
"427 691 OFFCURVE",
"448 677 OFFCURVE",
"464 664 CURVE",
"464 593 LINE SMOOTH"
);
}
);
width = 579;
},
{
associatedMasterId = "7390BA8A-CD54-46A0-980C-73781B2212BF";
layerId = "73ACD7D0-D951-418D-9C15-0679E91709C7";
name = "Jan 26 20, 18:59";
paths = (
{
closed = 1;
nodes = (
"611 196 OFFCURVE",
"602 221 OFFCURVE",
"578 212 CURVE SMOOTH",
"541 198 OFFCURVE",
"489 189 OFFCURVE",
"424 189 CURVE SMOOTH",
"303 189 OFFCURVE",
"159 257 OFFCURVE",
"159 439 CURVE SMOOTH",
"159 573 OFFCURVE",
"249 650 OFFCURVE",
"347 650 CURVE SMOOTH",
"417 650 OFFCURVE",
"466 614 OFFCURVE",
"502 555 CURVE SMOOTH",
"522 522 OFFCURVE",
"582 551 OFFCURVE",
"568 580 CURVE SMOOTH",
"523 674 OFFCURVE",
"446 718 OFFCURVE",
"343 718 CURVE SMOOTH",
"178 718 OFFCURVE",
"30 588 OFFCURVE",
"30 353 CURVE SMOOTH",
"30 118 OFFCURVE",
"176 -12 OFFCURVE",
"338 -12 CURVE SMOOTH",
"455 -12 OFFCURVE",
"555 53 OFFCURVE",
"602 173 CURVE SMOOTH"
);
}
);
width = 600;
},
{
associatedMasterId = "7390BA8A-CD54-46A0-980C-73781B2212BF";
layerId = "26920247-1C62-4B30-B9F8-5B77DB315FA4";
name = "Jan 26 20, 19:02";
paths = (
{
closed = 1;
nodes = (
"540 196 OFFCURVE",
"532 221 OFFCURVE",
"508 212 CURVE SMOOTH",
"460 194 OFFCURVE",
"396 189 OFFCURVE",
"314 189 CURVE SMOOTH",
"211 189 OFFCURVE",
"89 222 OFFCURVE",
"89 349 CURVE SMOOTH",
"89 467 OFFCURVE",
"198 503 OFFCURVE",
"317 503 CURVE SMOOTH",
"398 503 OFFCURVE",
"454 492 OFFCURVE",
"486 484 CURVE SMOOTH",
"513 477 OFFCURVE",
"531 499 OFFCURVE",
"522 528 CURVE SMOOTH",
"486 641 OFFCURVE",
"418 718 OFFCURVE",
"303 718 CURVE SMOOTH",
"183 718 OFFCURVE",
"30 608 OFFCURVE",
"30 353 CURVE SMOOTH",
"30 108 OFFCURVE",
"167 -12 OFFCURVE",
"318 -12 CURVE SMOOTH",
"413 -12 OFFCURVE",
"493 55 OFFCURVE",
"532 173 CURVE SMOOTH"
);
}
);
width = 600;
}
);
unicode = 0043;
},
{
glyphname = D;
lastChange = "2020-01-30 01:52:42 +0000";
layers = (
{
layerId = "B4EA0C51-6804-4423-9CCC-BF57B26265D1";
paths = (
{
closed = 1;
nodes = (
"64 17 OFFCURVE",
"99 0 OFFCURVE",
"213 0 CURVE SMOOTH",
"426 0 OFFCURVE",
"554 134 OFFCURVE",
"554 328 CURVE SMOOTH",
"554 594 OFFCURVE",
"393 705 OFFCURVE",
"243 705 CURVE SMOOTH",
"165 705 LINE SMOOTH",
"113 705 OFFCURVE",
"69 676 OFFCURVE",
"69 623 CURVE SMOOTH",
"65 75 LINE SMOOTH"
);
},
{
closed = 1;
nodes = (
"394 646 OFFCURVE",
"429 511 OFFCURVE",
"355 294 CURVE SMOOTH",
"288 100 OFFCURVE",
"218 62 OFFCURVE",
"161 62 CURVE SMOOTH",
"144 62 OFFCURVE",
"133 67 OFFCURVE",
"133 88 CURVE SMOOTH",
"135 600 LINE SMOOTH",
"135 634 OFFCURVE",
"145 646 OFFCURVE",
"177 646 CURVE SMOOTH",
"227 646 LINE SMOOTH"
);
},
{
closed = 1;
nodes = (
"439 233 OFFCURVE",
"439 233 OFFCURVE",
"439 233 CURVE SMOOTH",
"439 233 OFFCURVE",
"439 233 OFFCURVE",
"439 233 CURVE SMOOTH",
"439 233 OFFCURVE",
"439 233 OFFCURVE",
"439 233 CURVE SMOOTH",
"439 233 OFFCURVE",
"439 233 OFFCURVE",
"439 233 CURVE SMOOTH"
);
},
{
closed = 1;
nodes = (
"382 138 OFFCURVE",
"382 138 OFFCURVE",
"382 138 CURVE SMOOTH",
"382 138 OFFCURVE",
"382 138 OFFCURVE",
"382 138 CURVE SMOOTH",
"382 138 OFFCURVE",
"382 138 OFFCURVE",
"382 138 CURVE SMOOTH",
"382 138 OFFCURVE",
"382 138 OFFCURVE",
"382 138 CURVE SMOOTH"
);
},
{
closed = 1;
nodes = (
"462 345 OFFCURVE",
"462 345 OFFCURVE",
"462 345 CURVE SMOOTH",
"462 345 OFFCURVE",
"462 345 OFFCURVE",
"462 345 CURVE SMOOTH",
"462 345 OFFCURVE",
"462 345 OFFCURVE",
"462 345 CURVE SMOOTH",
"462 345 OFFCURVE",
"462 345 OFFCURVE",
"462 345 CURVE SMOOTH"
);
},
{
closed = 1;
nodes = (
"70 533 OFFCURVE",
"70 478 OFFCURVE",
"96 478 CURVE SMOOTH",
"109 478 LINE SMOOTH",
"132 478 OFFCURVE",
"132 533 OFFCURVE",
"109 533 CURVE SMOOTH",
"96 533 LINE SMOOTH"
);
},
{
closed = 1;
nodes = (
"70 426 OFFCURVE",
"70 371 OFFCURVE",
"96 371 CURVE SMOOTH",
"109 371 LINE SMOOTH",
"132 371 OFFCURVE",
"132 426 OFFCURVE",
"109 426 CURVE SMOOTH",
"96 426 LINE SMOOTH"
);
}
);
width = 594;
},
{
layerId = "7390BA8A-CD54-46A0-980C-73781B2212BF";
paths = (
{
closed = 1;
nodes = (
"64 17 OFFCURVE",
"99 0 OFFCURVE",
"213 0 CURVE SMOOTH",
"426 0 OFFCURVE",
"554 134 OFFCURVE",
"554 328 CURVE SMOOTH",
"554 594 OFFCURVE",
"393 705 OFFCURVE",
"243 705 CURVE SMOOTH",
"165 705 LINE SMOOTH",
"113 705 OFFCURVE",
"69 676 OFFCURVE",
"69 623 CURVE SMOOTH",
"65 75 LINE SMOOTH"
);
},
{
closed = 1;
nodes = (
"394 646 OFFCURVE",
"429 511 OFFCURVE",
"355 294 CURVE SMOOTH",
"288 100 OFFCURVE",
"218 62 OFFCURVE",
"161 62 CURVE SMOOTH",
"144 62 OFFCURVE",
"133 67 OFFCURVE",
"133 88 CURVE SMOOTH",
"135 600 LINE SMOOTH",
"135 634 OFFCURVE",
"145 646 OFFCURVE",
"177 646 CURVE SMOOTH",
"227 646 LINE SMOOTH"
);
},
{
closed = 1;
nodes = (
"416 190 OFFCURVE",
"396 210 OFFCURVE",
"396 233 CURVE SMOOTH",
"396 256 OFFCURVE",
"416 275 OFFCURVE",
"439 275 CURVE SMOOTH",
"462 275 OFFCURVE",
"481 256 OFFCURVE",
"481 233 CURVE SMOOTH",
"481 210 OFFCURVE",
"462 190 OFFCURVE",
"439 190 CURVE SMOOTH"
);
},
{
closed = 1;
nodes = (
"363 102 OFFCURVE",
"346 119 OFFCURVE",
"346 138 CURVE SMOOTH",
"346 158 OFFCURVE",
"363 173 OFFCURVE",
"382 173 CURVE SMOOTH",
"402 173 OFFCURVE",
"417 158 OFFCURVE",
"417 138 CURVE SMOOTH",
"417 119 OFFCURVE",
"402 102 OFFCURVE",
"382 102 CURVE SMOOTH"
);
},
{
closed = 1;
nodes = (
"443 309 OFFCURVE",
"426 326 OFFCURVE",
"426 345 CURVE SMOOTH",
"426 365 OFFCURVE",
"443 380 OFFCURVE",
"462 380 CURVE SMOOTH",
"482 380 OFFCURVE",
"497 365 OFFCURVE",
"497 345 CURVE SMOOTH",
"497 326 OFFCURVE",
"482 309 OFFCURVE",
"462 309 CURVE SMOOTH"
);
},
{
closed = 1;
nodes = (
"-10 533 OFFCURVE",
"-10 478 OFFCURVE",
"16 478 CURVE SMOOTH",
"209 478 LINE SMOOTH",
"232 478 OFFCURVE",
"232 533 OFFCURVE",
"209 533 CURVE SMOOTH",
"16 533 LINE SMOOTH"
);
},
{
closed = 1;
nodes = (
"-10 426 OFFCURVE",
"-10 371 OFFCURVE",
"16 371 CURVE SMOOTH",
"209 371 LINE SMOOTH",
"232 371 OFFCURVE",
"232 426 OFFCURVE",
"209 426 CURVE SMOOTH",
"16 426 LINE SMOOTH"
);
}
);
width = 594;
}
);
rightMetricsKey = "=O";
unicode = 0044;
},
{
glyphname = E;
lastChange = "2020-01-28 20:09:32 +0000";
layers = (
{
layerId = "B4EA0C51-6804-4423-9CCC-BF57B26265D1";
paths = (
{
closed = 1;
nodes = (
"65 27 OFFCURVE",
"97 -4 OFFCURVE",
"126 -4 CURVE SMOOTH",
"423 -5 LINE SMOOTH",
"452 -5 OFFCURVE",
"452 60 OFFCURVE",
"425 60 CURVE SMOOTH",
"171 60 LINE SMOOTH",
"146 60 OFFCURVE",
"133 69 OFFCURVE",
"133 97 CURVE SMOOTH",
"135 579 LINE SMOOTH",
"135 609 OFFCURVE",
"158 622 OFFCURVE",
"183 603 CURVE SMOOTH",
"355 475 LINE SMOOTH",
"405 438 OFFCURVE",
"434 500 OFFCURVE",
"435 616 CURVE SMOOTH",
"435 673 OFFCURVE",
"425 702 OFFCURVE",
"382 702 CURVE SMOOTH",
"126 702 LINE SMOOTH",
"93 702 OFFCURVE",
"68 671 OFFCURVE",
"68 638 CURVE SMOOTH",
"65 60 LINE SMOOTH"
);
},
{
closed = 1;
nodes = (
"92 146 LINE",
"110 143 LINE SMOOTH",
"139 138 OFFCURVE",
"138 192 OFFCURVE",
"111 192 CURVE SMOOTH",
"101 192 LINE SMOOTH",
"93 192 OFFCURVE",
"91 202 OFFCURVE",
"97 203 CURVE SMOOTH",
"351 265 LINE SMOOTH",
"378 272 OFFCURVE",
"369 333 OFFCURVE",
"342 326 CURVE SMOOTH",
"92 264 LINE"
);
},
{
closed = 1;
nodes = (
"209 584 LINE SMOOTH",
"209 584 OFFCURVE",
"261 545 OFFCURVE",
"261 545 CURVE SMOOTH",
"261 545 LINE",
"209 584 LINE"
);
},
{
closed = 1;
nodes = (
"298 518 LINE SMOOTH",
"298 518 OFFCURVE",
"350 479 OFFCURVE",
"350 479 CURVE SMOOTH",
"350 479 LINE",
"298 518 LINE"
);
}
);
width = 478;
},
{
layerId = "7390BA8A-CD54-46A0-980C-73781B2212BF";
paths = (
{
closed = 1;
nodes = (
"65 27 OFFCURVE",
"97 -4 OFFCURVE",
"126 -4 CURVE SMOOTH",
"423 -5 LINE SMOOTH",
"452 -5 OFFCURVE",
"452 60 OFFCURVE",
"425 60 CURVE SMOOTH",
"171 60 LINE SMOOTH",
"146 60 OFFCURVE",
"133 69 OFFCURVE",
"133 97 CURVE SMOOTH",
"135 579 LINE SMOOTH",
"135 609 OFFCURVE",
"158 622 OFFCURVE",
"183 603 CURVE SMOOTH",
"355 475 LINE SMOOTH",
"405 438 OFFCURVE",
"434 500 OFFCURVE",
"435 616 CURVE SMOOTH",
"435 673 OFFCURVE",
"425 702 OFFCURVE",
"382 702 CURVE SMOOTH",
"126 702 LINE SMOOTH",
"93 702 OFFCURVE",
"68 671 OFFCURVE",
"68 638 CURVE SMOOTH",
"65 60 LINE SMOOTH"
);
},
{
closed = 1;
nodes = (
"92 241 LINE",
"305 228 LINE SMOOTH",
"334 226 OFFCURVE",
"333 279 OFFCURVE",
"306 280 CURVE SMOOTH",
"149 286 LINE SMOOTH",
"132 287 OFFCURVE",
"132 304 OFFCURVE",
"145 306 CURVE SMOOTH",
"323 336 LINE SMOOTH",
"350 341 OFFCURVE",
"341 394 OFFCURVE",
"314 389 CURVE SMOOTH",
"92 346 LINE"
);
},
{
closed = 1;
nodes = (
"209 627 LINE SMOOTH",
"209 650 OFFCURVE",
"261 650 OFFCURVE",
"261 627 CURVE SMOOTH",
"261 545 LINE",
"209 584 LINE"
);
},
{
closed = 1;
nodes = (
"298 579 LINE SMOOTH",
"298 602 OFFCURVE",
"350 602 OFFCURVE",
"350 579 CURVE SMOOTH",
"350 479 LINE",
"298 518 LINE"
);
}
);
width = 478;
},
{
associatedMasterId = "7390BA8A-CD54-46A0-980C-73781B2212BF";
layerId = "29C6EE0C-B717-48F2-8923-347FBC83E67C";
name = "Jan 28 20, 11:05";
paths = (
{
closed = 1;
nodes = (
"65 27 OFFCURVE",
"97 -4 OFFCURVE",
"126 -4 CURVE SMOOTH",
"418 -5 LINE SMOOTH",
"447 -5 OFFCURVE",
"447 60 OFFCURVE",
"420 60 CURVE SMOOTH",
"171 60 LINE SMOOTH",
"146 60 OFFCURVE",
"133 69 OFFCURVE",
"133 97 CURVE SMOOTH",
"135 460 LINE SMOOTH",
"135 483 OFFCURVE",
"147 498 OFFCURVE",
"173 498 CURVE SMOOTH",
"382 498 LINE SMOOTH",
"418 498 OFFCURVE",
"438 513 OFFCURVE",
"449 594 CURVE SMOOTH",
"460 673 OFFCURVE",
"451 702 OFFCURVE",
"408 702 CURVE SMOOTH",
"126 702 LINE SMOOTH",
"93 702 OFFCURVE",
"68 671 OFFCURVE",
"68 638 CURVE SMOOTH",
"65 60 LINE SMOOTH"
);
},
{
closed = 1;
nodes = (
"104 223 LINE",
"345 221 LINE SMOOTH",
"374 221 OFFCURVE",
"373 274 OFFCURVE",
"346 274 CURVE SMOOTH",
"152 274 LINE SMOOTH",
"135 274 OFFCURVE",
"135 292 OFFCURVE",
"148 294 CURVE SMOOTH",
"356 324 LINE SMOOTH",
"383 328 OFFCURVE",
"374 381 OFFCURVE",
"347 377 CURVE SMOOTH",
"104 338 LINE"
);
},
{
closed = 1;
nodes = (
"221 593 LINE SMOOTH",
"221 616 OFFCURVE",
"276 616 OFFCURVE",
"276 593 CURVE SMOOTH",
"276 498 LINE",
"221 498 LINE"
);
},
{
closed = 1;
nodes = (
"317 593 LINE SMOOTH",
"317 616 OFFCURVE",
"372 616 OFFCURVE",
"372 593 CURVE SMOOTH",
"372 498 LINE",
"317 498 LINE"
);
}
);
width = 478;
},
{
associatedMasterId = "B4EA0C51-6804-4423-9CCC-BF57B26265D1";
layerId = "9FA8F693-AA19-4527-8A9A-841F8460A8D0";
name = "Jan 28 20, 12:07";
paths = (
{
closed = 1;
nodes = (
"354 264 LINE SMOOTH",
"383 271 OFFCURVE",
"368 331 OFFCURVE",
"341 324 CURVE SMOOTH",
"117 268 LINE",
"114 204 LINE"
);
},
{
closed = 1;
nodes = (
"65 27 OFFCURVE",
"97 -4 OFFCURVE",
"126 -4 CURVE SMOOTH",
"418 -5 LINE SMOOTH",
"447 -5 OFFCURVE",
"447 60 OFFCURVE",
"420 60 CURVE SMOOTH",
"171 60 LINE SMOOTH",
"146 60 OFFCURVE",
"133 69 OFFCURVE",
"133 97 CURVE SMOOTH",
"135 460 LINE SMOOTH",
"135 483 OFFCURVE",
"147 498 OFFCURVE",
"173 498 CURVE SMOOTH",
"382 497 LINE SMOOTH",
"415 497 OFFCURVE",
"436 516 OFFCURVE",
"449 594 CURVE SMOOTH",
"460 673 OFFCURVE",
"451 702 OFFCURVE",
"408 702 CURVE SMOOTH",
"126 702 LINE SMOOTH",
"93 702 OFFCURVE",
"68 671 OFFCURVE",
"68 638 CURVE SMOOTH",
"65 60 LINE SMOOTH"
);
}
);
visible = 1;
width = 478;
}
);
unicode = 0045;
},
{
glyphname = F;
lastChange = "2020-01-30 01:53:11 +0000";
layers = (
{
layerId = "B4EA0C51-6804-4423-9CCC-BF57B26265D1";
paths = (
{
closed = 1;
nodes = (
"311 233 LINE SMOOTH",
"365 232 OFFCURVE",
"396 335 OFFCURVE",
"396 397 CURVE SMOOTH",
"396 423 OFFCURVE",
"383 442 OFFCURVE",
"362 442 CURVE SMOOTH",
"94 442 LINE",
"99 236 LINE"
);
},
{
closed = 1;
nodes = (
"65 -26 OFFCURVE",
"133 -19 OFFCURVE",
"133 14 CURVE SMOOTH",
"135 593 LINE SMOOTH",
"135 616 OFFCURVE",
"147 631 OFFCURVE",
"173 631 CURVE SMOOTH",
"402 630 LINE SMOOTH",
"442 630 OFFCURVE",
"440 702 OFFCURVE",
"408 702 CURVE SMOOTH",
"126 702 LINE SMOOTH",
"93 702 OFFCURVE",
"68 671 OFFCURVE",
"68 638 CURVE SMOOTH",
"65 15 LINE SMOOTH"
);
},
{
closed = 1;
nodes = (
"231 523 OFFCURVE",
"231 523 OFFCURVE",
"231 523 CURVE SMOOTH",
"231 523 OFFCURVE",
"231 523 OFFCURVE",
"231 523 CURVE SMOOTH",
"231 523 OFFCURVE",
"231 523 OFFCURVE",
"231 523 CURVE SMOOTH",
"231 523 OFFCURVE",
"231 523 OFFCURVE",
"231 523 CURVE SMOOTH"
);
},
{
closed = 1;
nodes = (
"343 246 LINE",
"288 233 LINE",
"288 233 LINE SMOOTH",
"288 233 OFFCURVE",
"343 246 OFFCURVE",
"343 246 CURVE SMOOTH"
);
},
{
closed = 1;
nodes = (
"250 235 LINE",
"195 235 LINE",
"195 235 LINE SMOOTH",
"195 235 OFFCURVE",
"250 235 OFFCURVE",
"250 235 CURVE SMOOTH"
);
}
);
width = 459;
},
{
layerId = "7390BA8A-CD54-46A0-980C-73781B2212BF";
paths = (
{
closed = 1;
nodes = (
"353 233 LINE SMOOTH",
"379 233 OFFCURVE",
"393 251 OFFCURVE",
"393 404 CURVE SMOOTH",
"393 454 OFFCURVE",
"354 472 OFFCURVE",
"315 445 CURVE SMOOTH",
"94 292 LINE",
"99 233 LINE"
);
},
{
closed = 1;
nodes = (
"65 -26 OFFCURVE",
"133 -19 OFFCURVE",
"133 14 CURVE SMOOTH",
"135 593 LINE SMOOTH",
"135 616 OFFCURVE",
"147 631 OFFCURVE",
"173 631 CURVE SMOOTH",
"402 630 LINE SMOOTH",
"442 630 OFFCURVE",
"440 702 OFFCURVE",
"408 702 CURVE SMOOTH",
"126 702 LINE SMOOTH",
"93 702 OFFCURVE",
"68 671 OFFCURVE",
"68 638 CURVE SMOOTH",
"65 15 LINE SMOOTH"
);
},
{
closed = 1;
nodes = (
"259 466 OFFCURVE",
"280 487 OFFCURVE",
"280 514 CURVE SMOOTH",
"280 541 OFFCURVE",
"259 563 OFFCURVE",
"232 563 CURVE SMOOTH",
"205 563 OFFCURVE",
"183 541 OFFCURVE",
"183 514 CURVE SMOOTH",
"183 487 OFFCURVE",
"205 466 OFFCURVE",
"232 466 CURVE SMOOTH"
);
},
{
closed = 1;
nodes = (
"343 233 LINE",
"288 233 LINE",
"288 323 LINE SMOOTH",
"288 348 OFFCURVE",
"343 348 OFFCURVE",
"343 323 CURVE SMOOTH"
);
},
{
closed = 1;
nodes = (
"250 233 LINE",
"195 233 LINE",
"195 277 LINE SMOOTH",
"195 302 OFFCURVE",
"250 302 OFFCURVE",
"250 277 CURVE SMOOTH"
);
}
);
width = 459;
}
);
unicode = 0046;
},
{
glyphname = G;
lastChange = "2020-01-30 01:57:44 +0000";
layers = (
{
associatedMasterId = "B4EA0C51-6804-4423-9CCC-BF57B26265D1";
layerId = "1CD9BD77-6451-4407-882C-C742E119E001";
name = "Jan 27 20, 16:57";
paths = (
{
closed = 1;
nodes = (
"40 65 OFFCURVE",
"167 -12 OFFCURVE",
"283 -12 CURVE SMOOTH",
"371 -12 OFFCURVE",
"439 28 OFFCURVE",
"494 82 CURVE SMOOTH",
"516 104 OFFCURVE",
"528 96 OFFCURVE",
"528 74 CURVE SMOOTH",
"529 9 LINE SMOOTH",
"529 -21 OFFCURVE",
"587 -19 OFFCURVE",
"586 9 CURVE SMOOTH",
"573 317 LINE SMOOTH",
"572 333 OFFCURVE",
"562 344 OFFCURVE",
"546 345 CURVE SMOOTH",
"309 353 LINE SMOOTH",
"278 354 OFFCURVE",
"280 299 OFFCURVE",
"309 299 CURVE SMOOTH",
"502 298 LINE SMOOTH",
"527 298 OFFCURVE",
"531 258 OFFCURVE",
"506 257 CURVE SMOOTH",
"295 245 LINE SMOOTH",
"264 243 OFFCURVE",
"269 189 OFFCURVE",
"301 191 CURVE SMOOTH",
"506 206 LINE SMOOTH",
"522 207 OFFCURVE",
"521 185 OFFCURVE",
"491 153 CURVE SMOOTH",
"431 91 OFFCURVE",
"356 50 OFFCURVE",
"292 50 CURVE SMOOTH",
"215 50 OFFCURVE",
"132 97 OFFCURVE",
"132 227 CURVE SMOOTH",
"132 386 OFFCURVE",
"306 594 OFFCURVE",
"436 594 CURVE SMOOTH",
"471 594 OFFCURVE",
"503 581 OFFCURVE",
"525 557 CURVE SMOOTH",
"547 532 OFFCURVE",
"588 561 OFFCURVE",
"576 584 CURVE SMOOTH",
"543 643 OFFCURVE",
"486 712 OFFCURVE",
"353 712 CURVE SMOOTH",
"185 712 OFFCURVE",
"40 565 OFFCURVE",
"40 308 CURVE SMOOTH"
);
}
);
width = 621;
},
{
associatedMasterId = "B4EA0C51-6804-4423-9CCC-BF57B26265D1";
layerId = "8459E623-51AB-4EF4-832A-D58E345A5FCA";
name = "Jan 27 20, 17:04";
paths = (
{
closed = 1;
nodes = (
"40 79 OFFCURVE",
"192 -12 OFFCURVE",
"318 -12 CURVE SMOOTH",
"505 -12 OFFCURVE",
"583 111 OFFCURVE",
"571 315 CURVE SMOOTH",
"570 332 OFFCURVE",
"556 347 OFFCURVE",
"540 347 CURVE SMOOTH",
"309 353 LINE SMOOTH",
"278 354 OFFCURVE",
"280 299 OFFCURVE",
"309 299 CURVE SMOOTH",
"492 300 LINE SMOOTH",
"517 300 OFFCURVE",
"521 262 OFFCURVE",
"496 260 CURVE SMOOTH",
"308 248 LINE SMOOTH",
"277 246 OFFCURVE",
"282 191 OFFCURVE",
"314 194 CURVE SMOOTH",
"479 209 LINE SMOOTH",
"499 211 OFFCURVE",
"505 202 OFFCURVE",
"505 184 CURVE SMOOTH",
"505 139 OFFCURVE",
"447 50 OFFCURVE",
"318 50 CURVE SMOOTH",
"242 50 OFFCURVE",
"141 103 OFFCURVE",
"141 228 CURVE SMOOTH",
"141 387 OFFCURVE",
"295 594 OFFCURVE",
"404 594 CURVE SMOOTH",
"461 594 OFFCURVE",
"479 582 OFFCURVE",
"495 567 CURVE SMOOTH",
"510 553 OFFCURVE",
"558 571 OFFCURVE",
"545 597 CURVE SMOOTH",
"522 643 OFFCURVE",
"473 712 OFFCURVE",
"353 712 CURVE SMOOTH",
"173 712 OFFCURVE",
"40 576 OFFCURVE",
"40 339 CURVE SMOOTH"
);
}
);
width = 621;
},
{
associatedMasterId = "B4EA0C51-6804-4423-9CCC-BF57B26265D1";
layerId = "FFB19479-A5EC-4BCA-BE95-23848A64CECF";
name = "Jan 27 20, 17:09";
paths = (
{
closed = 1;
nodes = (
"508 568 OFFCURVE",
"532 600 OFFCURVE",
"523 616 CURVE SMOOTH",
"496 666 OFFCURVE",
"432 712 OFFCURVE",
"350 712 CURVE SMOOTH",
"178 712 OFFCURVE",
"40 576 OFFCURVE",
"40 339 CURVE SMOOTH",
"40 79 OFFCURVE",
"192 -12 OFFCURVE",
"318 -12 CURVE SMOOTH",
"503 -12 OFFCURVE",
"592 101 OFFCURVE",
"571 315 CURVE SMOOTH",
"569 332 OFFCURVE",
"556 348 OFFCURVE",
"540 348 CURVE SMOOTH",
"309 354 LINE SMOOTH",
"278 355 OFFCURVE",
"280 299 OFFCURVE",
"309 299 CURVE SMOOTH",
"489 300 LINE SMOOTH",
"514 300 OFFCURVE",
"518 262 OFFCURVE",
"493 260 CURVE SMOOTH",
"308 248 LINE SMOOTH",
"277 246 OFFCURVE",
"282 191 OFFCURVE",
"314 194 CURVE SMOOTH",
"479 209 LINE SMOOTH",
"499 211 OFFCURVE",
"505 202 OFFCURVE",
"505 184 CURVE SMOOTH",
"505 133 OFFCURVE",
"447 50 OFFCURVE",
"318 50 CURVE SMOOTH",
"242 50 OFFCURVE",
"141 103 OFFCURVE",
"141 228 CURVE SMOOTH",
"141 384 OFFCURVE",
"295 594 OFFCURVE",
"404 594 CURVE SMOOTH",
"449 594 OFFCURVE",
"471 586 OFFCURVE",
"492 576 CURVE SMOOTH"
);
}
);
width = 611;
},
{
layerId = "B4EA0C51-6804-4423-9CCC-BF57B26265D1";
paths = (
{
closed = 1;
nodes = (
"40 81 OFFCURVE",
"168 -12 OFFCURVE",
"285 -12 CURVE SMOOTH",
"380 -12 OFFCURVE",
"451 34 OFFCURVE",
"498 75 CURVE SMOOTH",
"513 88 OFFCURVE",
"522 76 OFFCURVE",
"522 59 CURVE SMOOTH",
"522 -20 LINE SMOOTH",
"522 -49 OFFCURVE",
"582 -49 OFFCURVE",
"582 -22 CURVE SMOOTH",
"582 306 LINE SMOOTH",
"582 322 OFFCURVE",
"571 333 OFFCURVE",
"555 334 CURVE SMOOTH",
"338 343 LINE SMOOTH",
"307 344 OFFCURVE",
"309 289 OFFCURVE",
"338 289 CURVE SMOOTH",
"491 290 LINE SMOOTH",
"517 290 OFFCURVE",
"524 270 OFFCURVE",
"524 253 CURVE SMOOTH",
"524 247 LINE",
"524 247 OFFCURVE",
"524 213 OFFCURVE",
"524 210 CURVE",
"524 205 LINE SMOOTH",
"524 185 OFFCURVE",
"518 170 OFFCURVE",
"507 157 CURVE SMOOTH",
"440 87 OFFCURVE",
"380 51 OFFCURVE",
"290 51 CURVE SMOOTH",
"214 51 OFFCURVE",
"129 102 OFFCURVE",
"128 194 CURVE SMOOTH",
"127 256 OFFCURVE",
"141 312 OFFCURVE",
"261 430 CURVE SMOOTH",
"362 529 OFFCURVE",
"459 581 OFFCURVE",
"535 591 CURVE SMOOTH",
"560 594 OFFCURVE",
"554 623 OFFCURVE",
"538 642 CURVE SMOOTH",
"520 664 OFFCURVE",
"470 706 OFFCURVE",
"372 706 CURVE SMOOTH",
"234 706 OFFCURVE",
"40 592 OFFCURVE",
"40 278 CURVE SMOOTH"
);
},
{
closed = 1;
nodes = (
"230 537 OFFCURVE",
"230 537 OFFCURVE",
"230 537 CURVE SMOOTH",
"230 537 OFFCURVE",
"230 537 OFFCURVE",
"230 537 CURVE SMOOTH",
"230 537 OFFCURVE",
"230 537 OFFCURVE",
"230 537 CURVE SMOOTH",
"230 537 OFFCURVE",
"230 537 OFFCURVE",
"230 537 CURVE SMOOTH"
);
},
{
closed = 1;
nodes = (
"318 596 OFFCURVE",
"318 596 OFFCURVE",
"318 596 CURVE SMOOTH",
"318 596 OFFCURVE",
"318 596 OFFCURVE",
"318 596 CURVE SMOOTH",
"318 596 OFFCURVE",
"318 596 OFFCURVE",
"318 596 CURVE SMOOTH",
"318 596 OFFCURVE",
"318 596 OFFCURVE",
"318 596 CURVE SMOOTH"
);
},
{
closed = 1;
nodes = (
"162 454 OFFCURVE",
"162 454 OFFCURVE",
"162 454 CURVE SMOOTH",
"162 454 OFFCURVE",
"162 454 OFFCURVE",
"162 454 CURVE SMOOTH",
"162 454 OFFCURVE",
"162 454 OFFCURVE",
"162 454 CURVE SMOOTH",
"162 454 OFFCURVE",
"162 454 OFFCURVE",
"162 454 CURVE SMOOTH"
);
}
);
width = 600;
},
{
associatedMasterId = "B4EA0C51-6804-4423-9CCC-BF57B26265D1";
layerId = "7E1D4DA1-E993-44C4-95A6-20BB5C5D64C6";
name = "Jan 27 20, 17:09";
paths = (
{
closed = 1;
nodes = (
"40 88 OFFCURVE",
"158 -12 OFFCURVE",
"288 -12 CURVE SMOOTH",
"384 -12 OFFCURVE",
"451 34 OFFCURVE",
"498 75 CURVE SMOOTH",
"513 88 OFFCURVE",
"522 76 OFFCURVE",
"522 59 CURVE SMOOTH",
"522 -20 LINE SMOOTH",
"522 -49 OFFCURVE",
"582 -49 OFFCURVE",
"582 -22 CURVE SMOOTH",
"582 304 LINE SMOOTH",
"582 320 OFFCURVE",
"571 331 OFFCURVE",
"555 332 CURVE SMOOTH",
"308 341 LINE SMOOTH",
"277 342 OFFCURVE",
"279 287 OFFCURVE",
"308 287 CURVE SMOOTH",
"511 288 LINE SMOOTH",
"536 288 OFFCURVE",
"537 253 OFFCURVE",
"512 252 CURVE SMOOTH",
"291 243 LINE SMOOTH",
"260 242 OFFCURVE",
"265 187 OFFCURVE",
"297 189 CURVE SMOOTH",
"512 201 LINE SMOOTH",
"528 202 OFFCURVE",
"536 189 OFFCURVE",
"521 173 CURVE SMOOTH",
"441 87 OFFCURVE",
"380 53 OFFCURVE",
"290 53 CURVE SMOOTH",
"215 53 OFFCURVE",
"128 95 OFFCURVE",
"127 220 CURVE SMOOTH",
"127 278 OFFCURVE",
"156 343 OFFCURVE",
"253 450 CURVE SMOOTH",
"353 560 OFFCURVE",
"430 625 OFFCURVE",
"469 652 CURVE SMOOTH",
"488 665 OFFCURVE",
"467 684 OFFCURVE",
"448 693 CURVE SMOOTH",
"425 704 OFFCURVE",
"386 712 OFFCURVE",
"343 712 CURVE SMOOTH",
"177 712 OFFCURVE",
"40 577 OFFCURVE",
"40 340 CURVE SMOOTH"
);
}
);
width = 600;
},
{
associatedMasterId = "B4EA0C51-6804-4423-9CCC-BF57B26265D1";
layerId = "C52843D8-3702-462B-9451-69A2E2E212E2";
name = "Jan 27 20, 17:14";
paths = (
{
closed = 1;
nodes = (
"40 82 OFFCURVE",
"154 -12 OFFCURVE",
"288 -12 CURVE SMOOTH",
"384 -12 OFFCURVE",
"451 34 OFFCURVE",
"498 75 CURVE SMOOTH",
"513 88 OFFCURVE",
"522 76 OFFCURVE",
"522 59 CURVE SMOOTH",
"522 -20 LINE SMOOTH",
"522 -49 OFFCURVE",
"582 -49 OFFCURVE",
"582 -22 CURVE SMOOTH",
"582 306 LINE SMOOTH",
"582 322 OFFCURVE",
"571 333 OFFCURVE",
"555 334 CURVE SMOOTH",
"338 343 LINE SMOOTH",
"307 344 OFFCURVE",
"309 289 OFFCURVE",
"338 289 CURVE SMOOTH",
"511 290 LINE SMOOTH",
"536 290 OFFCURVE",
"537 253 OFFCURVE",
"512 252 CURVE SMOOTH",
"321 243 LINE SMOOTH",
"290 242 OFFCURVE",
"295 187 OFFCURVE",
"327 189 CURVE SMOOTH",
"512 201 LINE SMOOTH",
"528 202 OFFCURVE",
"536 189 OFFCURVE",
"521 173 CURVE SMOOTH",
"441 87 OFFCURVE",
"380 53 OFFCURVE",
"290 53 CURVE SMOOTH",
"217 53 OFFCURVE",
"138 96 OFFCURVE",
"137 175 CURVE SMOOTH",
"136 235 OFFCURVE",
"154 300 OFFCURVE",
"287 430 CURVE SMOOTH",
"388 530 OFFCURVE",
"483 589 OFFCURVE",
"533 612 CURVE SMOOTH",
"558 623 OFFCURVE",
"554 646 OFFCURVE",
"536 663 CURVE SMOOTH",
"512 685 OFFCURVE",
"469 706 OFFCURVE",
"398 706 CURVE SMOOTH",
"260 706 OFFCURVE",
"40 593 OFFCURVE",
"40 282 CURVE SMOOTH"
);
}
);
width = 600;
},
{
associatedMasterId = "7390BA8A-CD54-46A0-980C-73781B2212BF";
layerId = "55128BDC-53C3-43EE-BF83-23E4F0F94348";
name = "Jan 27 20, 16:57";
paths = (
{
closed = 1;
nodes = (
"40 65 OFFCURVE",
"167 -12 OFFCURVE",
"283 -12 CURVE SMOOTH",
"371 -12 OFFCURVE",
"439 28 OFFCURVE",
"494 82 CURVE SMOOTH",
"516 104 OFFCURVE",
"528 96 OFFCURVE",
"528 74 CURVE SMOOTH",
"529 9 LINE SMOOTH",
"529 -21 OFFCURVE",
"587 -19 OFFCURVE",
"586 9 CURVE SMOOTH",
"573 317 LINE SMOOTH",
"572 333 OFFCURVE",
"562 344 OFFCURVE",
"546 345 CURVE SMOOTH",
"309 353 LINE SMOOTH",
"278 354 OFFCURVE",
"280 299 OFFCURVE",
"309 299 CURVE SMOOTH",
"502 298 LINE SMOOTH",
"527 298 OFFCURVE",
"531 258 OFFCURVE",
"506 257 CURVE SMOOTH",
"295 245 LINE SMOOTH",
"264 243 OFFCURVE",
"269 189 OFFCURVE",
"301 191 CURVE SMOOTH",
"506 206 LINE SMOOTH",
"522 207 OFFCURVE",
"521 185 OFFCURVE",
"491 153 CURVE SMOOTH",
"431 91 OFFCURVE",
"356 50 OFFCURVE",
"292 50 CURVE SMOOTH",
"215 50 OFFCURVE",
"132 97 OFFCURVE",
"132 227 CURVE SMOOTH",
"132 386 OFFCURVE",
"306 594 OFFCURVE",
"436 594 CURVE SMOOTH",
"471 594 OFFCURVE",
"503 581 OFFCURVE",
"525 557 CURVE SMOOTH",
"547 532 OFFCURVE",
"588 561 OFFCURVE",
"576 584 CURVE SMOOTH",
"543 643 OFFCURVE",
"486 712 OFFCURVE",
"353 712 CURVE SMOOTH",
"185 712 OFFCURVE",
"40 565 OFFCURVE",
"40 308 CURVE SMOOTH"
);
}
);
width = 621;
},
{
associatedMasterId = "7390BA8A-CD54-46A0-980C-73781B2212BF";
layerId = "C2FA652E-F9A5-4A4E-A89C-82915D485574";
name = "Jan 27 20, 17:04";
paths = (
{
closed = 1;
nodes = (
"40 79 OFFCURVE",
"192 -12 OFFCURVE",
"318 -12 CURVE SMOOTH",
"505 -12 OFFCURVE",
"583 111 OFFCURVE",
"571 315 CURVE SMOOTH",
"570 332 OFFCURVE",
"556 347 OFFCURVE",
"540 347 CURVE SMOOTH",
"309 353 LINE SMOOTH",
"278 354 OFFCURVE",
"280 299 OFFCURVE",
"309 299 CURVE SMOOTH",
"492 300 LINE SMOOTH",
"517 300 OFFCURVE",
"521 262 OFFCURVE",
"496 260 CURVE SMOOTH",
"308 248 LINE SMOOTH",
"277 246 OFFCURVE",
"282 191 OFFCURVE",
"314 194 CURVE SMOOTH",
"479 209 LINE SMOOTH",
"499 211 OFFCURVE",
"505 202 OFFCURVE",
"505 184 CURVE SMOOTH",
"505 139 OFFCURVE",
"447 50 OFFCURVE",
"318 50 CURVE SMOOTH",
"242 50 OFFCURVE",
"141 103 OFFCURVE",
"141 228 CURVE SMOOTH",
"141 387 OFFCURVE",
"295 594 OFFCURVE",
"404 594 CURVE SMOOTH",
"461 594 OFFCURVE",
"479 582 OFFCURVE",
"495 567 CURVE SMOOTH",
"510 553 OFFCURVE",
"558 571 OFFCURVE",
"545 597 CURVE SMOOTH",
"522 643 OFFCURVE",
"473 712 OFFCURVE",
"353 712 CURVE SMOOTH",
"173 712 OFFCURVE",
"40 576 OFFCURVE",
"40 339 CURVE SMOOTH"
);
}
);
width = 621;
},
{
associatedMasterId = "7390BA8A-CD54-46A0-980C-73781B2212BF";
layerId = "374906A8-2163-4545-96E6-6B352E51B653";
name = "Jan 27 20, 17:09";
paths = (
{
closed = 1;
nodes = (
"508 568 OFFCURVE",
"532 600 OFFCURVE",
"523 616 CURVE SMOOTH",
"496 666 OFFCURVE",
"432 712 OFFCURVE",
"350 712 CURVE SMOOTH",
"178 712 OFFCURVE",
"40 576 OFFCURVE",
"40 339 CURVE SMOOTH",
"40 79 OFFCURVE",
"192 -12 OFFCURVE",
"318 -12 CURVE SMOOTH",
"503 -12 OFFCURVE",
"592 101 OFFCURVE",
"571 315 CURVE SMOOTH",
"569 332 OFFCURVE",
"556 348 OFFCURVE",
"540 348 CURVE SMOOTH",
"309 354 LINE SMOOTH",
"278 355 OFFCURVE",
"280 299 OFFCURVE",
"309 299 CURVE SMOOTH",
"489 300 LINE SMOOTH",
"514 300 OFFCURVE",
"518 262 OFFCURVE",
"493 260 CURVE SMOOTH",
"308 248 LINE SMOOTH",
"277 246 OFFCURVE",
"282 191 OFFCURVE",
"314 194 CURVE SMOOTH",
"479 209 LINE SMOOTH",
"499 211 OFFCURVE",
"505 202 OFFCURVE",
"505 184 CURVE SMOOTH",
"505 133 OFFCURVE",
"447 50 OFFCURVE",
"318 50 CURVE SMOOTH",
"242 50 OFFCURVE",
"141 103 OFFCURVE",
"141 228 CURVE SMOOTH",
"141 384 OFFCURVE",
"295 594 OFFCURVE",
"404 594 CURVE SMOOTH",
"449 594 OFFCURVE",
"471 586 OFFCURVE",
"492 576 CURVE SMOOTH"
);
}
);
width = 611;
},
{
layerId = "7390BA8A-CD54-46A0-980C-73781B2212BF";
paths = (
{
closed = 1;
nodes = (
"40 81 OFFCURVE",
"168 -12 OFFCURVE",
"285 -12 CURVE SMOOTH",
"380 -12 OFFCURVE",
"451 34 OFFCURVE",
"498 75 CURVE SMOOTH",
"513 88 OFFCURVE",
"522 76 OFFCURVE",
"522 59 CURVE SMOOTH",
"522 -20 LINE SMOOTH",
"522 -49 OFFCURVE",
"582 -49 OFFCURVE",
"582 -22 CURVE SMOOTH",
"582 306 LINE SMOOTH",
"582 322 OFFCURVE",
"571 333 OFFCURVE",
"555 334 CURVE SMOOTH",
"338 343 LINE SMOOTH",
"307 344 OFFCURVE",
"309 289 OFFCURVE",
"338 289 CURVE SMOOTH",
"511 290 LINE SMOOTH",
"536 290 OFFCURVE",
"537 253 OFFCURVE",
"512 252 CURVE SMOOTH",
"321 243 LINE SMOOTH",
"290 242 OFFCURVE",
"295 187 OFFCURVE",
"327 189 CURVE SMOOTH",
"512 201 LINE SMOOTH",
"528 202 OFFCURVE",
"536 189 OFFCURVE",
"521 173 CURVE SMOOTH",
"440 87 OFFCURVE",
"380 51 OFFCURVE",
"290 51 CURVE SMOOTH",
"214 51 OFFCURVE",
"129 102 OFFCURVE",
"128 194 CURVE SMOOTH",
"127 256 OFFCURVE",
"141 312 OFFCURVE",
"261 430 CURVE SMOOTH",
"362 529 OFFCURVE",
"459 581 OFFCURVE",
"535 591 CURVE SMOOTH",
"560 594 OFFCURVE",
"554 623 OFFCURVE",
"538 642 CURVE SMOOTH",
"520 664 OFFCURVE",
"470 706 OFFCURVE",
"372 706 CURVE SMOOTH",
"234 706 OFFCURVE",
"40 592 OFFCURVE",
"40 278 CURVE SMOOTH"
);
},
{
closed = 1;
nodes = (
"207 495 OFFCURVE",
"188 514 OFFCURVE",
"188 537 CURVE SMOOTH",
"188 559 OFFCURVE",
"207 578 OFFCURVE",
"230 578 CURVE SMOOTH",
"252 578 OFFCURVE",
"271 559 OFFCURVE",
"271 537 CURVE SMOOTH",
"271 514 OFFCURVE",
"252 495 OFFCURVE",
"230 495 CURVE SMOOTH"
);
},
{
closed = 1;
nodes = (
"298 560 OFFCURVE",
"282 576 OFFCURVE",
"282 596 CURVE SMOOTH",
"282 614 OFFCURVE",
"298 631 OFFCURVE",
"318 631 CURVE SMOOTH",
"336 631 OFFCURVE",
"353 614 OFFCURVE",
"353 596 CURVE SMOOTH",
"353 576 OFFCURVE",
"336 560 OFFCURVE",
"318 560 CURVE SMOOTH"
);
},
{
closed = 1;
nodes = (
"142 418 OFFCURVE",
"126 434 OFFCURVE",
"126 454 CURVE SMOOTH",
"126 472 OFFCURVE",
"142 489 OFFCURVE",
"162 489 CURVE SMOOTH",
"180 489 OFFCURVE",
"197 472 OFFCURVE",
"197 454 CURVE SMOOTH",
"197 434 OFFCURVE",
"180 418 OFFCURVE",
"162 418 CURVE SMOOTH"
);
}
);
width = 600;
},
{
associatedMasterId = "7390BA8A-CD54-46A0-980C-73781B2212BF";
layerId = "2A35490F-AD82-40BE-94D3-302FDFBB24A0";
name = "Jan 27 20, 17:09";
paths = (
{
closed = 1;
nodes = (
"40 88 OFFCURVE",
"158 -12 OFFCURVE",
"288 -12 CURVE SMOOTH",
"384 -12 OFFCURVE",
"451 34 OFFCURVE",
"498 75 CURVE SMOOTH",
"513 88 OFFCURVE",
"522 76 OFFCURVE",
"522 59 CURVE SMOOTH",
"522 -20 LINE SMOOTH",
"522 -49 OFFCURVE",
"582 -49 OFFCURVE",
"582 -22 CURVE SMOOTH",
"582 304 LINE SMOOTH",
"582 320 OFFCURVE",
"571 331 OFFCURVE",
"555 332 CURVE SMOOTH",
"308 341 LINE SMOOTH",
"277 342 OFFCURVE",
"279 287 OFFCURVE",
"308 287 CURVE SMOOTH",
"511 288 LINE SMOOTH",
"536 288 OFFCURVE",
"537 253 OFFCURVE",
"512 252 CURVE SMOOTH",
"291 243 LINE SMOOTH",
"260 242 OFFCURVE",
"265 187 OFFCURVE",
"297 189 CURVE SMOOTH",
"512 201 LINE SMOOTH",
"528 202 OFFCURVE",
"536 189 OFFCURVE",
"521 173 CURVE SMOOTH",
"441 87 OFFCURVE",
"380 53 OFFCURVE",
"290 53 CURVE SMOOTH",
"215 53 OFFCURVE",
"128 95 OFFCURVE",
"127 220 CURVE SMOOTH",
"127 278 OFFCURVE",
"156 343 OFFCURVE",
"253 450 CURVE SMOOTH",
"353 560 OFFCURVE",
"430 625 OFFCURVE",
"469 652 CURVE SMOOTH",
"488 665 OFFCURVE",
"467 684 OFFCURVE",
"448 693 CURVE SMOOTH",
"425 704 OFFCURVE",
"386 712 OFFCURVE",
"343 712 CURVE SMOOTH",
"177 712 OFFCURVE",
"40 577 OFFCURVE",
"40 340 CURVE SMOOTH"
);
}
);
width = 600;
},
{
associatedMasterId = "7390BA8A-CD54-46A0-980C-73781B2212BF";
layerId = "8DBC8371-04ED-40BD-A302-4A0684756B1A";
name = "Jan 27 20, 17:14";
paths = (
{
closed = 1;
nodes = (
"40 82 OFFCURVE",
"154 -12 OFFCURVE",
"288 -12 CURVE SMOOTH",
"384 -12 OFFCURVE",
"451 34 OFFCURVE",
"498 75 CURVE SMOOTH",
"513 88 OFFCURVE",
"522 76 OFFCURVE",
"522 59 CURVE SMOOTH",
"522 -20 LINE SMOOTH",
"522 -49 OFFCURVE",
"582 -49 OFFCURVE",
"582 -22 CURVE SMOOTH",
"582 306 LINE SMOOTH",
"582 322 OFFCURVE",
"571 333 OFFCURVE",
"555 334 CURVE SMOOTH",
"338 343 LINE SMOOTH",
"307 344 OFFCURVE",
"309 289 OFFCURVE",
"338 289 CURVE SMOOTH",
"511 290 LINE SMOOTH",
"536 290 OFFCURVE",
"537 253 OFFCURVE",
"512 252 CURVE SMOOTH",
"321 243 LINE SMOOTH",
"290 242 OFFCURVE",
"295 187 OFFCURVE",
"327 189 CURVE SMOOTH",
"512 201 LINE SMOOTH",
"528 202 OFFCURVE",
"536 189 OFFCURVE",
"521 173 CURVE SMOOTH",
"441 87 OFFCURVE",
"380 53 OFFCURVE",
"290 53 CURVE SMOOTH",
"217 53 OFFCURVE",
"138 96 OFFCURVE",
"137 175 CURVE SMOOTH",
"136 235 OFFCURVE",
"154 300 OFFCURVE",
"287 430 CURVE SMOOTH",
"388 530 OFFCURVE",
"483 589 OFFCURVE",
"533 612 CURVE SMOOTH",
"558 623 OFFCURVE",
"554 646 OFFCURVE",
"536 663 CURVE SMOOTH",
"512 685 OFFCURVE",
"469 706 OFFCURVE",
"398 706 CURVE SMOOTH",
"260 706 OFFCURVE",
"40 593 OFFCURVE",
"40 282 CURVE SMOOTH"
);
}
);
width = 600;
},
{
associatedMasterId = "B4EA0C51-6804-4423-9CCC-BF57B26265D1";
layerId = "29873C1B-5C2D-4588-9C75-3D547BD22A76";
name = "Jan 29 20, 17:54";
paths = (
{
closed = 1;
nodes = (
"40 81 OFFCURVE",
"168 -12 OFFCURVE",
"285 -12 CURVE SMOOTH",
"380 -12 OFFCURVE",
"451 34 OFFCURVE",
"498 75 CURVE SMOOTH",
"513 88 OFFCURVE",
"522 76 OFFCURVE",
"522 59 CURVE SMOOTH",
"522 -20 LINE SMOOTH",
"522 -49 OFFCURVE",
"582 -49 OFFCURVE",
"582 -22 CURVE SMOOTH",
"582 306 LINE SMOOTH",
"582 322 OFFCURVE",
"571 333 OFFCURVE",
"555 334 CURVE SMOOTH",
"338 343 LINE SMOOTH",
"307 344 OFFCURVE",
"309 289 OFFCURVE",
"338 289 CURVE SMOOTH",
"511 290 LINE SMOOTH",
"536 290 OFFCURVE",
"537 253 OFFCURVE",
"512 252 CURVE SMOOTH",
"321 243 LINE SMOOTH",
"290 242 OFFCURVE",
"295 187 OFFCURVE",
"327 189 CURVE SMOOTH",
"512 201 LINE SMOOTH",
"528 202 OFFCURVE",
"536 189 OFFCURVE",
"521 173 CURVE SMOOTH",
"440 87 OFFCURVE",
"380 51 OFFCURVE",
"290 51 CURVE SMOOTH",
"214 51 OFFCURVE",
"129 102 OFFCURVE",
"128 194 CURVE SMOOTH",
"127 256 OFFCURVE",
"141 312 OFFCURVE",
"261 430 CURVE SMOOTH",
"362 529 OFFCURVE",
"459 581 OFFCURVE",
"535 591 CURVE SMOOTH",
"560 594 OFFCURVE",
"554 623 OFFCURVE",
"538 642 CURVE SMOOTH",
"520 664 OFFCURVE",
"470 706 OFFCURVE",
"372 706 CURVE SMOOTH",
"234 706 OFFCURVE",
"40 592 OFFCURVE",
"40 278 CURVE SMOOTH"
);
},
{
closed = 1;
nodes = (
"230 537 OFFCURVE",
"230 537 OFFCURVE",
"230 537 CURVE SMOOTH",
"230 537 OFFCURVE",
"230 537 OFFCURVE",
"230 537 CURVE SMOOTH",
"230 537 OFFCURVE",
"230 537 OFFCURVE",
"230 537 CURVE SMOOTH",
"230 537 OFFCURVE",
"230 537 OFFCURVE",
"230 537 CURVE SMOOTH"
);
},
{
closed = 1;
nodes = (
"318 596 OFFCURVE",
"318 596 OFFCURVE",
"318 596 CURVE SMOOTH",
"318 596 OFFCURVE",
"318 596 OFFCURVE",
"318 596 CURVE SMOOTH",
"318 596 OFFCURVE",
"318 596 OFFCURVE",
"318 596 CURVE SMOOTH",
"318 596 OFFCURVE",
"318 596 OFFCURVE",
"318 596 CURVE SMOOTH"
);
},
{
closed = 1;
nodes = (
"162 454 OFFCURVE",
"162 454 OFFCURVE",
"162 454 CURVE SMOOTH",
"162 454 OFFCURVE",
"162 454 OFFCURVE",
"162 454 CURVE SMOOTH",
"162 454 OFFCURVE",
"162 454 OFFCURVE",
"162 454 CURVE SMOOTH",
"162 454 OFFCURVE",
"162 454 OFFCURVE",
"162 454 CURVE SMOOTH"
);
}
);
width = 600;
}
);
leftMetricsKey = "=O";
unicode = 0047;
},
{
glyphname = H;
lastChange = "2020-01-30 18:32:25 +0000";
layers = (
{
layerId = "7390BA8A-CD54-46A0-980C-73781B2212BF";
width = 600;
},
{
associatedMasterId = "B4EA0C51-6804-4423-9CCC-BF57B26265D1";
layerId = "C6CC3207-1826-4F1E-84B8-B1C46D2C21BC";
name = "Jan 30 20, 10:20";
paths = (
{
closed = 1;
nodes = (
"65 -34 OFFCURVE",
"129 -37 OFFCURVE",
"143 19 CURVE SMOOTH",
"295 643 LINE SMOOTH",
"320 747 OFFCURVE",
"69 745 OFFCURVE",
"68 643 CURVE SMOOTH",
"65 20 LINE SMOOTH"
);
},
{
closed = 1;
nodes = (
"515 -30 OFFCURVE",
"587 -33 OFFCURVE",
"587 9 CURVE SMOOTH",
"588 682 LINE SMOOTH",
"588 726 OFFCURVE",
"518 724 OFFCURVE",
"518 682 CURVE SMOOTH",
"515 10 LINE SMOOTH"
);
},
{
closed = 1;
nodes = (
"184 358 LINE",
"548 378 LINE",
"548 441 LINE",
"184 421 LINE"
);
},
{
closed = 1;
nodes = (
"144 232 LINE",
"548 222 LINE",
"548 285 LINE",
"144 295 LINE"
);
}
);
width = 653;
},
{
associatedMasterId = "B4EA0C51-6804-4423-9CCC-BF57B26265D1";
layerId = "BEA18627-50E2-4E98-9E32-F0FF9C82DE95";
name = "Jan 30 20, 10:32";
paths = (
{
closed = 1;
nodes = (
"65 -24 OFFCURVE",
"132 -28 OFFCURVE",
"143 16 CURVE SMOOTH",
"305 643 LINE SMOOTH",
"319 697 OFFCURVE",
"274 720 OFFCURVE",
"206 720 CURVE SMOOTH",
"108 720 OFFCURVE",
"68 692 OFFCURVE",
"68 643 CURVE SMOOTH",
"65 17 LINE SMOOTH"
);
},
{
closed = 1;
nodes = (
"515 -31 OFFCURVE",
"587 -31 OFFCURVE",
"587 9 CURVE SMOOTH",
"588 682 LINE SMOOTH",
"588 723 OFFCURVE",
"518 721 OFFCURVE",
"518 682 CURVE SMOOTH",
"515 10 LINE SMOOTH"
);
},
{
closed = 1;
nodes = (
"184 358 LINE",
"548 378 LINE",
"548 441 LINE",
"184 421 LINE"
);
},
{
closed = 1;
nodes = (
"144 232 LINE",
"548 222 LINE",
"548 285 LINE",
"144 295 LINE"
);
}
);
width = 653;
},
{
layerId = "B4EA0C51-6804-4423-9CCC-BF57B26265D1";
paths = (
{
closed = 1;
nodes = (
"64 -50 OFFCURVE",
"274 -50 OFFCURVE",
"274 49 CURVE SMOOTH",
"275 643 LINE SMOOTH",
"275 747 OFFCURVE",
"69 745 OFFCURVE",
"68 643 CURVE SMOOTH",
"65 50 LINE SMOOTH"
);
},
{
closed = 1;
nodes = (
"515 -30 OFFCURVE",
"587 -33 OFFCURVE",
"587 9 CURVE SMOOTH",
"588 682 LINE SMOOTH",
"588 726 OFFCURVE",
"518 724 OFFCURVE",
"518 682 CURVE SMOOTH",
"515 10 LINE SMOOTH"
);
},
{
closed = 1;
nodes = (
"204 358 LINE",
"547 378 LINE",
"547 441 LINE",
"204 421 LINE"
);
},
{
closed = 1;
nodes = (
"204 232 LINE",
"547 222 LINE",
"547 285 LINE",
"204 295 LINE"
);
}
);
width = 653;
}
);
unicode = 0048;
},
{
glyphname = I;
lastChange = "2020-01-30 18:29:06 +0000";
layers = (
{
layerId = "7390BA8A-CD54-46A0-980C-73781B2212BF";
width = 600;
},
{
associatedMasterId = "B4EA0C51-6804-4423-9CCC-BF57B26265D1";
layerId = "0ED2FADB-DA20-49F2-A864-18E105ED5EBF";
name = "Jan 30 20, 08:53";
paths = (
{
closed = 1;
nodes = (
"280 39 LINE",
"281 664 LINE",
"211 664 LINE",
"208 40 LINE"
);
},
{
closed = 1;
nodes = (
"13 223 OFFCURVE",
"18 2 OFFCURVE",
"133 1 CURVE SMOOTH",
"379 0 LINE SMOOTH",
"479 -1 OFFCURVE",
"478 219 OFFCURVE",
"379 220 CURVE SMOOTH",
"134 222 LINE SMOOTH"
);
},
{
closed = 1;
nodes = (
"44 703 OFFCURVE",
"54 631 OFFCURVE",
"83 631 CURVE SMOOTH",
"401 630 LINE SMOOTH",
"445 630 OFFCURVE",
"443 700 OFFCURVE",
"401 700 CURVE SMOOTH",
"84 703 LINE SMOOTH"
);
}
);
width = 499;
},
{
associatedMasterId = "B4EA0C51-6804-4423-9CCC-BF57B26265D1";
layerId = "C1396FE8-B9E0-44BE-A3FB-F72A2C26798E";
name = "Jan 30 20, 08:57";
paths = (
{
closed = 1;
nodes = (
"281 39 LINE",
"282 664 LINE",
"212 664 LINE",
"209 40 LINE"
);
},
{
closed = 1;
nodes = (
"81 221 OFFCURVE",
"45 116 OFFCURVE",
"45 60 CURVE SMOOTH",
"45 12 OFFCURVE",
"76 1 OFFCURVE",
"97 1 CURVE SMOOTH",
"342 0 LINE SMOOTH",
"413 0 OFFCURVE",
"449 108 OFFCURVE",
"449 162 CURVE SMOOTH",
"449 206 OFFCURVE",
"420 220 OFFCURVE",
"398 220 CURVE SMOOTH",
"160 221 LINE SMOOTH"
);
},
{
closed = 1;
nodes = (
"41 703 OFFCURVE",
"43 631 OFFCURVE",
"80 631 CURVE SMOOTH",
"405 630 LINE SMOOTH",
"449 630 OFFCURVE",
"446 700 OFFCURVE",
"405 700 CURVE SMOOTH",
"81 703 LINE SMOOTH"
);
}
);
width = 494;
},
{
associatedMasterId = "B4EA0C51-6804-4423-9CCC-BF57B26265D1";
layerId = "07A267CD-7FB1-43A0-B0DC-91C5E015EB97";
name = "Jan 30 20, 08:57";
paths = (
{
closed = 1;
nodes = (
"281 39 LINE",
"282 664 LINE",
"212 664 LINE",
"209 40 LINE"
);
},
{
closed = 1;
nodes = (
"20 221 OFFCURVE",
"25 1 OFFCURVE",
"128 1 CURVE SMOOTH",
"342 0 LINE SMOOTH",
"413 0 OFFCURVE",
"449 108 OFFCURVE",
"449 162 CURVE SMOOTH",
"449 206 OFFCURVE",
"420 220 OFFCURVE",
"398 220 CURVE SMOOTH",
"117 221 LINE SMOOTH"
);
},
{
closed = 1;
nodes = (
"41 703 OFFCURVE",
"43 631 OFFCURVE",
"80 631 CURVE SMOOTH",
"405 630 LINE SMOOTH",
"449 630 OFFCURVE",
"446 700 OFFCURVE",
"405 700 CURVE SMOOTH",
"81 703 LINE SMOOTH"
);
}
);
width = 494;
},
{
associatedMasterId = "B4EA0C51-6804-4423-9CCC-BF57B26265D1";
layerId = "9DDBC37C-AFE0-4FCB-91F2-97BE183D789A";
name = "Jan 30 20, 10:13";
paths = (
{
closed = 1;
nodes = (
"281 39 LINE",
"282 664 LINE",
"212 664 LINE",
"209 40 LINE"
);
},
{
closed = 1;
nodes = (
"41 703 OFFCURVE",
"43 631 OFFCURVE",
"80 631 CURVE SMOOTH",
"405 630 LINE SMOOTH",
"449 630 OFFCURVE",
"446 700 OFFCURVE",
"405 700 CURVE SMOOTH",
"81 703 LINE SMOOTH"
);
},
{
closed = 1;
nodes = (
"366 0 LINE SMOOTH",
"475 0 OFFCURVE",
"469 220 OFFCURVE",
"366 220 CURVE SMOOTH",
"128 221 LINE SMOOTH",
"19 221 OFFCURVE",
"25 1 OFFCURVE",
"128 1 CURVE SMOOTH"
);
}
);
width = 494;
},
{
associatedMasterId = "B4EA0C51-6804-4423-9CCC-BF57B26265D1";
layerId = "8F16CBF5-AF32-4DC4-863B-5E43A31B0E42";
name = "Jan 30 20, 10:21";
paths = (
{
closed = 1;
nodes = (
"281 39 LINE",
"282 664 LINE",
"212 664 LINE",
"209 40 LINE"
);
},
{
closed = 1;
nodes = (
"41 703 OFFCURVE",
"43 631 OFFCURVE",
"80 631 CURVE SMOOTH",
"405 630 LINE SMOOTH",
"449 630 OFFCURVE",
"446 700 OFFCURVE",
"405 700 CURVE SMOOTH",
"81 703 LINE SMOOTH"
);
},
{
closed = 1;
nodes = (
"371 0 LINE SMOOTH",
"428 0 OFFCURVE",
"447 28 OFFCURVE",
"447 53 CURVE SMOOTH",
"447 80 OFFCURVE",
"439 99 OFFCURVE",
"416 109 CURVE SMOOTH",
"114 242 LINE SMOOTH",
"65 264 OFFCURVE",
"42 243 OFFCURVE",
"42 204 CURVE SMOOTH",
"42 73 OFFCURVE",
"79 1 OFFCURVE",
"397 0 CURVE SMOOTH"
);
}
);
width = 494;
},
{
associatedMasterId = "B4EA0C51-6804-4423-9CCC-BF57B26265D1";
layerId = "454C9D26-A0DA-41D0-A0D0-92F71DAE041D";
name = "Jan 30 20, 10:25";
paths = (
{
closed = 1;
nodes = (
"281 39 LINE",
"282 664 LINE",
"212 664 LINE",
"209 40 LINE"
);
},
{
closed = 1;
nodes = (
"41 703 OFFCURVE",
"43 631 OFFCURVE",
"80 631 CURVE SMOOTH",
"405 630 LINE SMOOTH",
"449 630 OFFCURVE",
"446 700 OFFCURVE",
"405 700 CURVE SMOOTH",
"81 703 LINE SMOOTH"
);
},
{
closed = 1;
nodes = (
"379 0 OFFCURVE",
"447 74 OFFCURVE",
"447 134 CURVE SMOOTH",
"447 169 OFFCURVE",
"434 192 OFFCURVE",
"405 192 CURVE SMOOTH",
"84 192 LINE SMOOTH",
"52 192 OFFCURVE",
"42 169 OFFCURVE",
"42 134 CURVE SMOOTH",
"42 75 OFFCURVE",
"79 1 OFFCURVE",
"245 0 CURVE SMOOTH"
);
}
);
width = 494;
},
{
layerId = "B4EA0C51-6804-4423-9CCC-BF57B26265D1";
paths = (
{
closed = 1;
nodes = (
"281 39 LINE",
"282 664 LINE",
"212 664 LINE",
"209 40 LINE"
);
},
{
closed = 1;
nodes = (
"41 703 OFFCURVE",
"43 631 OFFCURVE",
"80 631 CURVE SMOOTH",
"405 630 LINE SMOOTH",
"449 630 OFFCURVE",
"446 700 OFFCURVE",
"405 700 CURVE SMOOTH",
"81 703 LINE SMOOTH"
);
},
{
closed = 1;
nodes = (
"394 0 LINE SMOOTH",
"447 0 OFFCURVE",
"470 40 OFFCURVE",
"470 140 CURVE SMOOTH",
"470 230 OFFCURVE",
"442 253 OFFCURVE",
"394 230 CURVE SMOOTH",
"53 67 LINE SMOOTH",
"23 53 OFFCURVE",
"25 1 OFFCURVE",
"64 1 CURVE SMOOTH"
);
}
);
width = 494;
},
{
associatedMasterId = "B4EA0C51-6804-4423-9CCC-BF57B26265D1";
layerId = "B6B70110-12F6-4548-BFEB-64851474E702";
name = "Jan 30 20, 10:26";
paths = (
{
closed = 1;
nodes = (
"281 30 LINE",
"282 664 LINE",
"212 664 LINE",
"209 30 LINE"
);
},
{
closed = 1;
nodes = (
"366 0 LINE SMOOTH",
"475 0 OFFCURVE",
"469 219 OFFCURVE",
"366 220 CURVE SMOOTH",
"241 221 LINE",
"241 0 LINE"
);
},
{
closed = 1;
nodes = (
"41 69 OFFCURVE",
"43 0 OFFCURVE",
"80 0 CURVE SMOOTH",
"264 0 LINE",
"264 69 LINE",
"81 69 LINE SMOOTH"
);
},
{
closed = 1;
nodes = (
"131 700 LINE SMOOTH",
"22 700 OFFCURVE",
"28 481 OFFCURVE",
"131 480 CURVE SMOOTH",
"256 479 LINE",
"256 700 LINE"
);
},
{
closed = 1;
nodes = (
"456 631 OFFCURVE",
"454 700 OFFCURVE",
"417 700 CURVE SMOOTH",
"233 700 LINE",
"233 631 LINE",
"416 631 LINE SMOOTH"
);
}
);
width = 494;
},
{
associatedMasterId = "B4EA0C51-6804-4423-9CCC-BF57B26265D1";
layerId = "63604596-A8B5-4FFF-B11B-F276A21E3623";
name = "Jan 30 20, 10:27";
paths = (
{
closed = 1;
nodes = (
"281 39 LINE",
"282 664 LINE",
"212 664 LINE",
"209 40 LINE"
);
},
{
closed = 1;
nodes = (
"394 0 LINE SMOOTH",
"503 0 OFFCURVE",
"490 238 OFFCURVE",
"394 200 CURVE SMOOTH",
"46 64 LINE SMOOTH",
"23 55 OFFCURVE",
"19 1 OFFCURVE",
"52 1 CURVE SMOOTH"
);
},
{
closed = 1;
nodes = (
"94 700 LINE SMOOTH",
"-15 700 OFFCURVE",
"-2 462 OFFCURVE",
"94 500 CURVE SMOOTH",
"442 636 LINE SMOOTH",
"465 645 OFFCURVE",
"469 699 OFFCURVE",
"436 699 CURVE SMOOTH"
);
}
);
width = 494;
}
);
unicode = 0049;
},
{
glyphname = J;
lastChange = "2020-01-28 20:01:44 +0000";
layers = (
{
layerId = "B4EA0C51-6804-4423-9CCC-BF57B26265D1";
paths = (
{
closed = 1;
nodes = (
"399 -17 OFFCURVE",
"498 61 OFFCURVE",
"496 256 CURVE SMOOTH",
"495 373 OFFCURVE",
"494 540 OFFCURVE",
"492 581 CURVE SMOOTH",
"489 650 OFFCURVE",
"473 696 OFFCURVE",
"408 698 CURVE SMOOTH",
"111 707 LINE SMOOTH",
"69 708 OFFCURVE",
"68 644 OFFCURVE",
"107 644 CURVE SMOOTH",
"401 643 LINE SMOOTH",
"430 643 OFFCURVE",
"439 570 OFFCURVE",
"393 568 CURVE SMOOTH",
"126 558 LINE SMOOTH",
"88 557 OFFCURVE",
"84 498 OFFCURVE",
"129 500 CURVE SMOOTH",
"398 513 LINE SMOOTH",
"422 514 OFFCURVE",
"433 487 OFFCURVE",
"433 460 CURVE SMOOTH",
"432 321 LINE SMOOTH",
"431 248 OFFCURVE",
"377 194 OFFCURVE",
"241 194 CURVE SMOOTH",
"200 194 OFFCURVE",
"151 200 OFFCURVE",
"92 210 CURVE SMOOTH",
"68 213 OFFCURVE",
"56 197 OFFCURVE",
"56 162 CURVE SMOOTH",
"56 76 OFFCURVE",
"106 -17 OFFCURVE",
"246 -17 CURVE SMOOTH"
);
},
{
closed = 1;
nodes = (
"259 357 OFFCURVE",
"259 357 OFFCURVE",
"259 357 CURVE SMOOTH",
"259 357 OFFCURVE",
"259 357 OFFCURVE",
"259 357 CURVE SMOOTH",
"259 357 OFFCURVE",
"259 357 OFFCURVE",
"259 357 CURVE SMOOTH",
"259 357 OFFCURVE",
"259 357 OFFCURVE",
"259 357 CURVE SMOOTH"
);
},
{
closed = 1;
nodes = (
"457 573 LINE",
"468 573 LINE SMOOTH",
"491 573 OFFCURVE",
"491 628 OFFCURVE",
"468 628 CURVE SMOOTH",
"457 628 LINE"
);
},
{
closed = 1;
nodes = (
"457 466 LINE",
"468 466 LINE SMOOTH",
"491 466 OFFCURVE",
"491 521 OFFCURVE",
"468 521 CURVE SMOOTH",
"457 521 LINE"
);
},
{
closed = 1;
nodes = (
"160 107 OFFCURVE",
"160 107 OFFCURVE",
"160 107 CURVE SMOOTH",
"160 107 OFFCURVE",
"160 107 OFFCURVE",
"160 107 CURVE SMOOTH",
"160 107 OFFCURVE",
"160 107 OFFCURVE",
"160 107 CURVE SMOOTH",
"160 107 OFFCURVE",
"160 107 OFFCURVE",
"160 107 CURVE SMOOTH"
);
},
{
closed = 1;
nodes = (
"271 86 OFFCURVE",
"271 86 OFFCURVE",
"271 86 CURVE SMOOTH",
"271 86 OFFCURVE",
"271 86 OFFCURVE",
"271 86 CURVE SMOOTH",
"271 86 OFFCURVE",
"271 86 OFFCURVE",
"271 86 CURVE SMOOTH",
"271 86 OFFCURVE",
"271 86 OFFCURVE",
"271 86 CURVE SMOOTH"
);
},
{
closed = 1;
nodes = (
"379 122 OFFCURVE",
"379 122 OFFCURVE",
"379 122 CURVE SMOOTH",
"379 122 OFFCURVE",
"379 122 OFFCURVE",
"379 122 CURVE SMOOTH",
"379 122 OFFCURVE",
"379 122 OFFCURVE",
"379 122 CURVE SMOOTH",
"379 122 OFFCURVE",
"379 122 OFFCURVE",
"379 122 CURVE SMOOTH"
);
}
);
width = 554;
},
{
associatedMasterId = "B4EA0C51-6804-4423-9CCC-BF57B26265D1";
layerId = "8C3AD709-425E-411F-96FA-5E1A4439385D";
name = "Jan 26 20, 14:56";
paths = (
{
closed = 1;
nodes = (
"396 -17 OFFCURVE",
"495 61 OFFCURVE",
"493 256 CURVE SMOOTH",
"492 373 OFFCURVE",
"491 540 OFFCURVE",
"489 581 CURVE SMOOTH",
"486 650 OFFCURVE",
"470 696 OFFCURVE",
"405 698 CURVE SMOOTH",
"108 707 LINE SMOOTH",
"66 708 OFFCURVE",
"65 644 OFFCURVE",
"104 644 CURVE SMOOTH",
"398 643 LINE SMOOTH",
"427 643 OFFCURVE",
"436 570 OFFCURVE",
"390 568 CURVE SMOOTH",
"123 558 LINE SMOOTH",
"85 557 OFFCURVE",
"81 498 OFFCURVE",
"126 500 CURVE SMOOTH",
"395 513 LINE SMOOTH",
"419 514 OFFCURVE",
"429 487 OFFCURVE",
"430 460 CURVE SMOOTH",
"433 406 OFFCURVE",
"429 355 OFFCURVE",
"429 321 CURVE SMOOTH",
"429 226 OFFCURVE",
"361 194 OFFCURVE",
"253 194 CURVE SMOOTH",
"175 194 OFFCURVE",
"100 211 OFFCURVE",
"53 234 CURVE",
"24 79 OFFCURVE",
"103 -17 OFFCURVE",
"243 -17 CURVE SMOOTH"
);
}
);
width = 539;
},
{
layerId = "7390BA8A-CD54-46A0-980C-73781B2212BF";
paths = (
{
closed = 1;
nodes = (
"399 -17 OFFCURVE",
"498 61 OFFCURVE",
"496 256 CURVE SMOOTH",
"495 373 OFFCURVE",
"494 540 OFFCURVE",
"492 581 CURVE SMOOTH",
"489 650 OFFCURVE",
"473 696 OFFCURVE",
"408 698 CURVE SMOOTH",
"111 707 LINE SMOOTH",
"69 708 OFFCURVE",
"68 644 OFFCURVE",
"107 644 CURVE SMOOTH",
"401 643 LINE SMOOTH",
"430 643 OFFCURVE",
"439 570 OFFCURVE",
"393 568 CURVE SMOOTH",
"126 558 LINE SMOOTH",
"88 557 OFFCURVE",
"84 498 OFFCURVE",
"129 500 CURVE SMOOTH",
"398 513 LINE SMOOTH",
"422 514 OFFCURVE",
"433 487 OFFCURVE",
"433 460 CURVE SMOOTH",
"432 321 LINE SMOOTH",
"431 248 OFFCURVE",
"377 194 OFFCURVE",
"241 194 CURVE SMOOTH",
"200 194 OFFCURVE",
"151 200 OFFCURVE",
"92 210 CURVE SMOOTH",
"68 213 OFFCURVE",
"56 197 OFFCURVE",
"56 162 CURVE SMOOTH",
"56 76 OFFCURVE",
"106 -17 OFFCURVE",
"246 -17 CURVE SMOOTH"
);
},
{
closed = 1;
nodes = (
"226 299 OFFCURVE",
"201 324 OFFCURVE",
"201 356 CURVE SMOOTH",
"201 389 OFFCURVE",
"226 414 OFFCURVE",
"258 414 CURVE SMOOTH",
"291 414 OFFCURVE",
"316 389 OFFCURVE",
"316 356 CURVE SMOOTH",
"316 324 OFFCURVE",
"291 299 OFFCURVE",
"258 299 CURVE SMOOTH"
);
},
{
closed = 1;
nodes = (
"457 573 LINE",
"543 573 LINE SMOOTH",
"566 573 OFFCURVE",
"566 628 OFFCURVE",
"543 628 CURVE SMOOTH",
"457 628 LINE"
);
},
{
closed = 1;
nodes = (
"457 466 LINE",
"543 466 LINE SMOOTH",
"566 466 OFFCURVE",
"566 521 OFFCURVE",
"543 521 CURVE SMOOTH",
"457 521 LINE"
);
},
{
closed = 1;
nodes = (
"139 71 OFFCURVE",
"124 86 OFFCURVE",
"124 107 CURVE SMOOTH",
"124 127 OFFCURVE",
"139 142 OFFCURVE",
"160 142 CURVE SMOOTH",
"180 142 OFFCURVE",
"195 127 OFFCURVE",
"195 107 CURVE SMOOTH",
"195 86 OFFCURVE",
"180 71 OFFCURVE",
"160 71 CURVE SMOOTH"
);
},
{
closed = 1;
nodes = (
"249 47 OFFCURVE",
"232 64 OFFCURVE",
"232 86 CURVE SMOOTH",
"232 108 OFFCURVE",
"249 125 OFFCURVE",
"271 125 CURVE SMOOTH",
"293 125 OFFCURVE",
"310 108 OFFCURVE",
"310 86 CURVE SMOOTH",
"310 64 OFFCURVE",
"293 47 OFFCURVE",
"271 47 CURVE SMOOTH"
);
},
{
closed = 1;
nodes = (
"358 86 OFFCURVE",
"343 101 OFFCURVE",
"343 122 CURVE SMOOTH",
"343 142 OFFCURVE",
"358 157 OFFCURVE",
"379 157 CURVE SMOOTH",
"399 157 OFFCURVE",
"414 142 OFFCURVE",
"414 122 CURVE SMOOTH",
"414 101 OFFCURVE",
"399 86 OFFCURVE",
"379 86 CURVE SMOOTH"
);
}
);
width = 554;
},
{
associatedMasterId = "7390BA8A-CD54-46A0-980C-73781B2212BF";
layerId = "12059436-5588-4593-BBEA-6F6C6E8F3957";
name = "Jan 26 20, 14:56";
paths = (
{
closed = 1;
nodes = (
"396 -17 OFFCURVE",
"495 61 OFFCURVE",
"493 256 CURVE SMOOTH",
"492 373 OFFCURVE",
"491 540 OFFCURVE",
"489 581 CURVE SMOOTH",
"486 650 OFFCURVE",
"470 696 OFFCURVE",
"405 698 CURVE SMOOTH",
"108 707 LINE SMOOTH",
"66 708 OFFCURVE",
"65 644 OFFCURVE",
"104 644 CURVE SMOOTH",
"398 643 LINE SMOOTH",
"427 643 OFFCURVE",
"436 570 OFFCURVE",
"390 568 CURVE SMOOTH",
"123 558 LINE SMOOTH",
"85 557 OFFCURVE",
"81 498 OFFCURVE",
"126 500 CURVE SMOOTH",
"395 513 LINE SMOOTH",
"419 514 OFFCURVE",
"429 487 OFFCURVE",
"430 460 CURVE SMOOTH",
"433 406 OFFCURVE",
"429 355 OFFCURVE",
"429 321 CURVE SMOOTH",
"429 226 OFFCURVE",
"361 194 OFFCURVE",
"253 194 CURVE SMOOTH",
"175 194 OFFCURVE",
"100 211 OFFCURVE",
"53 234 CURVE",
"24 79 OFFCURVE",
"103 -17 OFFCURVE",
"243 -17 CURVE SMOOTH"
);
}
);
width = 539;
}
);
unicode = 004A;
},
{
glyphname = K;
lastChange = "2020-01-28 20:06:33 +0000";
layers = (
{
layerId = "B4EA0C51-6804-4423-9CCC-BF57B26265D1";
paths = (
{
closed = 1;
nodes = (
"114 199 LINE",
"463 3 LINE SMOOTH",
"529 -47 OFFCURVE",
"571 -36 OFFCURVE",
"571 37 CURVE SMOOTH",
"571 124 OFFCURVE",
"557 241 OFFCURVE",
"503 243 CURVE SMOOTH",
"128 254 LINE"
);
},
{
closed = 1;
nodes = (
"142 676 LINE SMOOTH",
"142 713 OFFCURVE",
"67 713 OFFCURVE",
"67 678 CURVE SMOOTH",
"65 23 LINE SMOOTH",
"65 -15 OFFCURVE",
"139 -18 OFFCURVE",
"139 20 CURVE SMOOTH"
);
},
{
closed = 1;
nodes = (
"181 205 LINE",
"509 646 LINE SMOOTH",
"541 682 OFFCURVE",
"480 736 OFFCURVE",
"449 698 CURVE SMOOTH",
"127 241 LINE"
);
},
{
closed = 1;
nodes = (
"479 244 LINE SMOOTH",
"479 244 OFFCURVE",
"424 245 OFFCURVE",
"424 245 CURVE SMOOTH",
"424 245 LINE",
"479 244 LINE"
);
},
{
closed = 1;
nodes = (
"374 247 LINE",
"374 247 OFFCURVE",
"319 248 OFFCURVE",
"319 248 CURVE",
"319 248 LINE",
"374 247 LINE"
);
},
{
closed = 1;
nodes = (
"435 371 OFFCURVE",
"435 371 OFFCURVE",
"435 371 CURVE SMOOTH",
"435 371 OFFCURVE",
"435 371 OFFCURVE",
"435 371 CURVE SMOOTH",
"435 371 OFFCURVE",
"435 371 OFFCURVE",
"435 371 CURVE SMOOTH",
"435 371 OFFCURVE",
"435 371 OFFCURVE",
"435 371 CURVE SMOOTH"
);
}
);
width = 589;
},
{
associatedMasterId = "B4EA0C51-6804-4423-9CCC-BF57B26265D1";
layerId = "26C05B68-22BE-469B-A80A-4E2A8B51FCCC";
name = "Jan 26 20, 14:07";
paths = (
{
closed = 1;
nodes = (
"325 332 LINE",
"547 -3 LINE SMOOTH",
"566 -32 OFFCURVE",
"625 7 OFFCURVE",
"605 37 CURVE SMOOTH",
"377 376 LINE"
);
},
{
closed = 1;
nodes = (
"158 676 LINE SMOOTH",
"158 713 OFFCURVE",
"83 713 OFFCURVE",
"83 678 CURVE SMOOTH",
"81 23 LINE SMOOTH",
"81 -15 OFFCURVE",
"155 -18 OFFCURVE",
"155 20 CURVE SMOOTH"
);
},
{
closed = 1;
nodes = (
"131 126 LINE",
"604 538 LINE SMOOTH",
"659 586 OFFCURVE",
"514 754 OFFCURVE",
"467 709 CURVE SMOOTH",
"297 547 LINE",
"301 368 LINE",
"148 229 LINE"
);
}
);
width = 667;
},
{
associatedMasterId = "B4EA0C51-6804-4423-9CCC-BF57B26265D1";
layerId = "D5C486D0-F9B2-47A8-A491-9397996C432C";
name = "Jan 26 20, 14:36";
paths = (
{
closed = 1;
nodes = (
"122 309 LINE",
"196 150 OFFCURVE",
"334 -10 OFFCURVE",
"445 -10 CURVE SMOOTH",
"545 -10 OFFCURVE",
"606 103 OFFCURVE",
"573 272 CURVE",
"455 233 OFFCURVE",
"273 259 OFFCURVE",
"136 344 CURVE"
);
},
{
closed = 1;
nodes = (
"150 676 LINE SMOOTH",
"150 713 OFFCURVE",
"75 713 OFFCURVE",
"75 678 CURVE SMOOTH",
"73 23 LINE SMOOTH",
"73 -15 OFFCURVE",
"147 -18 OFFCURVE",
"147 20 CURVE SMOOTH"
);
},
{
closed = 1;
nodes = (
"170 315 LINE",
"526 650 LINE SMOOTH",
"561 683 OFFCURVE",
"501 737 OFFCURVE",
"466 702 CURVE SMOOTH",
"116 351 LINE"
);
}
);
width = 639;
},
{
layerId = "7390BA8A-CD54-46A0-980C-73781B2212BF";
paths = (
{
closed = 1;
nodes = (
"114 199 LINE",
"463 3 LINE SMOOTH",
"529 -47 OFFCURVE",
"571 -36 OFFCURVE",
"571 37 CURVE SMOOTH",
"571 124 OFFCURVE",
"557 241 OFFCURVE",
"503 243 CURVE SMOOTH",
"128 254 LINE"
);
},
{
closed = 1;
nodes = (
"142 676 LINE SMOOTH",
"142 713 OFFCURVE",
"67 713 OFFCURVE",
"67 678 CURVE SMOOTH",
"65 23 LINE SMOOTH",
"65 -15 OFFCURVE",
"139 -18 OFFCURVE",
"139 20 CURVE SMOOTH"
);
},
{
closed = 1;
nodes = (
"181 205 LINE",
"509 646 LINE SMOOTH",
"541 682 OFFCURVE",
"480 736 OFFCURVE",
"449 698 CURVE SMOOTH",
"127 241 LINE"
);
},
{
closed = 1;
nodes = (
"479 129 LINE SMOOTH",
"479 106 OFFCURVE",
"424 106 OFFCURVE",
"424 129 CURVE SMOOTH",
"424 245 LINE",
"479 244 LINE"
);
},
{
closed = 1;
nodes = (
"374 172 LINE SMOOTH",
"374 149 OFFCURVE",
"319 149 OFFCURVE",
"319 172 CURVE SMOOTH",
"319 248 LINE",
"374 247 LINE"
);
},
{
closed = 1;
nodes = (
"465 315 OFFCURVE",
"490 340 OFFCURVE",
"490 371 CURVE SMOOTH",
"490 401 OFFCURVE",
"465 426 OFFCURVE",
"435 426 CURVE SMOOTH",
"404 426 OFFCURVE",
"379 401 OFFCURVE",
"379 371 CURVE SMOOTH",
"379 340 OFFCURVE",
"404 315 OFFCURVE",
"435 315 CURVE SMOOTH"
);
}
);
width = 589;
},
{
associatedMasterId = "7390BA8A-CD54-46A0-980C-73781B2212BF";
layerId = "3E313805-DA11-4DF2-ACE3-A523F13BBB7D";
name = "Jan 26 20, 14:07";
paths = (
{
closed = 1;
nodes = (
"325 332 LINE",
"547 -3 LINE SMOOTH",
"566 -32 OFFCURVE",
"625 7 OFFCURVE",
"605 37 CURVE SMOOTH",
"377 376 LINE"
);
},
{
closed = 1;
nodes = (
"158 676 LINE SMOOTH",
"158 713 OFFCURVE",
"83 713 OFFCURVE",
"83 678 CURVE SMOOTH",
"81 23 LINE SMOOTH",
"81 -15 OFFCURVE",
"155 -18 OFFCURVE",
"155 20 CURVE SMOOTH"
);
},
{
closed = 1;
nodes = (
"131 126 LINE",
"604 538 LINE SMOOTH",
"659 586 OFFCURVE",
"514 754 OFFCURVE",
"467 709 CURVE SMOOTH",
"297 547 LINE",
"301 368 LINE",
"148 229 LINE"
);
}
);
width = 667;
},
{
associatedMasterId = "7390BA8A-CD54-46A0-980C-73781B2212BF";
layerId = "CA54FD4B-1327-4362-8DA0-4F0CF1DD8B04";
name = "Jan 26 20, 14:36";
paths = (
{
closed = 1;
nodes = (
"122 309 LINE",
"196 150 OFFCURVE",
"334 -10 OFFCURVE",
"445 -10 CURVE SMOOTH",
"545 -10 OFFCURVE",
"606 103 OFFCURVE",
"573 272 CURVE",
"455 233 OFFCURVE",
"273 259 OFFCURVE",
"136 344 CURVE"
);
},
{
closed = 1;
nodes = (
"150 676 LINE SMOOTH",
"150 713 OFFCURVE",
"75 713 OFFCURVE",
"75 678 CURVE SMOOTH",
"73 23 LINE SMOOTH",
"73 -15 OFFCURVE",
"147 -18 OFFCURVE",
"147 20 CURVE SMOOTH"
);
},
{
closed = 1;
nodes = (
"170 315 LINE",
"526 650 LINE SMOOTH",
"561 683 OFFCURVE",
"501 737 OFFCURVE",
"466 702 CURVE SMOOTH",
"116 351 LINE"
);
}
);
width = 639;
}
);
unicode = 004B;
},
{
glyphname = L;
lastChange = "2020-01-30 18:30:11 +0000";
layers = (
{
layerId = "B4EA0C51-6804-4423-9CCC-BF57B26265D1";
paths = (
{
closed = 1;
nodes = (
"65 35 OFFCURVE",
"106 0 OFFCURVE",
"166 0 CURVE SMOOTH",
"351 0 LINE SMOOTH",
"460 0 OFFCURVE",
"454 219 OFFCURVE",
"351 220 CURVE SMOOTH",
"174 221 LINE SMOOTH",
"149 221 OFFCURVE",
"137 233 OFFCURVE",
"137 265 CURVE SMOOTH",
"138 681 LINE SMOOTH",
"138 724 OFFCURVE",
"68 724 OFFCURVE",
"68 681 CURVE SMOOTH",
"65 103 LINE SMOOTH"
);
}
);
width = 446;
},
{
layerId = "7390BA8A-CD54-46A0-980C-73781B2212BF";
width = 600;
},
{
associatedMasterId = "B4EA0C51-6804-4423-9CCC-BF57B26265D1";
layerId = "5B945662-44FD-4385-8D45-98C76751FCE2";
name = "Jan 30 20, 10:13";
paths = (
{
closed = 1;
nodes = (
"65 35 OFFCURVE",
"106 0 OFFCURVE",
"166 0 CURVE SMOOTH",
"351 0 LINE SMOOTH",
"460 0 OFFCURVE",
"432 308 OFFCURVE",
"351 240 CURVE SMOOTH",
"174 91 LINE SMOOTH",
"153 74 OFFCURVE",
"137 103 OFFCURVE",
"137 135 CURVE SMOOTH",
"138 681 LINE SMOOTH",
"138 724 OFFCURVE",
"68 724 OFFCURVE",
"68 681 CURVE SMOOTH",
"65 103 LINE SMOOTH"
);
}
);
width = 446;
},
{
associatedMasterId = "B4EA0C51-6804-4423-9CCC-BF57B26265D1";
layerId = "2C61278F-2A03-4D0C-86A0-359872B4E748";
name = "Jan 30 20, 10:29";
paths = (
{
closed = 1;
nodes = (
"65 35 OFFCURVE",
"106 0 OFFCURVE",
"166 0 CURVE SMOOTH",
"351 0 LINE SMOOTH",
"388 0 OFFCURVE",
"395 67 OFFCURVE",
"351 100 CURVE SMOOTH",
"174 231 LINE SMOOTH",
"153 247 OFFCURVE",
"137 271 OFFCURVE",
"137 303 CURVE SMOOTH",
"138 681 LINE SMOOTH",
"138 724 OFFCURVE",
"68 724 OFFCURVE",
"68 681 CURVE SMOOTH",
"65 103 LINE SMOOTH"
);
}
);
width = 446;
}
);
leftMetricsKey = "=N";
unicode = 004C;
},
{
glyphname = M;
lastChange = "2020-01-28 20:16:30 +0000";
layers = (
{
layerId = "B4EA0C51-6804-4423-9CCC-BF57B26265D1";
paths = (
{
closed = 1;
nodes = (
"29 -42 OFFCURVE",
"100 -34 OFFCURVE",
"104 2 CURVE SMOOTH",
"138 291 LINE SMOOTH",
"144 338 OFFCURVE",
"173 342 OFFCURVE",
"206 309 CURVE SMOOTH",
"323 189 LINE SMOOTH",
"360 152 OFFCURVE",
"411 154 OFFCURVE",
"448 188 CURVE SMOOTH",
"578 309 LINE SMOOTH",
"611 339 OFFCURVE",
"643 327 OFFCURVE",
"650 277 CURVE SMOOTH",
"688 12 LINE SMOOTH",
"694 -31 OFFCURVE",
"765 -16 OFFCURVE",
"759 23 CURVE SMOOTH",
"659 648 LINE SMOOTH",
"648 718 OFFCURVE",
"529 729 OFFCURVE",
"509 650 CURVE SMOOTH",
"411 264 LINE SMOOTH",
"399 218 OFFCURVE",
"374 220 OFFCURVE",
"363 263 CURVE SMOOTH",
"261 655 LINE SMOOTH",
"240 736 OFFCURVE",
"113 721 OFFCURVE",
"106 654 CURVE SMOOTH",
"35 14 LINE SMOOTH"
);
},
{
closed = 1;
nodes = (
"388 76 OFFCURVE",
"388 76 OFFCURVE",
"388 76 CURVE SMOOTH",
"388 76 OFFCURVE",
"388 76 OFFCURVE",
"388 76 CURVE SMOOTH",
"388 76 OFFCURVE",
"388 76 OFFCURVE",
"388 76 CURVE SMOOTH",
"388 76 OFFCURVE",
"388 76 OFFCURVE",
"388 76 CURVE SMOOTH"
);
},
{
closed = 1;
nodes = (
"562 468 OFFCURVE",
"562 468 OFFCURVE",
"562 468 CURVE SMOOTH",
"562 468 OFFCURVE",
"562 468 OFFCURVE",
"562 468 CURVE SMOOTH",
"562 468 OFFCURVE",
"562 468 OFFCURVE",
"562 468 CURVE SMOOTH",
"562 468 OFFCURVE",
"562 468 OFFCURVE",
"562 468 CURVE SMOOTH"
);
},
{
closed = 1;
nodes = (
"297 515 LINE",
"297 515 LINE SMOOTH",
"297 515 OFFCURVE",
"284 564 OFFCURVE",
"284 564 CURVE SMOOTH",
"284 564 LINE"
);
},
{
closed = 1;
nodes = (
"322 421 LINE",
"322 421 LINE SMOOTH",
"322 421 OFFCURVE",
"309 470 OFFCURVE",
"309 470 CURVE SMOOTH",
"309 470 LINE"
);
}
);
width = 794;
},
{
associatedMasterId = "7390BA8A-CD54-46A0-980C-73781B2212BF";
layerId = "35CC42AD-2E90-439A-A43C-E6E8B087409C";
name = "Jan 28 20, 11:21";
paths = (
{
closed = 1;
nodes = (
"29 -39 OFFCURVE",
"100 -31 OFFCURVE",
"104 2 CURVE SMOOTH",
"138 291 LINE SMOOTH",
"144 338 OFFCURVE",
"171 339 OFFCURVE",
"206 309 CURVE SMOOTH",
"323 209 LINE SMOOTH",
"363 175 OFFCURVE",
"408 177 OFFCURVE",
"448 208 CURVE SMOOTH",
"578 309 LINE SMOOTH",
"613 336 OFFCURVE",
"643 327 OFFCURVE",
"650 277 CURVE SMOOTH",
"688 12 LINE SMOOTH",
"694 -31 OFFCURVE",
"765 -16 OFFCURVE",
"759 23 CURVE SMOOTH",
"659 648 LINE SMOOTH",
"648 718 OFFCURVE",
"530 729 OFFCURVE",
"509 650 CURVE SMOOTH",
"411 284 LINE SMOOTH",
"399 238 OFFCURVE",
"375 240 OFFCURVE",
"363 283 CURVE SMOOTH",
"261 655 LINE SMOOTH",
"239 736 OFFCURVE",
"113 721 OFFCURVE",
"106 654 CURVE SMOOTH",
"35 14 LINE SMOOTH"
);
},
{
closed = 1;
nodes = (
"535 420 OFFCURVE",
"514 441 OFFCURVE",
"514 468 CURVE SMOOTH",
"514 494 OFFCURVE",
"535 515 OFFCURVE",
"562 515 CURVE SMOOTH",
"588 515 OFFCURVE",
"609 494 OFFCURVE",
"609 468 CURVE SMOOTH",
"609 441 OFFCURVE",
"588 420 OFFCURVE",
"562 420 CURVE SMOOTH"
);
},
{
closed = 1;
nodes = (
"299 515 LINE",
"206 493 LINE SMOOTH",
"183 488 OFFCURVE",
"173 539 OFFCURVE",
"196 544 CURVE SMOOTH",
"286 564 LINE"
);
},
{
closed = 1;
nodes = (
"325 422 LINE",
"232 400 LINE SMOOTH",
"209 395 OFFCURVE",
"199 446 OFFCURVE",
"222 451 CURVE SMOOTH",
"312 471 LINE"
);
},
{
closed = 1;
nodes = (
"183 43 OFFCURVE",
"183 -12 OFFCURVE",
"209 -12 CURVE SMOOTH",
"588 -12 LINE SMOOTH",
"611 -12 OFFCURVE",
"611 43 OFFCURVE",
"588 43 CURVE SMOOTH",
"209 43 LINE SMOOTH"
);
},
{
closed = 1;
nodes = (
"193 143 OFFCURVE",
"193 88 OFFCURVE",
"219 88 CURVE SMOOTH",
"575 88 LINE SMOOTH",
"598 88 OFFCURVE",
"598 143 OFFCURVE",
"575 143 CURVE SMOOTH",
"219 143 LINE SMOOTH"
);
}
);
width = 794;
},
{
associatedMasterId = "7390BA8A-CD54-46A0-980C-73781B2212BF";
layerId = "7C5BB43D-2183-48C9-9B59-19EBFB0303E7";
name = "Jan 28 20, 11:21";
paths = (
{
closed = 1;
nodes = (
"29 -42 OFFCURVE",
"100 -34 OFFCURVE",
"104 2 CURVE SMOOTH",
"138 291 LINE SMOOTH",
"144 338 OFFCURVE",
"171 339 OFFCURVE",
"206 309 CURVE SMOOTH",
"323 209 LINE SMOOTH",
"363 175 OFFCURVE",
"408 177 OFFCURVE",
"448 208 CURVE SMOOTH",
"578 309 LINE SMOOTH",
"613 336 OFFCURVE",
"643 327 OFFCURVE",
"650 277 CURVE SMOOTH",
"688 12 LINE SMOOTH",
"694 -31 OFFCURVE",
"765 -16 OFFCURVE",
"759 23 CURVE SMOOTH",
"659 648 LINE SMOOTH",
"648 718 OFFCURVE",
"530 729 OFFCURVE",
"509 650 CURVE SMOOTH",
"411 284 LINE SMOOTH",
"399 238 OFFCURVE",
"375 240 OFFCURVE",
"363 283 CURVE SMOOTH",
"261 655 LINE SMOOTH",
"239 736 OFFCURVE",
"113 721 OFFCURVE",
"106 654 CURVE SMOOTH",
"35 14 LINE SMOOTH"
);
},
{
closed = 1;
nodes = (
"418 22 OFFCURVE",
"442 46 OFFCURVE",
"442 76 CURVE SMOOTH",
"442 106 OFFCURVE",
"418 130 OFFCURVE",
"388 130 CURVE SMOOTH",
"358 130 OFFCURVE",
"334 106 OFFCURVE",
"334 76 CURVE SMOOTH",
"334 46 OFFCURVE",
"358 22 OFFCURVE",
"388 22 CURVE SMOOTH"
);
},
{
closed = 1;
nodes = (
"-34 125 OFFCURVE",
"-40 70 OFFCURVE",
"-15 67 CURVE SMOOTH",
"163 49 LINE SMOOTH",
"186 47 OFFCURVE",
"192 102 OFFCURVE",
"169 104 CURVE SMOOTH",
"-9 122 LINE SMOOTH"
);
},
{
closed = 1;
nodes = (
"-24 226 OFFCURVE",
"-30 171 OFFCURVE",
"-5 168 CURVE SMOOTH",
"173 150 LINE SMOOTH",
"196 148 OFFCURVE",
"202 203 OFFCURVE",
"179 205 CURVE SMOOTH",
"1 223 LINE SMOOTH"
);
},
{
closed = 1;
nodes = (
"535 420 OFFCURVE",
"514 441 OFFCURVE",
"514 468 CURVE SMOOTH",
"514 494 OFFCURVE",
"535 515 OFFCURVE",
"562 515 CURVE SMOOTH",
"588 515 OFFCURVE",
"609 494 OFFCURVE",
"609 468 CURVE SMOOTH",
"609 441 OFFCURVE",
"588 420 OFFCURVE",
"562 420 CURVE SMOOTH"
);
},
{
closed = 1;
nodes = (
"299 515 LINE",
"206 493 LINE SMOOTH",
"183 488 OFFCURVE",
"173 539 OFFCURVE",
"196 544 CURVE SMOOTH",
"286 564 LINE"
);
},
{
closed = 1;
nodes = (
"325 422 LINE",
"232 400 LINE SMOOTH",
"209 395 OFFCURVE",
"199 446 OFFCURVE",
"222 451 CURVE SMOOTH",
"312 471 LINE"
);
}
);
width = 794;
},
{
associatedMasterId = "7390BA8A-CD54-46A0-980C-73781B2212BF";
layerId = "E70AC47E-6F4C-416F-A096-417DBE8FFF2E";
name = "Jan 28 20, 11:25";
paths = (
{
closed = 1;
nodes = (
"29 -42 OFFCURVE",
"100 -34 OFFCURVE",
"104 2 CURVE SMOOTH",
"138 291 LINE SMOOTH",
"144 338 OFFCURVE",
"171 339 OFFCURVE",
"206 309 CURVE SMOOTH",
"323 209 LINE SMOOTH",
"363 175 OFFCURVE",
"408 177 OFFCURVE",
"448 208 CURVE SMOOTH",
"578 309 LINE SMOOTH",
"613 336 OFFCURVE",
"643 327 OFFCURVE",
"650 277 CURVE SMOOTH",
"688 12 LINE SMOOTH",
"694 -31 OFFCURVE",
"765 -16 OFFCURVE",
"759 23 CURVE SMOOTH",
"659 648 LINE SMOOTH",
"648 718 OFFCURVE",
"530 729 OFFCURVE",
"509 650 CURVE SMOOTH",
"411 284 LINE SMOOTH",
"399 238 OFFCURVE",
"375 240 OFFCURVE",
"363 283 CURVE SMOOTH",
"261 655 LINE SMOOTH",
"239 736 OFFCURVE",
"113 721 OFFCURVE",
"106 654 CURVE SMOOTH",
"35 14 LINE SMOOTH"
);
},
{
closed = 1;
nodes = (
"615 131 LINE SMOOTH",
"592 129 OFFCURVE",
"598 74 OFFCURVE",
"621 76 CURVE SMOOTH",
"799 94 LINE SMOOTH",
"824 97 OFFCURVE",
"818 152 OFFCURVE",
"793 149 CURVE SMOOTH"
);
},
{
closed = 1;
nodes = (
"605 232 LINE SMOOTH",
"582 230 OFFCURVE",
"588 175 OFFCURVE",
"611 177 CURVE SMOOTH",
"789 195 LINE SMOOTH",
"814 198 OFFCURVE",
"808 253 OFFCURVE",
"783 250 CURVE SMOOTH"
);
},
{
closed = 1;
nodes = (
"535 420 OFFCURVE",
"514 441 OFFCURVE",
"514 468 CURVE SMOOTH",
"514 494 OFFCURVE",
"535 515 OFFCURVE",
"562 515 CURVE SMOOTH",
"588 515 OFFCURVE",
"609 494 OFFCURVE",
"609 468 CURVE SMOOTH",
"609 441 OFFCURVE",
"588 420 OFFCURVE",
"562 420 CURVE SMOOTH"
);
},
{
closed = 1;
nodes = (
"299 515 LINE",
"206 493 LINE SMOOTH",
"183 488 OFFCURVE",
"173 539 OFFCURVE",
"196 544 CURVE SMOOTH",
"286 564 LINE"
);
},
{
closed = 1;
nodes = (
"325 422 LINE",
"232 400 LINE SMOOTH",
"209 395 OFFCURVE",
"199 446 OFFCURVE",
"222 451 CURVE SMOOTH",
"312 471 LINE"
);
}
);
width = 794;
},
{
associatedMasterId = "7390BA8A-CD54-46A0-980C-73781B2212BF";
layerId = "C6319428-0114-48DB-B43A-5603D2C390D7";
name = "Jan 28 20, 11:26";
paths = (
{
closed = 1;
nodes = (
"29 -42 OFFCURVE",
"100 -34 OFFCURVE",
"104 2 CURVE SMOOTH",
"138 291 LINE SMOOTH",
"144 338 OFFCURVE",
"171 339 OFFCURVE",
"206 309 CURVE SMOOTH",
"323 209 LINE SMOOTH",
"363 175 OFFCURVE",
"408 177 OFFCURVE",
"448 208 CURVE SMOOTH",
"578 309 LINE SMOOTH",
"613 336 OFFCURVE",
"643 327 OFFCURVE",
"650 277 CURVE SMOOTH",
"688 12 LINE SMOOTH",
"694 -31 OFFCURVE",
"765 -16 OFFCURVE",
"759 23 CURVE SMOOTH",
"659 648 LINE SMOOTH",
"648 718 OFFCURVE",
"530 729 OFFCURVE",
"509 650 CURVE SMOOTH",
"411 284 LINE SMOOTH",
"399 238 OFFCURVE",
"375 240 OFFCURVE",
"363 283 CURVE SMOOTH",
"261 655 LINE SMOOTH",
"239 736 OFFCURVE",
"113 721 OFFCURVE",
"106 654 CURVE SMOOTH",
"35 14 LINE SMOOTH"
);
},
{
closed = 1;
nodes = (
"535 420 OFFCURVE",
"514 441 OFFCURVE",
"514 468 CURVE SMOOTH",
"514 494 OFFCURVE",
"535 515 OFFCURVE",
"562 515 CURVE SMOOTH",
"588 515 OFFCURVE",
"609 494 OFFCURVE",
"609 468 CURVE SMOOTH",
"609 441 OFFCURVE",
"588 420 OFFCURVE",
"562 420 CURVE SMOOTH"
);
},
{
closed = 1;
nodes = (
"299 515 LINE",
"206 493 LINE SMOOTH",
"183 488 OFFCURVE",
"173 539 OFFCURVE",
"196 544 CURVE SMOOTH",
"286 564 LINE"
);
},
{
closed = 1;
nodes = (
"325 422 LINE",
"232 400 LINE SMOOTH",
"209 395 OFFCURVE",
"199 446 OFFCURVE",
"222 451 CURVE SMOOTH",
"312 471 LINE"
);
},
{
closed = 1;
nodes = (
"403 -7 OFFCURVE",
"452 43 OFFCURVE",
"452 60 CURVE SMOOTH",
"452 77 OFFCURVE",
"403 127 OFFCURVE",
"388 127 CURVE SMOOTH",
"372 127 OFFCURVE",
"323 77 OFFCURVE",
"323 60 CURVE SMOOTH",
"323 43 OFFCURVE",
"372 -7 OFFCURVE",
"388 -7 CURVE SMOOTH"
);
}
);
width = 794;
},
{
layerId = "7390BA8A-CD54-46A0-980C-73781B2212BF";
paths = (
{
closed = 1;
nodes = (
"29 -42 OFFCURVE",
"100 -34 OFFCURVE",
"104 2 CURVE SMOOTH",
"138 291 LINE SMOOTH",
"144 338 OFFCURVE",
"171 339 OFFCURVE",
"206 309 CURVE SMOOTH",
"323 209 LINE SMOOTH",
"363 175 OFFCURVE",
"408 177 OFFCURVE",
"448 208 CURVE SMOOTH",
"578 309 LINE SMOOTH",
"613 336 OFFCURVE",
"643 327 OFFCURVE",
"650 277 CURVE SMOOTH",
"688 12 LINE SMOOTH",
"694 -31 OFFCURVE",
"765 -16 OFFCURVE",
"759 23 CURVE SMOOTH",
"659 648 LINE SMOOTH",
"648 718 OFFCURVE",
"530 729 OFFCURVE",
"509 650 CURVE SMOOTH",
"411 284 LINE SMOOTH",
"399 238 OFFCURVE",
"375 240 OFFCURVE",
"363 283 CURVE SMOOTH",
"261 655 LINE SMOOTH",
"239 736 OFFCURVE",
"113 721 OFFCURVE",
"106 654 CURVE SMOOTH",
"35 14 LINE SMOOTH"
);
},
{
closed = 1;
nodes = (
"418 22 OFFCURVE",
"442 46 OFFCURVE",
"442 76 CURVE SMOOTH",
"442 106 OFFCURVE",
"418 130 OFFCURVE",
"388 130 CURVE SMOOTH",
"358 130 OFFCURVE",
"334 106 OFFCURVE",
"334 76 CURVE SMOOTH",
"334 46 OFFCURVE",
"358 22 OFFCURVE",
"388 22 CURVE SMOOTH"
);
},
{
closed = 1;
nodes = (
"535 420 OFFCURVE",
"514 441 OFFCURVE",
"514 468 CURVE SMOOTH",
"514 494 OFFCURVE",
"535 515 OFFCURVE",
"562 515 CURVE SMOOTH",
"588 515 OFFCURVE",
"609 494 OFFCURVE",
"609 468 CURVE SMOOTH",
"609 441 OFFCURVE",
"588 420 OFFCURVE",
"562 420 CURVE SMOOTH"
);
},
{
closed = 1;
nodes = (
"299 515 LINE",
"216 497 LINE SMOOTH",
"193 492 OFFCURVE",
"183 543 OFFCURVE",
"206 548 CURVE SMOOTH",
"286 564 LINE"
);
},
{
closed = 1;
nodes = (
"325 422 LINE",
"232 400 LINE SMOOTH",
"209 395 OFFCURVE",
"199 446 OFFCURVE",
"222 451 CURVE SMOOTH",
"312 471 LINE"
);
}
);
width = 794;
}
);
unicode = 004D;
},
{
glyphname = N;
lastChange = "2020-01-28 20:20:06 +0000";
layers = (
{
layerId = "B4EA0C51-6804-4423-9CCC-BF57B26265D1";
paths = (
{
closed = 1;
nodes = (
"65 -30 OFFCURVE",
"134 -20 OFFCURVE",
"134 9 CURVE SMOOTH",
"135 352 LINE SMOOTH",
"135 406 OFFCURVE",
"172 408 OFFCURVE",
"202 370 CURVE SMOOTH",
"476 27 LINE SMOOTH",
"513 -20 OFFCURVE",
"584 0 OFFCURVE",
"585 63 CURVE SMOOTH",
"590 679 LINE SMOOTH",
"590 715 OFFCURVE",
"514 718 OFFCURVE",
"514 680 CURVE SMOOTH",
"512 352 LINE SMOOTH",
"512 314 OFFCURVE",
"485 304 OFFCURVE",
"454 345 CURVE SMOOTH",
"208 672 LINE SMOOTH",
"160 736 OFFCURVE",
"68 727 OFFCURVE",
"68 654 CURVE SMOOTH",
"65 10 LINE SMOOTH"
);
},
{
closed = 1;
nodes = (
"525 640 OFFCURVE",
"525 585 OFFCURVE",
"551 585 CURVE SMOOTH",
"558 585 LINE SMOOTH",
"581 585 OFFCURVE",
"581 640 OFFCURVE",
"558 640 CURVE SMOOTH",
"551 640 LINE SMOOTH"
);
},
{
closed = 1;
nodes = (
"525 533 OFFCURVE",
"525 478 OFFCURVE",
"551 478 CURVE SMOOTH",
"558 478 LINE SMOOTH",
"581 478 OFFCURVE",
"581 533 OFFCURVE",
"558 533 CURVE SMOOTH",
"551 533 LINE SMOOTH"
);
},
{
closed = 1;
nodes = (
"255 109 OFFCURVE",
"255 109 OFFCURVE",
"255 109 CURVE SMOOTH",
"255 109 OFFCURVE",
"255 109 OFFCURVE",
"255 109 CURVE SMOOTH",
"255 109 OFFCURVE",
"255 109 OFFCURVE",
"255 109 CURVE SMOOTH",
"255 109 OFFCURVE",
"255 109 OFFCURVE",
"255 109 CURVE SMOOTH"
);
},
{
closed = 1;
nodes = (
"389 136 LINE SMOOTH",
"389 136 OFFCURVE",
"427 88 OFFCURVE",
"427 88 CURVE SMOOTH",
"427 88 LINE",
"389 136 LINE"
);
},
{
closed = 1;
nodes = (
"326 215 LINE SMOOTH",
"326 215 OFFCURVE",
"364 167 OFFCURVE",
"364 167 CURVE SMOOTH",
"364 167 LINE",
"326 215 LINE"
);
}
);
width = 655;
},
{
layerId = "7390BA8A-CD54-46A0-980C-73781B2212BF";
paths = (
{
closed = 1;
nodes = (
"65 -30 OFFCURVE",
"134 -20 OFFCURVE",
"134 9 CURVE SMOOTH",
"135 352 LINE SMOOTH",
"135 406 OFFCURVE",
"172 408 OFFCURVE",
"202 370 CURVE SMOOTH",
"476 27 LINE SMOOTH",
"513 -20 OFFCURVE",
"584 0 OFFCURVE",
"585 63 CURVE SMOOTH",
"590 679 LINE SMOOTH",
"590 715 OFFCURVE",
"514 718 OFFCURVE",
"514 680 CURVE SMOOTH",
"512 352 LINE SMOOTH",
"512 314 OFFCURVE",
"485 304 OFFCURVE",
"454 345 CURVE SMOOTH",
"208 672 LINE SMOOTH",
"160 736 OFFCURVE",
"68 727 OFFCURVE",
"68 654 CURVE SMOOTH",
"65 10 LINE SMOOTH"
);
},
{
closed = 1;
nodes = (
"425 640 OFFCURVE",
"425 585 OFFCURVE",
"451 585 CURVE SMOOTH",
"647 585 LINE SMOOTH",
"670 585 OFFCURVE",
"670 640 OFFCURVE",
"647 640 CURVE SMOOTH",
"451 640 LINE SMOOTH"
);
},
{
closed = 1;
nodes = (
"425 533 OFFCURVE",
"425 478 OFFCURVE",
"451 478 CURVE SMOOTH",
"647 478 LINE SMOOTH",
"670 478 OFFCURVE",
"670 533 OFFCURVE",
"647 533 CURVE SMOOTH",
"451 533 LINE SMOOTH"
);
},
{
closed = 1;
nodes = (
"283 56 OFFCURVE",
"307 80 OFFCURVE",
"307 109 CURVE SMOOTH",
"307 137 OFFCURVE",
"283 161 OFFCURVE",
"255 161 CURVE SMOOTH",
"226 161 OFFCURVE",
"202 137 OFFCURVE",
"202 109 CURVE SMOOTH",
"202 80 OFFCURVE",
"226 56 OFFCURVE",
"255 56 CURVE SMOOTH"
);
},
{
closed = 1;
nodes = (
"481 196 LINE SMOOTH",
"507 213 OFFCURVE",
"536 165 OFFCURVE",
"514 149 CURVE SMOOTH",
"427 88 LINE",
"389 136 LINE"
);
},
{
closed = 1;
nodes = (
"418 275 LINE SMOOTH",
"444 292 OFFCURVE",
"473 244 OFFCURVE",
"451 228 CURVE SMOOTH",
"364 167 LINE",
"326 215 LINE"
);
}
);
width = 655;
}
);
unicode = 004E;
},
{
glyphname = O;
lastChange = "2020-01-28 20:04:27 +0000";
layers = (
{
layerId = "B4EA0C51-6804-4423-9CCC-BF57B26265D1";
paths = (
{
closed = 1;
nodes = (
"510 -12 OFFCURVE",
"656 118 OFFCURVE",
"656 353 CURVE SMOOTH",
"656 588 OFFCURVE",
"510 718 OFFCURVE",
"348 718 CURVE SMOOTH",
"186 718 OFFCURVE",
"40 588 OFFCURVE",
"40 353 CURVE SMOOTH",
"40 118 OFFCURVE",
"186 -12 OFFCURVE",
"348 -12 CURVE SMOOTH"
);
},
{
closed = 1;
nodes = (
"539 561 OFFCURVE",
"595 491 OFFCURVE",
"595 379 CURVE SMOOTH",
"595 222 OFFCURVE",
"489 51 OFFCURVE",
"332 51 CURVE SMOOTH",
"226 51 OFFCURVE",
"161 119 OFFCURVE",
"161 228 CURVE SMOOTH",
"161 370 OFFCURVE",
"307 561 OFFCURVE",
"450 561 CURVE SMOOTH"
);
},
{
closed = 1;
nodes = (
"138 438 OFFCURVE",
"138 438 OFFCURVE",
"138 438 CURVE SMOOTH",
"138 438 OFFCURVE",
"138 438 OFFCURVE",
"138 438 CURVE SMOOTH",
"138 438 OFFCURVE",
"138 438 OFFCURVE",
"138 438 CURVE SMOOTH",
"138 438 OFFCURVE",
"138 438 OFFCURVE",
"138 438 CURVE SMOOTH"
);
},
{
closed = 1;
nodes = (
"204 544 OFFCURVE",
"204 544 OFFCURVE",
"204 544 CURVE SMOOTH",
"204 544 OFFCURVE",
"204 544 OFFCURVE",
"204 544 CURVE SMOOTH",
"204 544 OFFCURVE",
"204 544 OFFCURVE",
"204 544 CURVE SMOOTH",
"204 544 OFFCURVE",
"204 544 OFFCURVE",
"204 544 CURVE SMOOTH"
);
},
{
closed = 1;
nodes = (
"301 615 OFFCURVE",
"301 615 OFFCURVE",
"301 615 CURVE SMOOTH",
"301 615 OFFCURVE",
"301 615 OFFCURVE",
"301 615 CURVE SMOOTH",
"301 615 OFFCURVE",
"301 615 OFFCURVE",
"301 615 CURVE SMOOTH",
"301 615 OFFCURVE",
"301 615 OFFCURVE",
"301 615 CURVE SMOOTH"
);
},
{
closed = 1;
nodes = (
"448 38 LINE",
"444 44 LINE SMOOTH",
"429 66 OFFCURVE",
"384 40 OFFCURVE",
"397 17 CURVE SMOOTH",
"401 10 LINE"
);
},
{
closed = 1;
nodes = (
"567 133 LINE",
"558 140 LINE SMOOTH",
"538 155 OFFCURVE",
"505 117 OFFCURVE",
"523 99 CURVE SMOOTH",
"532 90 LINE"
);
},
{
closed = 1;
nodes = (
"629 283 LINE",
"618 285 LINE SMOOTH",
"592 290 OFFCURVE",
"579 243 OFFCURVE",
"604 233 CURVE SMOOTH",
"616 228 LINE"
);
},
{
closed = 1;
nodes = (
"631 443 LINE",
"620 441 LINE SMOOTH",
"594 436 OFFCURVE",
"598 388 OFFCURVE",
"624 388 CURVE SMOOTH",
"638 388 LINE"
);
}
);
width = 696;
},
{
layerId = "7390BA8A-CD54-46A0-980C-73781B2212BF";
paths = (
{
closed = 1;
nodes = (
"510 -12 OFFCURVE",
"656 118 OFFCURVE",
"656 353 CURVE SMOOTH",
"656 588 OFFCURVE",
"510 718 OFFCURVE",
"348 718 CURVE SMOOTH",
"186 718 OFFCURVE",
"40 588 OFFCURVE",
"40 353 CURVE SMOOTH",
"40 118 OFFCURVE",
"186 -12 OFFCURVE",
"348 -12 CURVE SMOOTH"
);
},
{
closed = 1;
nodes = (
"539 561 OFFCURVE",
"595 491 OFFCURVE",
"595 379 CURVE SMOOTH",
"595 222 OFFCURVE",
"489 51 OFFCURVE",
"332 51 CURVE SMOOTH",
"226 51 OFFCURVE",
"161 119 OFFCURVE",
"161 228 CURVE SMOOTH",
"161 370 OFFCURVE",
"307 561 OFFCURVE",
"450 561 CURVE SMOOTH"
);
},
{
closed = 1;
nodes = (
"117 402 OFFCURVE",
"102 417 OFFCURVE",
"102 438 CURVE SMOOTH",
"102 458 OFFCURVE",
"117 473 OFFCURVE",
"138 473 CURVE SMOOTH",
"158 473 OFFCURVE",
"173 458 OFFCURVE",
"173 438 CURVE SMOOTH",
"173 417 OFFCURVE",
"158 402 OFFCURVE",
"138 402 CURVE SMOOTH"
);
},
{
closed = 1;
nodes = (
"182 505 OFFCURVE",
"165 522 OFFCURVE",
"165 544 CURVE SMOOTH",
"165 566 OFFCURVE",
"182 583 OFFCURVE",
"204 583 CURVE SMOOTH",
"226 583 OFFCURVE",
"243 566 OFFCURVE",
"243 544 CURVE SMOOTH",
"243 522 OFFCURVE",
"226 505 OFFCURVE",
"204 505 CURVE SMOOTH"
);
},
{
closed = 1;
nodes = (
"280 579 OFFCURVE",
"265 594 OFFCURVE",
"265 615 CURVE SMOOTH",
"265 635 OFFCURVE",
"280 650 OFFCURVE",
"301 650 CURVE SMOOTH",
"321 650 OFFCURVE",
"336 635 OFFCURVE",
"336 615 CURVE SMOOTH",
"336 594 OFFCURVE",
"321 579 OFFCURVE",
"301 579 CURVE SMOOTH"
);
},
{
closed = 1;
nodes = (
"434 63 LINE",
"390 136 LINE SMOOTH",
"376 159 OFFCURVE",
"329 132 OFFCURVE",
"343 109 CURVE SMOOTH",
"387 35 LINE"
);
},
{
closed = 1;
nodes = (
"538 160 LINE",
"471 216 LINE SMOOTH",
"452 232 OFFCURVE",
"417 191 OFFCURVE",
"436 175 CURVE SMOOTH",
"503 117 LINE"
);
},
{
closed = 1;
nodes = (
"597 296 LINE",
"514 316 LINE SMOOTH",
"488 322 OFFCURVE",
"474 271 OFFCURVE",
"500 264 CURVE SMOOTH",
"584 241 LINE"
);
},
{
closed = 1;
nodes = (
"606 443 LINE",
"522 434 LINE SMOOTH",
"496 431 OFFCURVE",
"500 379 OFFCURVE",
"526 381 CURVE SMOOTH",
"613 388 LINE"
);
}
);
width = 696;
}
);
unicode = 004F;
},
{
glyphname = P;
lastChange = "2020-01-30 19:00:40 +0000";
layers = (
{
layerId = "7390BA8A-CD54-46A0-980C-73781B2212BF";
width = 600;
},
{
associatedMasterId = "B4EA0C51-6804-4423-9CCC-BF57B26265D1";
layerId = "1AFEE9AA-F063-4F15-A7AC-1D11EBF7DCE7";
name = "Jan 30 20, 10:51";
paths = (
{
closed = 1;
nodes = (
"326 646 OFFCURVE",
"346 621 OFFCURVE",
"346 569 CURVE SMOOTH",
"346 439 OFFCURVE",
"266 347 OFFCURVE",
"160 347 CURVE SMOOTH",
"134 347 LINE",
"135 600 LINE SMOOTH",
"135 634 OFFCURVE",
"145 646 OFFCURVE",
"177 646 CURVE SMOOTH",
"289 646 LINE SMOOTH"
);
},
{
closed = 1;
nodes = (
"133 -19 OFFCURVE",
"133 24 CURVE SMOOTH",
"135 292 LINE",
"224 292 LINE SMOOTH",
"396 292 OFFCURVE",
"488 356 OFFCURVE",
"488 501 CURVE SMOOTH",
"488 646 OFFCURVE",
"381 705 OFFCURVE",
"278 705 CURVE SMOOTH",
"165 705 LINE SMOOTH",
"113 705 OFFCURVE",
"69 676 OFFCURVE",
"69 623 CURVE SMOOTH",
"65 24 LINE SMOOTH",
"65 -18 OFFCURVE"
);
}
);
width = 511;
},
{
associatedMasterId = "B4EA0C51-6804-4423-9CCC-BF57B26265D1";
layerId = "BA2BCD61-FE47-4724-BDF8-3EDC544DF941";
name = "Jan 30 20, 10:58";
paths = (
{
closed = 1;
nodes = (
"210 639 OFFCURVE",
"358 438 OFFCURVE",
"358 360 CURVE SMOOTH",
"358 320 OFFCURVE",
"320 307 OFFCURVE",
"263 307 CURVE SMOOTH",
"213 307 OFFCURVE",
"174 312 OFFCURVE",
"134 327 CURVE",
"135 600 LINE SMOOTH",
"135 629 OFFCURVE",
"143 639 OFFCURVE",
"167 639 CURVE SMOOTH"
);
},
{
closed = 1;
nodes = (
"133 -19 OFFCURVE",
"133 24 CURVE SMOOTH",
"135 272 LINE",
"176 255 OFFCURVE",
"216 252 OFFCURVE",
"267 252 CURVE SMOOTH",
"400 252 OFFCURVE",
"488 325 OFFCURVE",
"488 484 CURVE SMOOTH",
"488 626 OFFCURVE",
"376 705 OFFCURVE",
"246 705 CURVE SMOOTH",
"112 705 OFFCURVE",
"69 676 OFFCURVE",
"69 623 CURVE SMOOTH",
"65 24 LINE SMOOTH",
"65 -18 OFFCURVE"
);
}
);
width = 511;
},
{
layerId = "B4EA0C51-6804-4423-9CCC-BF57B26265D1";
paths = (
{
closed = 1;
nodes = (
"214 639 OFFCURVE",
"378 442 OFFCURVE",
"378 366 CURVE SMOOTH",
"378 321 OFFCURVE",
"333 307 OFFCURVE",
"263 307 CURVE SMOOTH",
"134 307 LINE",
"135 600 LINE SMOOTH",
"135 629 OFFCURVE",
"143 639 OFFCURVE",
"167 639 CURVE SMOOTH"
);
},
{
closed = 1;
nodes = (
"133 -19 OFFCURVE",
"133 24 CURVE SMOOTH",
"135 252 LINE",
"287 252 LINE SMOOTH",
"407 252 OFFCURVE",
"488 301 OFFCURVE",
"488 462 CURVE SMOOTH",
"488 612 OFFCURVE",
"384 705 OFFCURVE",
"222 705 CURVE SMOOTH",
"107 705 OFFCURVE",
"69 676 OFFCURVE",
"69 623 CURVE SMOOTH",
"65 24 LINE SMOOTH",
"65 -18 OFFCURVE"
);
}
);
width = 511;
},
{
associatedMasterId = "B4EA0C51-6804-4423-9CCC-BF57B26265D1";
layerId = "0990A897-8CF4-4FBF-91D8-585CF78FEDA7";
name = "Jan 30 20, 10:58";
paths = (
{
closed = 1;
nodes = (
"214 639 OFFCURVE",
"378 438 OFFCURVE",
"378 360 CURVE SMOOTH",
"378 320 OFFCURVE",
"348 307 OFFCURVE",
"303 307 CURVE SMOOTH",
"134 307 LINE",
"135 600 LINE SMOOTH",
"135 629 OFFCURVE",
"143 639 OFFCURVE",
"167 639 CURVE SMOOTH"
);
},
{
closed = 1;
nodes = (
"133 -19 OFFCURVE",
"133 24 CURVE SMOOTH",
"135 252 LINE",
"327 252 LINE SMOOTH",
"424 252 OFFCURVE",
"488 295 OFFCURVE",
"488 500 CURVE SMOOTH",
"488 656 OFFCURVE",
"381 705 OFFCURVE",
"252 705 CURVE SMOOTH",
"113 705 OFFCURVE",
"69 676 OFFCURVE",
"69 623 CURVE SMOOTH",
"65 24 LINE SMOOTH",
"65 -18 OFFCURVE"
);
}
);
width = 511;
}
);
unicode = 0050;
},
{
glyphname = Q;
lastChange = "2020-01-30 19:17:11 +0000";
layers = (
{
layerId = "B4EA0C51-6804-4423-9CCC-BF57B26265D1";
paths = (
{
closed = 1;
nodes = (
"535 31 OFFCURVE",
"656 135 OFFCURVE",
"656 353 CURVE SMOOTH",
"656 588 OFFCURVE",
"510 718 OFFCURVE",
"348 718 CURVE SMOOTH",
"186 718 OFFCURVE",
"40 588 OFFCURVE",
"40 353 CURVE SMOOTH",
"40 168 OFFCURVE",
"133 66 OFFCURVE",
"270 -38 CURVE SMOOTH",
"450 -174 OFFCURVE",
"552 -212 OFFCURVE",
"589 -212 CURVE SMOOTH",
"644 -212 OFFCURVE",
"676 -148 OFFCURVE",
"676 -62 CURVE SMOOTH",
"676 -34 OFFCURVE",
"659 -15 OFFCURVE",
"630 -19 CURVE SMOOTH",
"426 -48 LINE SMOOTH",
"386 -54 OFFCURVE",
"371 6 OFFCURVE",
"418 13 CURVE SMOOTH"
);
},
{
closed = 1;
nodes = (
"419 556 OFFCURVE",
"530 370 OFFCURVE",
"530 231 CURVE SMOOTH",
"530 121 OFFCURVE",
"463 52 OFFCURVE",
"352 52 CURVE SMOOTH",
"207 52 OFFCURVE",
"108 182 OFFCURVE",
"108 374 CURVE SMOOTH",
"108 486 OFFCURVE",
"164 556 OFFCURVE",
"253 556 CURVE SMOOTH"
);
}
);
width = 696;
},
{
layerId = "7390BA8A-CD54-46A0-980C-73781B2212BF";
width = 600;
}
);
unicode = 0051;
},
{
glyphname = R;
lastChange = "2020-01-28 20:14:30 +0000";
layers = (
{
associatedMasterId = "B4EA0C51-6804-4423-9CCC-BF57B26265D1";
layerId = "5E28594B-A5BA-4721-88AA-9F1B206B2555";
name = "Jan 26 20, 16:39";
paths = (
{
closed = 1;
nodes = (
"71 692 OFFCURVE",
"71 602 CURVE SMOOTH",
"69 9 LINE SMOOTH",
"69 -38 OFFCURVE",
"143 -34 OFFCURVE",
"143 6 CURVE SMOOTH",
"142 586 LINE SMOOTH",
"142 630 OFFCURVE",
"170 652 OFFCURVE",
"292 652 CURVE SMOOTH",
"400 652 OFFCURVE",
"476 608 OFFCURVE",
"476 516 CURVE SMOOTH",
"476 429 OFFCURVE",
"430 382 OFFCURVE",
"361 382 CURVE SMOOTH",
"299 382 OFFCURVE",
"259 416 OFFCURVE",
"259 464 CURVE SMOOTH",
"259 523 OFFCURVE",
"287 541 OFFCURVE",
"314 541 CURVE SMOOTH",
"344 541 OFFCURVE",
"363 530 OFFCURVE",
"363 505 CURVE SMOOTH",
"363 490 OFFCURVE",
"358 482 OFFCURVE",
"335 478 CURVE",
"333 465 OFFCURVE",
"342 440 OFFCURVE",
"354 440 CURVE SMOOTH",
"390 440 OFFCURVE",
"417 468 OFFCURVE",
"417 506 CURVE SMOOTH",
"417 557 OFFCURVE",
"374 591 OFFCURVE",
"315 591 CURVE SMOOTH",
"256 591 OFFCURVE",
"204 546 OFFCURVE",
"204 465 CURVE SMOOTH",
"204 380 OFFCURVE",
"279 328 OFFCURVE",
"360 328 CURVE SMOOTH",
"459 328 OFFCURVE",
"543 397 OFFCURVE",
"543 515 CURVE SMOOTH",
"543 621 OFFCURVE",
"476 715 OFFCURVE",
"295 715 CURVE SMOOTH",
"148 715 OFFCURVE"
);
},
{
closed = 1;
nodes = (
"109 229 LINE",
"471 -9 LINE SMOOTH",
"540 -55 OFFCURVE",
"586 -28 OFFCURVE",
"586 66 CURVE SMOOTH",
"586 159 OFFCURVE",
"569 228 OFFCURVE",
"500 235 CURVE SMOOTH",
"123 271 LINE"
);
}
);
width = 600;
},
{
associatedMasterId = "B4EA0C51-6804-4423-9CCC-BF57B26265D1";
layerId = "2768914A-60FC-4FC4-B62A-DE61FC09BA09";
name = "Jan 27 20, 15:15";
paths = (
{
closed = 1;
nodes = (
"63 650 OFFCURVE",
"62 507 CURVE SMOOTH",
"60 9 LINE SMOOTH",
"60 -30 OFFCURVE",
"134 -26 OFFCURVE",
"134 6 CURVE SMOOTH",
"133 501 LINE SMOOTH",
"133 594 OFFCURVE",
"196 652 OFFCURVE",
"297 652 CURVE SMOOTH",
"397 652 OFFCURVE",
"467 605 OFFCURVE",
"467 506 CURVE SMOOTH",
"467 416 OFFCURVE",
"421 367 OFFCURVE",
"352 367 CURVE SMOOTH",
"288 367 OFFCURVE",
"247 405 OFFCURVE",
"247 463 CURVE SMOOTH",
"247 520 OFFCURVE",
"275 537 OFFCURVE",
"303 537 CURVE SMOOTH",
"332 537 OFFCURVE",
"351 526 OFFCURVE",
"351 501 CURVE SMOOTH",
"351 482 OFFCURVE",
"346 473 OFFCURVE",
"323 468 CURVE",
"321 455 OFFCURVE",
"330 430 OFFCURVE",
"342 430 CURVE SMOOTH",
"378 430 OFFCURVE",
"405 461 OFFCURVE",
"405 502 CURVE SMOOTH",
"405 553 OFFCURVE",
"363 587 OFFCURVE",
"304 587 CURVE SMOOTH",
"244 587 OFFCURVE",
"192 543 OFFCURVE",
"192 464 CURVE SMOOTH",
"192 371 OFFCURVE",
"268 314 OFFCURVE",
"351 314 CURVE SMOOTH",
"450 314 OFFCURVE",
"534 384 OFFCURVE",
"534 505 CURVE SMOOTH",
"534 634 OFFCURVE",
"435 715 OFFCURVE",
"297 715 CURVE SMOOTH",
"175 715 OFFCURVE"
);
},
{
closed = 1;
nodes = (
"100 217 LINE",
"462 -9 LINE SMOOTH",
"533 -53 OFFCURVE",
"577 -28 OFFCURVE",
"577 66 CURVE SMOOTH",
"577 159 OFFCURVE",
"560 231 OFFCURVE",
"491 235 CURVE SMOOTH",
"114 259 LINE"
);
}
);
width = 599;
},
{
associatedMasterId = "B4EA0C51-6804-4423-9CCC-BF57B26265D1";
layerId = "BB061284-0BD3-4FA5-802D-3D652A0457ED";
name = "Jan 27 20, 16:57";
paths = (
{
closed = 1;
nodes = (
"63 650 OFFCURVE",
"62 507 CURVE SMOOTH",
"60 9 LINE SMOOTH",
"60 -30 OFFCURVE",
"134 -26 OFFCURVE",
"134 6 CURVE SMOOTH",
"133 501 LINE SMOOTH",
"133 594 OFFCURVE",
"193 652 OFFCURVE",
"290 652 CURVE SMOOTH",
"383 652 OFFCURVE",
"448 607 OFFCURVE",
"448 513 CURVE SMOOTH",
"448 423 OFFCURVE",
"388 388 OFFCURVE",
"297 388 CURVE SMOOTH",
"198 388 OFFCURVE",
"134 436 OFFCURVE",
"134 509 CURVE SMOOTH",
"134 634 OFFCURVE",
"216 671 OFFCURVE",
"298 671 CURVE SMOOTH",
"396 671 OFFCURVE",
"460 621 OFFCURVE",
"460 507 CURVE SMOOTH",
"460 453 OFFCURVE",
"448 387 OFFCURVE",
"302 383 CURVE",
"300 370 OFFCURVE",
"309 335 OFFCURVE",
"321 335 CURVE SMOOTH",
"416 335 OFFCURVE",
"487 422 OFFCURVE",
"487 508 CURVE SMOOTH",
"487 618 OFFCURVE",
"409 691 OFFCURVE",
"299 691 CURVE SMOOTH",
"183 691 OFFCURVE",
"83 618 OFFCURVE",
"83 486 CURVE SMOOTH",
"83 374 OFFCURVE",
"192 323 OFFCURVE",
"302 323 CURVE SMOOTH",
"430 323 OFFCURVE",
"514 388 OFFCURVE",
"514 512 CURVE SMOOTH",
"514 645 OFFCURVE",
"427 715 OFFCURVE",
"290 715 CURVE SMOOTH",
"172 715 OFFCURVE"
);
},
{
closed = 1;
nodes = (
"100 234 LINE",
"444 -4 LINE SMOOTH",
"500 -43 OFFCURVE",
"537 -16 OFFCURVE",
"537 91 CURVE SMOOTH",
"537 177 OFFCURVE",
"524 211 OFFCURVE",
"484 217 CURVE SMOOTH",
"114 276 LINE"
);
}
);
width = 599;
},
{
layerId = "B4EA0C51-6804-4423-9CCC-BF57B26265D1";
paths = (
{
closed = 1;
nodes = (
"172 715 OFFCURVE",
"63 650 OFFCURVE",
"62 507 CURVE SMOOTH",
"60 9 LINE SMOOTH",
"60 -30 OFFCURVE",
"134 -26 OFFCURVE",
"134 6 CURVE SMOOTH",
"133 501 LINE SMOOTH",
"133 555 OFFCURVE",
"173 589 OFFCURVE",
"251 589 CURVE SMOOTH",
"340 589 OFFCURVE",
"441 543 OFFCURVE",
"441 469 CURVE SMOOTH",
"441 413 OFFCURVE",
"382 388 OFFCURVE",
"295 388 CURVE SMOOTH",
"200 388 OFFCURVE",
"134 436 OFFCURVE",
"134 509 CURVE SMOOTH",
"134 634 OFFCURVE",
"216 671 OFFCURVE",
"298 671 CURVE SMOOTH",
"396 671 OFFCURVE",
"460 621 OFFCURVE",
"460 507 CURVE SMOOTH",
"460 453 OFFCURVE",
"448 387 OFFCURVE",
"302 383 CURVE",
"300 370 OFFCURVE",
"309 335 OFFCURVE",
"321 335 CURVE SMOOTH",
"416 335 OFFCURVE",
"487 422 OFFCURVE",
"487 508 CURVE SMOOTH",
"487 618 OFFCURVE",
"409 691 OFFCURVE",
"299 691 CURVE SMOOTH",
"183 691 OFFCURVE",
"83 618 OFFCURVE",
"83 486 CURVE SMOOTH",
"83 374 OFFCURVE",
"192 323 OFFCURVE",
"302 323 CURVE SMOOTH",
"430 323 OFFCURVE",
"514 388 OFFCURVE",
"514 512 CURVE SMOOTH",
"514 645 OFFCURVE",
"427 715 OFFCURVE",
"290 715 CURVE SMOOTH"
);
},
{
closed = 1;
nodes = (
"100 234 LINE",
"444 -4 LINE SMOOTH",
"500 -43 OFFCURVE",
"537 -16 OFFCURVE",
"537 91 CURVE SMOOTH",
"537 177 OFFCURVE",
"524 211 OFFCURVE",
"484 217 CURVE SMOOTH",
"114 276 LINE"
);
},
{
closed = 1;
nodes = (
"450 222 LINE SMOOTH",
"450 222 OFFCURVE",
"395 231 OFFCURVE",
"395 231 CURVE SMOOTH",
"395 231 LINE",
"450 222 LINE"
);
},
{
closed = 1;
nodes = (
"344 239 LINE SMOOTH",
"344 239 OFFCURVE",
"289 248 OFFCURVE",
"289 248 CURVE SMOOTH",
"289 248 LINE",
"344 239 LINE"
);
}
);
width = 574;
},
{
layerId = "7390BA8A-CD54-46A0-980C-73781B2212BF";
paths = (
{
closed = 1;
nodes = (
"175 715 OFFCURVE",
"63 650 OFFCURVE",
"62 507 CURVE SMOOTH",
"60 9 LINE SMOOTH",
"60 -30 OFFCURVE",
"134 -26 OFFCURVE",
"134 6 CURVE SMOOTH",
"133 501 LINE SMOOTH",
"133 594 OFFCURVE",
"196 652 OFFCURVE",
"297 652 CURVE SMOOTH",
"397 652 OFFCURVE",
"467 605 OFFCURVE",
"467 506 CURVE SMOOTH",
"467 416 OFFCURVE",
"421 367 OFFCURVE",
"352 367 CURVE SMOOTH",
"288 367 OFFCURVE",
"247 405 OFFCURVE",
"247 463 CURVE SMOOTH",
"247 520 OFFCURVE",
"275 537 OFFCURVE",
"303 537 CURVE SMOOTH",
"332 537 OFFCURVE",
"351 526 OFFCURVE",
"351 501 CURVE SMOOTH",
"351 482 OFFCURVE",
"346 473 OFFCURVE",
"323 468 CURVE",
"321 455 OFFCURVE",
"330 430 OFFCURVE",
"342 430 CURVE SMOOTH",
"378 430 OFFCURVE",
"405 461 OFFCURVE",
"405 502 CURVE SMOOTH",
"405 553 OFFCURVE",
"363 587 OFFCURVE",
"304 587 CURVE SMOOTH",
"244 587 OFFCURVE",
"192 543 OFFCURVE",
"192 464 CURVE SMOOTH",
"192 371 OFFCURVE",
"268 314 OFFCURVE",
"351 314 CURVE SMOOTH",
"450 314 OFFCURVE",
"534 384 OFFCURVE",
"534 505 CURVE SMOOTH",
"534 634 OFFCURVE",
"435 715 OFFCURVE",
"297 715 CURVE SMOOTH"
);
},
{
closed = 1;
nodes = (
"100 234 LINE",
"444 -4 LINE SMOOTH",
"500 -43 OFFCURVE",
"537 -16 OFFCURVE",
"537 91 CURVE SMOOTH",
"537 177 OFFCURVE",
"524 211 OFFCURVE",
"484 217 CURVE SMOOTH",
"114 276 LINE"
);
},
{
closed = 1;
nodes = (
"450 130 LINE SMOOTH",
"450 107 OFFCURVE",
"395 107 OFFCURVE",
"395 130 CURVE SMOOTH",
"395 231 LINE",
"450 222 LINE"
);
},
{
closed = 1;
nodes = (
"344 175 LINE SMOOTH",
"344 152 OFFCURVE",
"289 152 OFFCURVE",
"289 175 CURVE SMOOTH",
"289 248 LINE",
"344 239 LINE"
);
}
);
width = 599;
}
);
unicode = 0052;
},
{
glyphname = S;
lastChange = "2020-01-30 19:39:46 +0000";
layers = (
{
layerId = "7390BA8A-CD54-46A0-980C-73781B2212BF";
width = 550;
},
{
associatedMasterId = "B4EA0C51-6804-4423-9CCC-BF57B26265D1";
layerId = "BC9C7E28-151B-4978-828B-4BB8838FC852";
name = "Jan 30 20, 11:30";
paths = (
{
closed = 1;
nodes = (
"169 653 OFFCURVE",
"109 594 OFFCURVE",
"109 514 CURVE SMOOTH",
"109 331 OFFCURVE",
"501 350 OFFCURVE",
"501 171 CURVE SMOOTH",
"501 100 OFFCURVE",
"459 -5 OFFCURVE",
"267 -5 CURVE SMOOTH",
"117 -5 OFFCURVE",
"42 56 OFFCURVE",
"42 131 CURVE SMOOTH",
"42 158 OFFCURVE",
"45 183 OFFCURVE",
"54 188 CURVE SMOOTH",
"67 196 OFFCURVE",
"181 170 OFFCURVE",
"264 170 CURVE SMOOTH",
"362 170 OFFCURVE",
"395 184 OFFCURVE",
"395 202 CURVE SMOOTH",
"395 294 OFFCURVE",
"39 286 OFFCURVE",
"39 521 CURVE SMOOTH",
"39 629 OFFCURVE",
"114 718 OFFCURVE",
"279 718 CURVE SMOOTH",
"407 718 OFFCURVE",
"474 645 OFFCURVE",
"474 569 CURVE SMOOTH",
"474 456 OFFCURVE",
"389 412 OFFCURVE",
"322 412 CURVE SMOOTH",
"241 412 OFFCURVE",
"182 447 OFFCURVE",
"182 511 CURVE SMOOTH",
"182 569 OFFCURVE",
"228 602 OFFCURVE",
"286 602 CURVE SMOOTH",
"304 602 OFFCURVE",
"327 593 OFFCURVE",
"335 585 CURVE SMOOTH",
"369 553 OFFCURVE",
"327 518 OFFCURVE",
"311 533 CURVE SMOOTH",
"305 538 OFFCURVE",
"295 543 OFFCURVE",
"280 543 CURVE SMOOTH",
"259 543 OFFCURVE",
"241 533 OFFCURVE",
"241 509 CURVE SMOOTH",
"241 482 OFFCURVE",
"275 469 OFFCURVE",
"320 469 CURVE SMOOTH",
"369 469 OFFCURVE",
"410 507 OFFCURVE",
"410 564 CURVE SMOOTH",
"410 616 OFFCURVE",
"359 653 OFFCURVE",
"288 653 CURVE SMOOTH"
);
}
);
width = 550;
},
{
associatedMasterId = "B4EA0C51-6804-4423-9CCC-BF57B26265D1";
layerId = "15238981-2C21-46C9-8FC5-67AEE6C4C086";
name = "Jan 30 20, 11:39";
paths = (
{
closed = 1;
nodes = (
"423 682 OFFCURVE",
"395 619 OFFCURVE",
"364 631 CURVE SMOOTH",
"343 639 OFFCURVE",
"296 651 OFFCURVE",
"252 651 CURVE SMOOTH",
"166 651 OFFCURVE",
"120 628 OFFCURVE",
"120 560 CURVE SMOOTH",
"120 401 OFFCURVE",
"454 429 OFFCURVE",
"454 196 CURVE SMOOTH",
"454 70 OFFCURVE",
"371 -5 OFFCURVE",
"239 -5 CURVE SMOOTH",
"101 -5 OFFCURVE",
"33 58 OFFCURVE",
"33 164 CURVE SMOOTH",
"33 199 OFFCURVE",
"46 213 OFFCURVE",
"70 206 CURVE SMOOTH",
"125 190 OFFCURVE",
"192 180 OFFCURVE",
"249 180 CURVE SMOOTH",
"325 180 OFFCURVE",
"367 188 OFFCURVE",
"367 243 CURVE SMOOTH",
"367 372 OFFCURVE",
"52 357 OFFCURVE",
"52 559 CURVE SMOOTH",
"52 658 OFFCURVE",
"124 718 OFFCURVE",
"250 718 CURVE SMOOTH",
"307 718 OFFCURVE",
"348 708 OFFCURVE",
"379 697 CURVE SMOOTH"
);
}
);
width = 479;
},
{
layerId = "B4EA0C51-6804-4423-9CCC-BF57B26265D1";
paths = (
{
closed = 1;
nodes = (
"169 653 OFFCURVE",
"109 594 OFFCURVE",
"109 514 CURVE SMOOTH",
"109 334 OFFCURVE",
"483 360 OFFCURVE",
"483 171 CURVE SMOOTH",
"483 100 OFFCURVE",
"420 -5 OFFCURVE",
"267 -5 CURVE SMOOTH",
"120 -5 OFFCURVE",
"42 64 OFFCURVE",
"42 169 CURVE SMOOTH",
"42 200 OFFCURVE",
"55 213 OFFCURVE",
"79 206 CURVE SMOOTH",
"134 190 OFFCURVE",
"201 180 OFFCURVE",
"258 180 CURVE SMOOTH",
"339 180 OFFCURVE",
"383 184 OFFCURVE",
"383 210 CURVE SMOOTH",
"383 300 OFFCURVE",
"39 292 OFFCURVE",
"39 521 CURVE SMOOTH",
"39 629 OFFCURVE",
"114 718 OFFCURVE",
"279 718 CURVE SMOOTH",
"407 718 OFFCURVE",
"474 645 OFFCURVE",
"474 569 CURVE SMOOTH",
"474 456 OFFCURVE",
"389 412 OFFCURVE",
"322 412 CURVE SMOOTH",
"241 412 OFFCURVE",
"182 447 OFFCURVE",
"182 511 CURVE SMOOTH",
"182 569 OFFCURVE",
"228 602 OFFCURVE",
"286 602 CURVE SMOOTH",
"304 602 OFFCURVE",
"327 593 OFFCURVE",
"335 585 CURVE SMOOTH",
"369 553 OFFCURVE",
"327 518 OFFCURVE",
"311 533 CURVE SMOOTH",
"305 538 OFFCURVE",
"295 543 OFFCURVE",
"280 543 CURVE SMOOTH",
"259 543 OFFCURVE",
"241 533 OFFCURVE",
"241 509 CURVE SMOOTH",
"241 482 OFFCURVE",
"275 469 OFFCURVE",
"320 469 CURVE SMOOTH",
"369 469 OFFCURVE",
"410 507 OFFCURVE",
"410 564 CURVE SMOOTH",
"410 616 OFFCURVE",
"359 653 OFFCURVE",
"288 653 CURVE SMOOTH"
);
}
);
width = 550;
}
);
unicode = 0053;
},
{
glyphname = T;
lastChange = "2020-01-30 19:41:42 +0000";
layers = (
{
layerId = "B4EA0C51-6804-4423-9CCC-BF57B26265D1";
paths = (
{
closed = 1;
nodes = (
"205 -20 OFFCURVE",
"277 -21 OFFCURVE",
"277 16 CURVE SMOOTH",
"278 454 LINE",
"208 454 LINE",
"205 17 LINE SMOOTH"
);
},
{
closed = 1;
nodes = (
"-13 704 OFFCURVE",
"-11 421 OFFCURVE",
"96 421 CURVE SMOOTH",
"381 420 LINE SMOOTH",
"495 420 OFFCURVE",
"492 699 OFFCURVE",
"381 700 CURVE SMOOTH",
"97 703 LINE SMOOTH"
);
}
);
width = 480;
},
{
layerId = "7390BA8A-CD54-46A0-980C-73781B2212BF";
width = 600;
}
);
unicode = 0054;
},
{
glyphname = U;
lastChange = "2020-01-30 20:30:38 +0000";
layers = (
{
layerId = "B4EA0C51-6804-4423-9CCC-BF57B26265D1";
paths = (
{
closed = 1;
nodes = (
"400 0 OFFCURVE",
"499 80 OFFCURVE",
"498 223 CURVE SMOOTH",
"495 649 LINE SMOOTH",
"494 734 OFFCURVE",
"325 734 OFFCURVE",
"325 649 CURVE SMOOTH",
"326 223 LINE SMOOTH",
"326 127 OFFCURVE",
"298 69 OFFCURVE",
"219 69 CURVE SMOOTH",
"148 69 OFFCURVE",
"112 128 OFFCURVE",
"112 223 CURVE SMOOTH",
"113 681 LINE SMOOTH",
"113 724 OFFCURVE",
"43 724 OFFCURVE",
"43 681 CURVE SMOOTH",
"40 223 LINE SMOOTH",
"39 80 OFFCURVE",
"114 0 OFFCURVE",
"249 0 CURVE SMOOTH"
);
}
);
width = 538;
},
{
layerId = "7390BA8A-CD54-46A0-980C-73781B2212BF";
width = 600;
},
{
associatedMasterId = "B4EA0C51-6804-4423-9CCC-BF57B26265D1";
layerId = "C1A9DAD3-502E-4585-B09C-4436B337B472";
name = "Jan 30 20, 11:45";
paths = (
{
closed = 1;
nodes = (
"368 0 OFFCURVE",
"439 79 OFFCURVE",
"438 233 CURVE SMOOTH",
"435 681 LINE SMOOTH",
"435 724 OFFCURVE",
"365 724 OFFCURVE",
"365 681 CURVE SMOOTH",
"366 325 LINE SMOOTH",
"366 258 OFFCURVE",
"335 221 OFFCURVE",
"239 221 CURVE SMOOTH",
"143 221 OFFCURVE",
"112 258 OFFCURVE",
"112 325 CURVE SMOOTH",
"113 681 LINE SMOOTH",
"113 724 OFFCURVE",
"43 724 OFFCURVE",
"43 681 CURVE SMOOTH",
"40 233 LINE SMOOTH",
"39 79 OFFCURVE",
"110 0 OFFCURVE",
"239 0 CURVE SMOOTH"
);
}
);
width = 478;
}
);
unicode = 0055;
},
{
glyphname = V;
lastChange = "2020-01-30 20:05:16 +0000";
layers = (
{
layerId = "B4EA0C51-6804-4423-9CCC-BF57B26265D1";
paths = (
{
closed = 1;
nodes = (
"99 195 LINE SMOOTH",
"134 23 OFFCURVE",
"226 -12 OFFCURVE",
"312 -12 CURVE SMOOTH",
"408 -12 OFFCURVE",
"456 40 OFFCURVE",
"468 94 CURVE SMOOTH",
"593 670 LINE SMOOTH",
"603 714 OFFCURVE",
"536 727 OFFCURVE",
"525 679 CURVE SMOOTH",
"402 124 LINE SMOOTH",
"394 88 OFFCURVE",
"385 76 OFFCURVE",
"362 76 CURVE SMOOTH",
"341 76 OFFCURVE",
"331 84 OFFCURVE",
"323 118 CURVE SMOOTH",
"203 653 LINE SMOOTH",
"182 745 OFFCURVE",
"-11 744 OFFCURVE",
"18 599 CURVE SMOOTH"
);
}
);
width = 609;
},
{
layerId = "7390BA8A-CD54-46A0-980C-73781B2212BF";
width = 600;
}
);
unicode = 0056;
},
{
glyphname = W;
lastChange = "2020-01-30 20:05:40 +0000";
layers = (
{
layerId = "B4EA0C51-6804-4423-9CCC-BF57B26265D1";
paths = (
{
closed = 1;
nodes = (
"124 59 LINE SMOOTH",
"131 17 OFFCURVE",
"166 -12 OFFCURVE",
"208 -12 CURVE SMOOTH",
"250 -12 OFFCURVE",
"280 14 OFFCURVE",
"309 79 CURVE SMOOTH",
"434 357 LINE SMOOTH",
"444 380 OFFCURVE",
"468 380 OFFCURVE",
"475 358 CURVE SMOOTH",
"572 59 LINE SMOOTH",
"587 14 OFFCURVE",
"613 -12 OFFCURVE",
"655 -12 CURVE SMOOTH",
"697 -12 OFFCURVE",
"726 17 OFFCURVE",
"733 59 CURVE SMOOTH",
"835 670 LINE SMOOTH",
"842 714 OFFCURVE",
"775 727 OFFCURVE",
"767 679 CURVE SMOOTH",
"673 89 LINE SMOOTH",
"668 59 OFFCURVE",
"641 60 OFFCURVE",
"632 88 CURVE SMOOTH",
"491 542 LINE SMOOTH",
"466 621 OFFCURVE",
"352 627 OFFCURVE",
"319 549 CURVE SMOOTH",
"211 291 LINE SMOOTH",
"195 253 OFFCURVE",
"159 261 OFFCURVE",
"153 293 CURVE SMOOTH",
"84 679 LINE SMOOTH",
"75 727 OFFCURVE",
"8 714 OFFCURVE",
"16 670 CURVE SMOOTH"
);
}
);
width = 851;
},
{
layerId = "7390BA8A-CD54-46A0-980C-73781B2212BF";
width = 600;
},
{
associatedMasterId = "B4EA0C51-6804-4423-9CCC-BF57B26265D1";
layerId = "CFBB2337-DF1A-40D5-90ED-09E6AA9369F1";
name = "Jan 30 20, 12:00";
paths = (
{
closed = 1;
nodes = (
"600 726 OFFCURVE",
"414 748 OFFCURVE",
"376 653 CURVE SMOOTH",
"233 293 LINE SMOOTH",
"218 256 OFFCURVE",
"183 263 OFFCURVE",
"175 295 CURVE SMOOTH",
"84 679 LINE SMOOTH",
"73 727 OFFCURVE",
"6 714 OFFCURVE",
"16 670 CURVE SMOOTH",
"153 59 LINE SMOOTH",
"162 17 OFFCURVE",
"186 -12 OFFCURVE",
"228 -12 CURVE SMOOTH",
"270 -12 OFFCURVE",
"303 16 OFFCURVE",
"329 79 CURVE SMOOTH",
"532 564 LINE SMOOTH"
);
},
{
closed = 1;
nodes = (
"632 59 LINE SMOOTH",
"650 16 OFFCURVE",
"673 -12 OFFCURVE",
"715 -12 CURVE SMOOTH",
"757 -12 OFFCURVE",
"781 17 OFFCURVE",
"790 59 CURVE SMOOTH",
"927 670 LINE SMOOTH",
"937 714 OFFCURVE",
"869 727 OFFCURVE",
"859 679 CURVE SMOOTH",
"734 80 LINE SMOOTH",
"728 50 OFFCURVE",
"704 51 OFFCURVE",
"693 79 CURVE SMOOTH",
"474 627 LINE",
"413 598 LINE"
);
}
);
width = 932;
},
{
associatedMasterId = "B4EA0C51-6804-4423-9CCC-BF57B26265D1";
layerId = "152FD446-D2A0-4EBB-A273-4C31E4A98ACF";
name = "Jan 30 20, 12:01";
paths = (
{
closed = 1;
nodes = (
"600 726 OFFCURVE",
"414 748 OFFCURVE",
"376 653 CURVE SMOOTH",
"233 293 LINE SMOOTH",
"218 256 OFFCURVE",
"183 263 OFFCURVE",
"175 295 CURVE SMOOTH",
"84 679 LINE SMOOTH",
"73 727 OFFCURVE",
"6 714 OFFCURVE",
"16 670 CURVE SMOOTH",
"153 59 LINE SMOOTH",
"162 17 OFFCURVE",
"186 -12 OFFCURVE",
"228 -12 CURVE SMOOTH",
"270 -12 OFFCURVE",
"303 16 OFFCURVE",
"329 79 CURVE SMOOTH",
"532 564 LINE SMOOTH"
);
},
{
closed = 1;
nodes = (
"590 59 LINE SMOOTH",
"607 16 OFFCURVE",
"631 -12 OFFCURVE",
"673 -12 CURVE SMOOTH",
"715 -12 OFFCURVE",
"739 17 OFFCURVE",
"748 59 CURVE SMOOTH",
"885 670 LINE SMOOTH",
"895 714 OFFCURVE",
"827 727 OFFCURVE",
"817 679 CURVE SMOOTH",
"692 80 LINE SMOOTH",
"686 50 OFFCURVE",
"662 51 OFFCURVE",
"651 79 CURVE SMOOTH",
"466 543 LINE",
"405 514 LINE"
);
}
);
width = 932;
},
{
associatedMasterId = "B4EA0C51-6804-4423-9CCC-BF57B26265D1";
layerId = "42A1B96B-A39B-4DB2-93CA-52263F3161DB";
name = "Jan 30 20, 12:02";
paths = (
{
closed = 1;
nodes = (
"153 59 LINE SMOOTH",
"162 17 OFFCURVE",
"186 -12 OFFCURVE",
"228 -12 CURVE SMOOTH",
"270 -12 OFFCURVE",
"301 15 OFFCURVE",
"329 79 CURVE SMOOTH",
"462 379 LINE SMOOTH",
"472 402 OFFCURVE",
"494 402 OFFCURVE",
"503 380 CURVE SMOOTH",
"635 59 LINE SMOOTH",
"653 16 OFFCURVE",
"676 -12 OFFCURVE",
"718 -12 CURVE SMOOTH",
"760 -12 OFFCURVE",
"784 17 OFFCURVE",
"793 59 CURVE SMOOTH",
"930 670 LINE SMOOTH",
"940 714 OFFCURVE",
"872 727 OFFCURVE",
"862 679 CURVE SMOOTH",
"737 80 LINE SMOOTH",
"731 50 OFFCURVE",
"707 51 OFFCURVE",
"696 79 CURVE SMOOTH",
"514 537 LINE SMOOTH",
"481 621 OFFCURVE",
"375 628 OFFCURVE",
"342 551 CURVE SMOOTH",
"233 293 LINE SMOOTH",
"217 255 OFFCURVE",
"183 263 OFFCURVE",
"175 295 CURVE SMOOTH",
"84 679 LINE SMOOTH",
"73 727 OFFCURVE",
"6 714 OFFCURVE",
"16 670 CURVE SMOOTH"
);
}
);
width = 932;
},
{
associatedMasterId = "B4EA0C51-6804-4423-9CCC-BF57B26265D1";
layerId = "E0788461-47AC-456A-95C0-BAE4C83EB64A";
name = "Jan 30 20, 12:03";
paths = (
{
closed = 1;
nodes = (
"153 59 LINE SMOOTH",
"162 17 OFFCURVE",
"186 -12 OFFCURVE",
"228 -12 CURVE SMOOTH",
"270 -12 OFFCURVE",
"294 17 OFFCURVE",
"329 79 CURVE SMOOTH",
"488 364 LINE SMOOTH",
"501 387 OFFCURVE",
"521 387 OFFCURVE",
"529 365 CURVE SMOOTH",
"635 59 LINE SMOOTH",
"651 14 OFFCURVE",
"676 -12 OFFCURVE",
"718 -12 CURVE SMOOTH",
"760 -12 OFFCURVE",
"784 17 OFFCURVE",
"793 59 CURVE SMOOTH",
"930 670 LINE SMOOTH",
"940 714 OFFCURVE",
"872 727 OFFCURVE",
"862 679 CURVE SMOOTH",
"736 83 LINE SMOOTH",
"730 53 OFFCURVE",
"704 54 OFFCURVE",
"695 82 CURVE SMOOTH",
"541 535 LINE SMOOTH",
"512 620 OFFCURVE",
"409 624 OFFCURVE",
"369 549 CURVE SMOOTH",
"231 291 LINE SMOOTH",
"212 255 OFFCURVE",
"180 261 OFFCURVE",
"173 293 CURVE SMOOTH",
"84 679 LINE SMOOTH",
"73 727 OFFCURVE",
"6 714 OFFCURVE",
"16 670 CURVE SMOOTH"
);
}
);
width = 932;
}
);
unicode = 0057;
},
{
glyphname = X;
lastChange = "2020-01-30 20:12:50 +0000";
layers = (
{
layerId = "B4EA0C51-6804-4423-9CCC-BF57B26265D1";
paths = (
{
closed = 1;
nodes = (
"519 -79 OFFCURVE",
"691 41 OFFCURVE",
"622 133 CURVE SMOOTH",
"206 693 LINE SMOOTH",
"133 791 OFFCURVE",
"-33 669 OFFCURVE",
"36 575 CURVE SMOOTH",
"450 14 LINE SMOOTH"
);
},
{
closed = 1;
nodes = (
"255 364 LINE",
"42 52 LINE SMOOTH",
"7 0 OFFCURVE",
"72 -43 OFFCURVE",
"102 2 CURVE SMOOTH",
"305 303 LINE"
);
},
{
closed = 1;
nodes = (
"366 306 LINE",
"597 650 LINE SMOOTH",
"626 693 OFFCURVE",
"564 738 OFFCURVE",
"536 696 CURVE SMOOTH",
"316 367 LINE"
);
}
);
width = 658;
},
{
layerId = "7390BA8A-CD54-46A0-980C-73781B2212BF";
width = 600;
}
);
unicode = 0058;
},
{
glyphname = Y;
lastChange = "2020-01-30 20:15:03 +0000";
layers = (
{
layerId = "B4EA0C51-6804-4423-9CCC-BF57B26265D1";
paths = (
{
closed = 1;
nodes = (
"245 326 LINE",
"286 171 LINE",
"585 575 LINE SMOOTH",
"652 665 OFFCURVE",
"484 796 OFFCURVE",
"415 693 CURVE SMOOTH",
"268 475 LINE SMOOTH",
"257 459 OFFCURVE",
"243 460 OFFCURVE",
"233 475 CURVE SMOOTH",
"85 696 LINE SMOOTH",
"56 739 OFFCURVE",
"-12 702 OFFCURVE",
"17 659 CURVE SMOOTH"
);
},
{
closed = 1;
nodes = (
"232 -20 OFFCURVE",
"304 -21 OFFCURVE",
"304 16 CURVE SMOOTH",
"305 367 LINE",
"235 367 LINE",
"232 17 LINE SMOOTH"
);
}
);
width = 610;
},
{
layerId = "7390BA8A-CD54-46A0-980C-73781B2212BF";
width = 600;
}
);
unicode = 0059;
},
{
glyphname = Z;
lastChange = "2020-01-30 20:25:22 +0000";
layers = (
{
associatedMasterId = "B4EA0C51-6804-4423-9CCC-BF57B26265D1";
layerId = "9A1B41CB-54E4-4836-A803-0A08CF0EEB94";
name = "Jan 30 20, 12:18";
paths = (
{
closed = 1;
nodes = (
"45 47 OFFCURVE",
"61 -1 OFFCURVE",
"98 -1 CURVE SMOOTH",
"491 -2 LINE SMOOTH",
"543 -2 OFFCURVE",
"540 78 OFFCURVE",
"491 78 CURVE SMOOTH",
"138 78 LINE",
"499 614 LINE SMOOTH",
"521 646 OFFCURVE",
"519 699 OFFCURVE",
"487 699 CURVE SMOOTH",
"137 700 LINE SMOOTH",
"27 700 OFFCURVE",
"29 421 OFFCURVE",
"136 421 CURVE SMOOTH",
"288 421 LINE",
"65 78 LINE SMOOTH"
);
}
);
width = 600;
},
{
associatedMasterId = "B4EA0C51-6804-4423-9CCC-BF57B26265D1";
layerId = "EC5AB9ED-F77E-496B-BA46-F7EF3C686559";
name = "Jan 30 20, 12:20";
paths = (
{
closed = 1;
nodes = (
"45 47 OFFCURVE",
"61 -1 OFFCURVE",
"98 -1 CURVE SMOOTH",
"381 -2 LINE SMOOTH",
"453 -2 OFFCURVE",
"566 238 OFFCURVE",
"481 238 CURVE SMOOTH",
"249 238 LINE",
"499 614 LINE SMOOTH",
"521 646 OFFCURVE",
"519 699 OFFCURVE",
"487 699 CURVE SMOOTH",
"265 700 LINE SMOOTH",
"175 700 OFFCURVE",
"9 421 OFFCURVE",
"78 421 CURVE SMOOTH",
"288 421 LINE",
"65 78 LINE SMOOTH"
);
}
);
width = 600;
},
{
layerId = "7390BA8A-CD54-46A0-980C-73781B2212BF";
width = 600;
},
{
associatedMasterId = "B4EA0C51-6804-4423-9CCC-BF57B26265D1";
layerId = "EC40AC47-023C-4AC1-A939-4570DCA3F76E";
name = "Jan 30 20, 12:22";
paths = (
{
closed = 1;
nodes = (
"45 47 OFFCURVE",
"61 -1 OFFCURVE",
"98 -1 CURVE SMOOTH",
"497 -2 LINE SMOOTH",
"543 -2 OFFCURVE",
"540 75 OFFCURVE",
"495 75 CURVE SMOOTH",
"143 75 LINE",
"499 614 LINE SMOOTH",
"521 647 OFFCURVE",
"519 699 OFFCURVE",
"487 699 CURVE SMOOTH",
"225 700 LINE SMOOTH",
"141 700 OFFCURVE",
"4 421 OFFCURVE",
"73 421 CURVE SMOOTH",
"288 421 LINE",
"65 78 LINE SMOOTH"
);
}
);
width = 600;
},
{
layerId = "B4EA0C51-6804-4423-9CCC-BF57B26265D1";
paths = (
{
closed = 1;
nodes = (
"19 34 OFFCURVE",
"32 -1 OFFCURVE",
"77 -1 CURVE SMOOTH",
"462 -2 LINE SMOOTH",
"507 -2 OFFCURVE",
"505 73 OFFCURVE",
"460 73 CURVE SMOOTH",
"275 73 LINE SMOOTH",
"251 73 OFFCURVE",
"244 93 OFFCURVE",
"253 116 CURVE SMOOTH",
"447 614 LINE SMOOTH",
"468 667 OFFCURVE",
"450 699 OFFCURVE",
"417 699 CURVE SMOOTH",
"73 700 LINE SMOOTH",
"23 700 OFFCURVE",
"25 625 OFFCURVE",
"72 625 CURVE SMOOTH",
"215 625 LINE SMOOTH",
"234 625 OFFCURVE",
"241 608 OFFCURVE",
"234 589 CURVE SMOOTH",
"38 84 LINE SMOOTH"
);
}
);
width = 525;
},
{
associatedMasterId = "B4EA0C51-6804-4423-9CCC-BF57B26265D1";
layerId = "6B6C808C-0233-4493-8E90-4AB28E6AAD6A";
name = "Jan 30 20, 12:22";
paths = (
{
closed = 1;
nodes = (
"45 47 OFFCURVE",
"61 -1 OFFCURVE",
"98 -1 CURVE SMOOTH",
"491 -2 LINE SMOOTH",
"563 -2 OFFCURVE",
"566 238 OFFCURVE",
"481 238 CURVE SMOOTH",
"249 238 LINE",
"499 614 LINE SMOOTH",
"521 646 OFFCURVE",
"519 699 OFFCURVE",
"487 699 CURVE SMOOTH",
"137 700 LINE SMOOTH",
"27 700 OFFCURVE",
"29 421 OFFCURVE",
"136 421 CURVE SMOOTH",
"288 421 LINE",
"65 78 LINE SMOOTH"
);
}
);
width = 600;
}
);
unicode = 005A;
},
{
glyphname = bar;
lastChange = "2020-01-28 01:33:14 +0000";
layers = (
{
layerId = "B4EA0C51-6804-4423-9CCC-BF57B26265D1";
paths = (
{
closed = 1;
nodes = (
"75 -99 LINE SMOOTH",
"75 -142 OFFCURVE",
"145 -142 OFFCURVE",
"145 -99 CURVE SMOOTH",
"145 721 LINE SMOOTH",
"145 764 OFFCURVE",
"75 764 OFFCURVE",
"75 721 CURVE SMOOTH"
);
}
